<svg width="35" height="35" viewBox="0 0 35 35" fill="none" xmlns="http://www.w3.org/2000/svg">
<g id="Layer_1" clip-path="url(#clip0_32_1974)">
<path id="Vector" d="M34.9999 7.32206V27.7556C34.8921 27.7912 34.9341 27.8871 34.9223 27.9575C34.3313 31.4801 31.9083 34.0602 28.4615 34.832C28.182 34.895 27.8852 34.8731 27.6194 35H7.25251C7.21689 34.8923 7.12099 34.9343 7.05067 34.9224C2.94076 34.2328 0.025464 30.9138 0.0181575 26.8533C0.00110896 20.6129 0.00110896 14.3719 0.0181575 8.13033C0.0308611 5.98216 0.889917 3.9256 2.40902 2.40667C3.92812 0.88774 5.98477 0.0289287 8.13295 0.0164668C14.3849 -0.00727931 20.6371 -0.00727931 26.8897 0.0164668C30.7018 0.0283399 33.9852 2.72626 34.809 6.4471C34.872 6.73845 34.862 7.0435 34.9999 7.32206ZM17.4871 32.2656C20.5732 32.2656 23.6602 32.271 26.7463 32.2656C29.8515 32.2582 32.2618 29.8453 32.2645 26.7391C32.27 20.5894 32.27 14.4398 32.2645 8.29016C32.2645 5.16023 29.8561 2.74909 26.7308 2.74727C20.5811 2.743 14.4315 2.743 8.28182 2.74727C5.15555 2.74727 2.74805 5.16023 2.74622 8.28925C2.74257 14.4389 2.74257 20.5885 2.74622 26.7382C2.74285 27.1138 2.77866 27.4888 2.85308 27.857C3.41386 30.4937 5.59302 32.2628 8.30008 32.2656C11.3615 32.2692 14.4239 32.2692 17.4871 32.2656Z" fill="#C1C4C7"/>
<path id="Vector_2" d="M16.2058 13.5664C16.2058 12.8357 16.2058 12.1051 16.2058 11.3799C16.2058 10.526 16.7867 9.91404 17.5813 9.9186C18.3759 9.92317 18.9357 10.5287 18.9385 11.3644C18.9385 12.8211 18.9494 14.2788 18.9312 15.7355C18.9312 16.0488 18.9796 16.152 19.3239 16.1465C20.7852 16.1237 22.2383 16.1291 23.695 16.1392C24.6723 16.1465 25.2887 16.9858 25.0202 17.9147C24.8485 18.5065 24.3398 18.8663 23.6429 18.8691C22.1972 18.8736 20.7514 18.8782 19.3056 18.8636C19.0234 18.8636 18.9248 18.9047 18.9293 19.2225C18.9503 20.7021 18.9449 22.1817 18.9357 23.6612C18.9355 23.9977 18.8107 24.3223 18.5855 24.5723C18.3603 24.8223 18.0505 24.9801 17.7159 25.0154C17.3812 25.0507 17.0454 24.9609 16.773 24.7633C16.5006 24.5657 16.3109 24.2743 16.2405 23.9453C16.2132 23.8002 16.2019 23.6526 16.2067 23.5051C16.2067 22.0702 16.1994 20.6363 16.2113 19.2024C16.2113 18.9494 16.1675 18.8599 15.8871 18.8627C14.4075 18.8791 12.9276 18.8791 11.4475 18.8627C10.4702 18.8554 9.82269 17.9494 10.1296 17.0525C10.3204 16.4908 10.8319 16.1346 11.4676 16.1328C12.9362 16.1328 14.4048 16.1264 15.8734 16.1374C16.1246 16.1374 16.2223 16.0972 16.2131 15.814C16.1912 15.0688 16.2058 14.3171 16.2058 13.5664Z" fill="#C1C4C7"/>
</g>
<defs>
<clipPath id="clip0_32_1974">
<rect width="35" height="35" fill="white"/>
</clipPath>
</defs>
</svg>
