<svg width="20" height="20" viewBox="0 0 20 20" fill="none" xmlns="http://www.w3.org/2000/svg">
<g id="Layer_1" clip-path="url(#clip0_31_8335)">
<path id="Vector" d="M19.9998 4.18407V15.8604C19.9382 15.8807 19.9622 15.9355 19.9554 15.9757C19.6178 17.9887 18.2332 19.463 16.2636 19.904C16.1039 19.94 15.9342 19.9275 15.7824 20.0001H4.14415C4.1238 19.9385 4.069 19.9625 4.02881 19.9557C1.68029 19.5617 0.0144113 17.6651 0.0102362 15.3448C0.000494185 11.7788 0.000494185 8.21256 0.0102362 4.64594C0.0174954 3.41841 0.508385 2.24323 1.37644 1.37527C2.2445 0.507315 3.41973 0.0165655 4.64726 0.0094445C8.21979 -0.00412473 11.7925 -0.00412473 15.3654 0.0094445C17.5438 0.0162291 19.42 1.5579 19.8907 3.68409C19.9267 3.85058 19.921 4.02489 19.9998 4.18407ZM9.99249 18.4375C11.756 18.4375 13.52 18.4406 15.2834 18.4375C17.0579 18.4333 18.4352 17.0545 18.4367 15.2795C18.4399 11.7654 18.4399 8.25135 18.4367 4.73727C18.4367 2.94874 17.0605 1.57094 15.2746 1.5699C11.7605 1.56747 8.24641 1.56747 4.73233 1.5699C2.94589 1.5699 1.57017 2.94874 1.56913 4.73675C1.56704 8.25083 1.56704 11.7649 1.56913 15.279C1.5672 15.4936 1.58767 15.7079 1.63019 15.9183C1.95064 17.425 3.19587 18.4359 4.74276 18.4375C6.49215 18.4396 8.24206 18.4396 9.99249 18.4375Z" fill="white"/>
<path id="Vector_2" d="M9.26069 7.75218C9.26069 7.33466 9.26069 6.91715 9.26069 6.50277C9.26069 6.0148 9.59261 5.66513 10.0467 5.66774C10.5007 5.67035 10.8206 6.01637 10.8222 6.4939C10.8222 7.32632 10.8285 8.15926 10.818 8.99168C10.818 9.17068 10.8457 9.22966 11.0424 9.22653C11.8775 9.21348 12.7078 9.21662 13.5402 9.22236C14.0986 9.22654 14.4509 9.70615 14.2975 10.2369C14.1994 10.5751 13.9087 10.7807 13.5105 10.7823C12.6843 10.7849 11.8581 10.7875 11.032 10.7792C10.8707 10.7792 10.8144 10.8027 10.817 10.9843C10.829 11.8297 10.8258 12.6752 10.8206 13.5207C10.8205 13.713 10.7492 13.8984 10.6205 14.0413C10.4918 14.1841 10.3148 14.2743 10.1236 14.2945C9.93234 14.3146 9.74042 14.2633 9.58476 14.1504C9.42911 14.0375 9.32074 13.871 9.28052 13.683C9.26492 13.6001 9.25845 13.5157 9.26121 13.4314C9.26121 12.6115 9.25704 11.7922 9.26382 10.9728C9.26382 10.8282 9.23877 10.7771 9.07854 10.7786C8.23308 10.788 7.38744 10.788 6.54162 10.7786C5.9832 10.7745 5.61317 10.2568 5.78853 9.74425C5.89761 9.42329 6.18987 9.21975 6.55311 9.2187C7.39231 9.2187 8.23151 9.21505 9.07072 9.22132C9.21424 9.22132 9.27008 9.19835 9.26486 9.03656C9.25234 8.6107 9.26069 8.18117 9.26069 7.75218Z" fill="white"/>
</g>
<defs>
<clipPath id="clip0_31_8335">
<rect width="20" height="20" fill="white"/>
</clipPath>
</defs>
</svg>
