<svg width="13" height="7" viewBox="0 0 13 7" fill="none" xmlns="http://www.w3.org/2000/svg">
<g id="Isolation_Mode" clip-path="url(#clip0_46_16455)">
<path id="Vector" d="M6.82444 6.99991C6.39431 6.9974 5.969 6.9106 5.57343 6.7446C5.17786 6.5786 4.81997 6.33674 4.5207 6.03316C3.34687 4.86651 2.17593 3.69702 1.00788 2.52467C0.532943 2.04876 0.527867 1.38648 0.982536 0.959653C1.4372 0.532829 2.08373 0.563418 2.55287 1.03079C3.69485 2.16899 4.83418 3.30718 5.97085 4.44538C6.55004 5.02301 7.14663 5.01874 7.72727 4.43257C8.85429 3.29437 9.98106 2.15618 11.1076 1.01798C11.4696 0.652336 11.9308 0.564839 12.3673 0.762601C12.5662 0.850626 12.7331 0.996066 12.8457 1.17957C12.9584 1.36307 13.0114 1.57593 12.9979 1.78982C12.9817 2.05917 12.8637 2.31286 12.6671 2.50119C11.5029 3.67733 10.338 4.853 9.17236 6.02818C8.86877 6.33845 8.50399 6.58464 8.1003 6.75171C7.69661 6.91879 7.26247 7.00324 6.82444 6.99991Z" fill="#C1C4C7"/>
</g>
<defs>
<clipPath id="clip0_46_16455">
<rect width="7" height="12.6004" fill="white" transform="translate(13) rotate(90)"/>
</clipPath>
</defs>
</svg>
