<svg width="25" height="22" viewBox="0 0 25 22" fill="none" xmlns="http://www.w3.org/2000/svg">
<g id="Layer_1" clip-path="url(#clip0_719_35)">
<path id="Vector" d="M0 2.44268C0.116167 2.27366 0.122693 2.06678 0.195787 1.88144C0.445427 1.23902 0.912315 0.704413 1.51528 0.370561C2.11824 0.0367096 2.81914 -0.0752683 3.4961 0.054097C4.88488 0.320367 5.88861 1.57731 5.86055 3.01569C5.83314 4.39794 4.77328 5.60529 3.39951 5.82196C1.87891 6.05887 0.476414 5.12888 0.0894089 3.63372C0.0704829 3.56258 0.0894112 3.46795 0.00195978 3.42162L0 2.44268ZM3.90594 2.93934C3.90751 2.6806 3.80659 2.43177 3.62523 2.24723C3.44387 2.06269 3.19683 1.95745 2.93811 1.95452C2.67937 1.95296 2.43054 2.05389 2.246 2.23525C2.06146 2.41661 1.95623 2.66365 1.9533 2.92237C1.95173 3.1811 2.05266 3.42993 2.23402 3.61447C2.41538 3.79901 2.66242 3.90425 2.92114 3.90718C3.17987 3.90875 3.4287 3.80781 3.61324 3.62645C3.79778 3.4451 3.90301 3.19806 3.90594 2.93934Z" fill="#787878"/>
<path id="Vector_2" d="M0 10.256C0.116167 10.087 0.122693 9.88008 0.195787 9.69473C0.445639 9.05247 0.912566 8.51803 1.51547 8.18421C2.11837 7.85039 2.81916 7.73829 3.4961 7.86739C4.88488 8.13366 5.88861 9.39126 5.86055 10.8296C5.83314 12.2112 4.77328 13.4186 3.39886 13.6359C1.8789 13.8728 0.476414 12.9435 0.0894089 11.4477C0.0704829 11.3765 0.0894112 11.2819 0.00195978 11.2362L0 10.256ZM2.92962 9.76782C2.66999 9.76782 2.421 9.87097 2.23741 10.0546C2.05383 10.2381 1.95069 10.4871 1.95069 10.7468C1.95069 11.0064 2.05383 11.2554 2.23741 11.439C2.421 11.6226 2.66999 11.7257 2.92962 11.7257C3.18925 11.7257 3.43824 11.6226 3.62183 11.439C3.80542 11.2554 3.90856 11.0064 3.90856 10.7468C3.90856 10.6182 3.88323 10.4909 3.83404 10.3721C3.78484 10.2534 3.71273 10.1455 3.62183 10.0546C3.53093 9.96365 3.42301 9.89153 3.30424 9.84234C3.18547 9.79314 3.05818 9.76782 2.92962 9.76782Z" fill="#787878"/>
<path id="Vector_3" d="M0 18.0691C0.116167 17.9001 0.122693 17.6932 0.195787 17.5079C0.445745 16.8657 0.912691 16.3313 1.51556 15.9975C2.11843 15.6637 2.81916 15.5516 3.4961 15.6805C4.88488 15.9468 5.88861 17.2044 5.86055 18.6428C5.83314 20.025 4.77328 21.2317 3.39886 21.4458C1.8789 21.6827 0.476414 20.7534 0.0894089 19.2582C0.0704829 19.1871 0.0894112 19.0918 0.00195978 19.0461L0 18.0691ZM2.91983 19.5343C3.17868 19.5362 3.42775 19.4355 3.61256 19.2542C3.79736 19.073 3.90284 18.8259 3.90594 18.5671C3.90786 18.3083 3.80727 18.0594 3.62616 17.8746C3.44504 17.6898 3.19814 17.5843 2.93941 17.581C2.68068 17.5791 2.4317 17.6797 2.24692 17.8608C2.06213 18.0419 1.95657 18.2888 1.9533 18.5475C1.95121 18.8063 2.05172 19.0555 2.23286 19.2404C2.41399 19.4253 2.661 19.531 2.91983 19.5343Z" fill="#787878"/>
<path id="Vector_4" d="M16.227 15.6276C18.1718 15.6276 20.1173 15.6237 22.0621 15.6276C22.4512 15.6268 22.8366 15.7035 23.1957 15.8531C23.5549 16.0028 23.8807 16.2225 24.154 16.4994C24.4274 16.7763 24.6429 17.1048 24.788 17.4659C24.933 17.8269 25.0047 18.2132 24.9989 18.6023C24.9863 19.3715 24.6716 20.1049 24.1229 20.6441C23.5741 21.1833 22.8354 21.485 22.066 21.4842C19.0712 21.4908 16.0769 21.4842 13.0821 21.4842C12.1867 21.4842 11.2919 21.4842 10.3965 21.4842C8.85306 21.4797 7.62939 20.395 7.43426 18.862C7.25283 17.438 8.22915 16.0721 9.69102 15.704C9.93644 15.6462 10.1881 15.6194 10.4402 15.6244C12.3694 15.6296 14.2983 15.6307 16.227 15.6276ZM16.1866 19.5342H16.9919C18.6678 19.5342 20.3429 19.5342 22.0171 19.5342C22.6371 19.5342 23.0841 19.0715 23.0424 18.4848C23.0052 17.9536 22.5764 17.5822 21.993 17.5822H10.4252C10.3763 17.5822 10.3273 17.5822 10.279 17.5822C10.0873 17.5966 9.90409 17.667 9.75217 17.7848C9.60025 17.9026 9.48638 18.0625 9.42475 18.2446C9.20613 18.8973 9.68254 19.531 10.4004 19.5323C12.33 19.5357 14.2587 19.5364 16.1866 19.5342Z" fill="#787878"/>
<path id="Vector_5" d="M14.2617 13.6744C12.9564 13.6744 11.6577 13.6789 10.3557 13.6744C9.0381 13.6691 7.86925 12.7783 7.5325 11.5344C7.35888 10.9104 7.39696 10.2464 7.6408 9.6463C7.88464 9.04621 8.32048 8.54385 8.88017 8.21778C9.31396 7.95732 9.80996 7.81867 10.3159 7.81642C12.9447 7.81642 15.5728 7.80924 18.2016 7.81642C19.7946 7.8223 21.0927 9.14451 21.0946 10.7369C21.0966 12.3293 19.8044 13.6567 18.214 13.6704C16.8957 13.6822 15.5774 13.6704 14.2591 13.6704L14.2617 13.6744ZM14.2865 9.76776C13.0178 9.76776 11.7489 9.76776 10.4797 9.76776C10.3743 9.76344 10.2686 9.77 10.1645 9.78734C9.92683 9.83473 9.71516 9.96862 9.57049 10.1631C9.42583 10.3575 9.35844 10.5987 9.38138 10.84C9.42967 11.3425 9.848 11.7185 10.3799 11.7191C12.966 11.7217 15.5526 11.7217 18.1396 11.7191C18.2127 11.7203 18.2857 11.714 18.3575 11.7002C18.5951 11.6521 18.8066 11.5179 18.9511 11.3233C19.0957 11.1287 19.1632 10.8876 19.1407 10.6462C19.1171 10.4047 19.004 10.1808 18.8237 10.0183C18.6435 9.85592 18.409 9.76677 18.1663 9.76841C16.8722 9.76449 15.5767 9.76776 14.2832 9.76776H14.2865Z" fill="#787878"/>
<path id="Vector_6" d="M12.304 5.86128C11.669 5.86128 11.0347 5.86128 10.3997 5.86128C8.84709 5.85671 7.60385 4.74856 7.43156 3.21816C7.26971 1.78239 8.24668 0.432119 9.71052 0.0744819C9.93228 0.0225266 10.1595 -0.00224598 10.3873 0.00072734C11.6651 0.00072734 12.943 0.00072734 14.2201 0.00072734C15.8706 0.00464307 17.1843 1.30141 17.187 2.92317C17.1896 4.54494 15.8817 5.85083 14.2325 5.85997C13.591 5.86389 12.9482 5.86128 12.304 5.86128ZM12.2969 3.90798C12.939 3.90798 13.5812 3.90798 14.2241 3.90798C14.7984 3.90798 15.2297 3.48638 15.233 2.93883C15.233 2.38084 14.8016 1.9599 14.2136 1.95663C12.9449 1.95402 11.6764 1.95402 10.4082 1.95663C9.81428 1.95663 9.37833 2.36975 9.37441 2.92513C9.37115 3.49161 9.80971 3.90407 10.4186 3.90864C11.0458 3.90929 11.6723 3.90798 12.2982 3.90798H12.2969Z" fill="#787878"/>
</g>
<defs>
<clipPath id="clip0_719_35">
<rect width="25" height="21.4889" fill="white"/>
</clipPath>
</defs>
</svg>
