<svg width="34" height="34" viewBox="0 0 34 34" fill="none" xmlns="http://www.w3.org/2000/svg">
<g id="Icon" clip-path="url(#clip0_1955_2123)">
<path id="Vector" d="M9.07299 13.3135H9.34667C10.4003 13.3135 11.2624 14.1755 11.2624 15.2292V24.808C11.2624 25.8617 10.4003 26.7238 9.34667 26.7238H9.07299C8.01932 26.7238 7.15723 25.8617 7.15723 24.808V15.2292C7.15723 14.1755 8.01932 13.3135 9.07299 13.3135ZM16.736 7.56616C17.7897 7.56616 18.6518 8.42826 18.6518 9.48193V24.808C18.6518 25.8617 17.7897 26.7238 16.736 26.7238C15.6824 26.7238 14.8203 25.8617 14.8203 24.808V9.48193C14.8203 8.42826 15.6824 7.56616 16.736 7.56616ZM24.3991 18.5134C25.4528 18.5134 26.3149 19.3755 26.3149 20.4291V24.808C26.3149 25.8617 25.4528 26.7238 24.3991 26.7238C23.3454 26.7238 22.4833 25.8617 22.4833 24.808V20.4291C22.4833 19.3755 23.3454 18.5134 24.3991 18.5134Z" fill="#D9A528"/>
</g>
<defs>
<clipPath id="clip0_1955_2123">
<rect width="32.8417" height="32.8417" fill="white" transform="translate(0.31543 0.724121)"/>
</clipPath>
</defs>
</svg>
