<svg width="20" height="20" viewBox="0 0 20 20" fill="none" xmlns="http://www.w3.org/2000/svg">
<g id="Isolation_Mode" clip-path="url(#clip0_54_10062)">
<path id="Vector" d="M13.9062 20.0006C13.7151 19.9009 13.4984 19.9045 13.2948 19.857C10.9201 19.3026 9.16391 17.206 9.06629 14.7988C8.96502 12.2929 10.528 10.0554 12.8923 9.31199C16.1332 8.29345 19.4748 10.4313 19.9572 13.8314C19.9629 13.8706 19.9358 13.9264 20 13.9458V15.1173C19.9399 15.1392 19.9634 15.1935 19.9566 15.2337C19.5489 17.5986 18.2005 19.1334 15.9009 19.8226C15.6211 19.9066 15.3266 19.9421 15.039 20.0006H13.9062ZM10.6251 14.531C10.6275 15.5671 11.0404 16.56 11.7734 17.2922C12.5064 18.0245 13.4997 18.4363 14.5357 18.4375C15.5684 18.4338 16.5577 18.0223 17.2884 17.2926C18.0191 16.5629 18.4319 15.5741 18.437 14.5414C18.4379 13.5052 18.0278 12.511 17.2964 11.7769C16.5651 11.0428 15.5724 10.6289 14.5363 10.626C13.5001 10.6261 12.5063 11.0374 11.773 11.7695C11.0398 12.5016 10.6269 13.4948 10.6251 14.531Z" fill="#C1C4C7"/>
<path id="Vector_2" d="M9.84345 7.81303C7.14867 7.81303 4.45353 7.81164 1.75805 7.80886C1.59622 7.80886 1.55811 7.84644 1.55863 8.0088C1.56489 10.2677 1.56176 12.5267 1.5628 14.7856C1.5628 16.1618 2.59071 17.1871 3.96995 17.1871C5.20719 17.1871 6.44391 17.1871 7.68063 17.1871C7.84783 17.1863 8.0109 17.239 8.14598 17.3375C8.28106 17.4361 8.38106 17.5753 8.43133 17.7347C8.47908 17.8915 8.47646 18.0593 8.42382 18.2145C8.37119 18.3696 8.2712 18.5044 8.13794 18.5998C8.00666 18.698 7.84717 18.7511 7.68324 18.7512C6.375 18.7512 5.06624 18.7674 3.758 18.7449C1.88177 18.7136 0.249344 17.2012 0.0337398 15.3322C0.011496 15.1383 0.000688643 14.9432 0.00137337 14.748C0.00137337 11.6884 0.00137337 8.62866 0.00137337 5.56871C0.00137337 3.57132 1.27829 2.01298 3.2323 1.62301C3.63793 1.54209 4.04982 1.55148 4.45806 1.5708C4.66687 1.57968 4.70916 1.51128 4.69245 1.32491C4.6814 1.14307 4.68053 0.960768 4.68984 0.778837C4.69018 0.676127 4.71082 0.574497 4.75057 0.479789C4.79031 0.385081 4.84839 0.299165 4.92145 0.226975C4.99451 0.154786 5.08111 0.0977479 5.17629 0.059142C5.27147 0.020536 5.37334 0.00112161 5.47604 0.0020165C5.68013 0.00323528 5.87558 0.0845678 6.02029 0.228498C6.165 0.372429 6.24739 0.56744 6.24971 0.771528C6.25545 0.986615 6.25806 1.2017 6.24971 1.41627C6.24397 1.53477 6.27372 1.57289 6.39745 1.56766C6.76862 1.55827 7.13979 1.56454 7.51097 1.56454C9.11207 1.56454 10.7137 1.56453 12.3138 1.56766C12.4631 1.56766 12.5158 1.53634 12.5043 1.37973C12.4892 1.17926 12.497 0.976177 12.5017 0.774663C12.5035 0.570562 12.5852 0.375297 12.7294 0.230824C12.8736 0.0863512 13.0687 0.00419623 13.2728 0.0020165C13.3755 0.00070662 13.4774 0.0197133 13.5727 0.0579375C13.6681 0.0961617 13.7549 0.152852 13.8283 0.224751C13.9016 0.29665 13.96 0.382337 14.0002 0.476889C14.0403 0.571442 14.0613 0.672996 14.0621 0.775708C14.0673 0.990274 14.072 1.20588 14.0621 1.41992C14.0548 1.54678 14.0986 1.56871 14.2145 1.56714C14.7413 1.56088 15.268 1.54678 15.7864 1.67782C16.6285 1.8887 17.3767 2.37351 17.9133 3.056C18.4499 3.73849 18.7444 4.57997 18.7506 5.44812C18.7547 5.95608 18.7506 6.46404 18.7506 6.97148C18.7506 7.48831 18.4258 7.81251 17.9101 7.81251C15.2212 7.81355 12.5323 7.81373 9.84345 7.81303ZM9.37048 6.25052H12.9637C14.3111 6.25052 15.6585 6.25052 17.0064 6.25052C17.1406 6.25052 17.2053 6.23642 17.1917 6.07667C17.1745 5.86785 17.1917 5.65902 17.1876 5.4502C17.1821 4.97577 17.0338 4.51399 16.7621 4.12503C16.4904 3.73607 16.1078 3.43797 15.6642 3.26957C15.1678 3.07693 14.6525 3.1307 14.1409 3.11974C14.0433 3.11974 14.0631 3.18343 14.0631 3.23825C14.0631 3.46586 14.0678 3.694 14.0631 3.92162C14.0583 4.12579 13.9736 4.31993 13.8272 4.46227C13.6807 4.60461 13.4843 4.68379 13.2801 4.68278C13.076 4.68226 12.8804 4.60177 12.735 4.45858C12.5897 4.31539 12.5063 4.12092 12.5027 3.91692C12.497 3.72167 12.4907 3.52538 12.5027 3.33117C12.5142 3.1709 12.4819 3.11452 12.2991 3.11556C10.346 3.12392 8.39304 3.12392 6.44025 3.11556C6.29826 3.11556 6.23144 3.1354 6.24553 3.29985C6.25693 3.49491 6.25815 3.69042 6.24919 3.8856C6.24188 4.34135 5.90098 4.68434 5.4609 4.68069C5.03074 4.67704 4.69506 4.33561 4.68776 3.8903C4.68462 3.66894 4.68358 3.44759 4.68776 3.22676C4.69037 3.14115 4.66479 3.11452 4.57865 3.11661C4.34425 3.12235 4.10881 3.11661 3.87546 3.11661C3.40458 3.1253 2.94703 3.27446 2.56149 3.54495C2.17596 3.81544 1.88 4.19492 1.71159 4.63475C1.54088 5.08059 1.57011 5.54104 1.55497 6.00202C1.54975 6.18683 1.58316 6.24791 1.78989 6.24686C4.31867 6.24738 6.84432 6.25052 9.37048 6.25052Z" fill="#C1C4C7"/>
<path id="Vector_3" d="M4.68685 10.153C4.68686 10.3597 4.60514 10.558 4.45953 10.7047C4.31392 10.8514 4.11621 10.9346 3.90953 10.9361C3.70275 10.9361 3.50436 10.8543 3.35766 10.7086C3.21095 10.5628 3.12784 10.365 3.12646 10.1582C3.12646 9.95142 3.20824 9.75303 3.35397 9.60632C3.4997 9.45961 3.69753 9.3765 3.90431 9.37512C4.111 9.37526 4.30925 9.4571 4.45584 9.60281C4.60244 9.74853 4.68547 9.9463 4.68685 10.153Z" fill="#C1C4C7"/>
<path id="Vector_4" d="M7.81186 10.1546C7.81187 10.3616 7.72987 10.5603 7.5838 10.707C7.43774 10.8538 7.2395 10.9367 7.03245 10.9377C6.82531 10.9377 6.62661 10.8556 6.47985 10.7094C6.33308 10.5632 6.25022 10.3649 6.24939 10.1577C6.24939 9.95066 6.33139 9.75204 6.47745 9.60528C6.62351 9.45853 6.82175 9.3756 7.0288 9.37463C7.23594 9.37463 7.43464 9.45671 7.58141 9.60289C7.72817 9.74907 7.81104 9.94744 7.81186 10.1546Z" fill="#C1C4C7"/>
<path id="Vector_5" d="M4.68694 13.2769C4.68695 13.4835 4.60531 13.6818 4.45981 13.8285C4.3143 13.9751 4.11673 14.0584 3.91014 14.06C3.70354 14.06 3.50531 13.9784 3.35863 13.8329C3.21196 13.6874 3.12873 13.4898 3.12708 13.2832C3.12707 13.0766 3.20871 12.8784 3.35421 12.7317C3.49971 12.585 3.69728 12.5018 3.90387 12.5001C4.11048 12.5001 4.30871 12.5818 4.45538 12.7273C4.60206 12.8728 4.68529 13.0703 4.68694 13.2769Z" fill="#C1C4C7"/>
<path id="Vector_6" d="M7.81185 13.2884C7.80951 13.4955 7.72526 13.6932 7.57753 13.8383C7.4298 13.9834 7.23062 14.064 7.02357 14.0627C6.81652 14.0602 6.61888 13.9758 6.47389 13.828C6.32891 13.6801 6.24837 13.4809 6.2499 13.2738C6.25238 13.0668 6.33676 12.8691 6.48459 12.7241C6.63242 12.5791 6.83165 12.4986 7.03871 12.5001C7.24557 12.5028 7.443 12.5871 7.58786 12.7348C7.73272 12.8825 7.81325 13.0816 7.81185 13.2884Z" fill="#C1C4C7"/>
<path id="Vector_7" d="M15.3048 15.3125C15.0511 15.3125 14.7973 15.3156 14.5436 15.3125C14.0894 15.3062 13.7559 14.9763 13.7517 14.5237C13.7472 14.01 13.7472 13.4961 13.7517 12.982C13.7553 12.5278 14.0994 12.1849 14.5389 12.1885C14.9701 12.1922 15.3042 12.5315 15.3121 12.9773C15.3157 13.1919 15.3173 13.407 15.3121 13.6215C15.3089 13.7197 15.3324 13.7578 15.4389 13.7531C15.6535 13.7448 15.868 13.7484 16.0826 13.7531C16.5373 13.7594 16.8798 14.1013 16.8761 14.5414C16.8719 14.9721 16.5316 15.3073 16.0863 15.3141C15.8268 15.3161 15.5658 15.3125 15.3048 15.3125Z" fill="#C1C4C7"/>
</g>
<defs>
<clipPath id="clip0_54_10062">
<rect width="20" height="20" fill="white"/>
</clipPath>
</defs>
</svg>
