<svg width="25" height="26" viewBox="0 0 25 26" fill="none" xmlns="http://www.w3.org/2000/svg">
<g id="Layer_1" clip-path="url(#clip0_719_28)">
<path id="Vector" d="M24.9999 8.12924C24.9118 8.16513 24.9346 8.25453 24.9196 8.31716C24.8272 8.73131 24.6433 9.11952 24.3814 9.45336C24.1195 9.7872 23.7862 10.0582 23.4059 10.2465C21.6573 11.1543 19.9063 12.0578 18.1529 12.9569C17.028 13.5363 15.9064 14.1215 14.7777 14.6911C13.2496 15.4623 11.715 15.4545 10.1941 14.6748C7.33711 13.2102 4.48256 11.7398 1.6304 10.2635C0.586452 9.72453 0.0259814 8.85088 0.012932 7.67774C-0.000117335 6.5046 0.526425 5.60028 1.56777 5.05678C4.49409 3.5313 7.42367 2.01169 10.3709 0.527327C11.7933 -0.190389 13.2646 -0.16885 14.6876 0.551476C17.3131 1.88056 19.9243 3.23964 22.5414 4.58699C22.8369 4.73901 23.1332 4.89038 23.4261 5.04372C24.2522 5.48348 24.7526 6.16728 24.9477 7.07943C24.9562 7.12184 24.9314 7.18121 24.9999 7.19882V8.12924ZM12.5064 1.97711C11.957 1.97711 11.4625 2.14742 10.9744 2.39862C8.18793 3.84101 5.39863 5.27795 2.6065 6.70947C2.33572 6.84845 2.11323 7.02266 2.01144 7.31888C1.84441 7.80497 2.04864 8.27931 2.54582 8.53573C5.38493 10.0012 8.22404 11.4655 11.0631 12.9288C12.0236 13.4253 12.9742 13.4286 13.934 12.9347C16.7666 11.4749 19.5994 10.0162 22.4324 8.55857C22.8095 8.36283 23.0451 8.07574 23.0451 7.63989C23.0451 7.20404 22.8082 6.91697 22.4305 6.72253C19.5957 5.26579 16.7622 3.80621 13.9301 2.34381C13.4921 2.10836 13.0036 1.98254 12.5064 1.97711Z" fill="#787878"/>
<path id="Vector_2" d="M11.8673 25.0217C11.7492 24.9225 11.5978 24.9441 11.4615 24.9115C10.9881 24.7967 10.5315 24.6213 10.103 24.3895C6.93769 22.6891 3.77169 20.9908 0.605045 19.2944C0.13853 19.0438 -0.0800478 18.619 0.0282621 18.176C0.18616 17.5268 0.85755 17.2247 1.46369 17.5431C2.31843 17.992 3.16664 18.452 4.0168 18.9081C6.38266 20.1772 8.7446 21.4527 11.115 22.7133C12.0507 23.2105 13.002 23.1903 13.9369 22.6898C16.432 21.3536 18.9262 20.0158 21.4195 18.6765C22.0628 18.3313 22.7244 18.0175 23.3442 17.6325C23.9432 17.2626 24.6883 17.3272 25.0002 18.1832V18.623C24.88 18.9153 24.6624 19.1571 24.3843 19.3074C21.2146 20.9999 18.0471 22.6963 14.8817 24.3967C14.3955 24.6592 13.8717 24.8451 13.3288 24.948C13.2329 24.9663 13.1174 24.9193 13.0391 25.0132L11.8673 25.0217Z" fill="#787878"/>
<path id="Vector_3" d="M24.9999 13.7435C24.8492 14.1415 24.5288 14.3496 24.1693 14.5421C21.0997 16.1798 18.0331 17.8238 14.9695 19.4741C13.324 20.3602 11.6876 20.3622 10.0408 19.4741C6.89151 17.7777 3.73987 16.0867 0.585831 14.4012C0.159769 14.1722 -0.0522839 13.7872 0.0110056 13.367C0.0427092 13.1606 0.138833 12.9694 0.285653 12.8208C0.432472 12.6722 0.622481 12.5739 0.82855 12.5397C1.07323 12.4947 1.29441 12.5645 1.50712 12.6787L8.2817 16.3162C9.21082 16.8147 10.1404 17.3125 11.0704 17.8097C12.0249 18.3193 12.9827 18.3186 13.9353 17.8097C16.0811 16.6627 18.2258 15.5132 20.3693 14.3614C21.3631 13.829 22.3718 13.3227 23.3433 12.7524C23.9494 12.3962 24.688 12.4484 24.9999 13.3044V13.7435Z" fill="#787878"/>
</g>
<defs>
<clipPath id="clip0_719_28">
<rect width="25" height="25.0209" fill="white"/>
</clipPath>
</defs>
</svg>
