<svg width="25" height="25" viewBox="0 0 25 25" fill="none" xmlns="http://www.w3.org/2000/svg">
<g id="Layer_1" clip-path="url(#clip0_719_433)">
<path id="Vector" d="M0 19.6269C0.115487 19.4664 0.119405 19.2674 0.186609 19.0893C0.612671 17.9657 1.68729 17.1893 2.88457 17.188C9.29268 17.1832 15.7006 17.1832 22.1083 17.188C23.8575 17.188 25.1749 18.7356 24.9791 20.5234C24.7351 22.7999 23.1842 24.4884 20.939 24.9289C20.8431 24.9471 20.7283 24.8995 20.6493 24.9941H4.24758C4.19146 24.9008 4.08837 24.9321 4.00942 24.9152C1.94893 24.4584 0.658995 23.209 0.115488 21.1765C0.0769926 21.0336 0.0998277 20.8738 0 20.7472V19.6269ZM12.5046 19.1382H3.01311C2.34432 19.1382 1.93783 19.5584 1.95415 20.2278C1.99068 21.735 3.28584 23.0334 4.80544 23.038C9.92906 23.0484 15.0531 23.0484 20.1776 23.038C21.6659 23.038 22.9278 21.8231 23.0374 20.3381C23.0941 19.5734 22.6896 19.1375 21.9236 19.1369L12.5046 19.1382Z" fill="#787878"/>
<path id="Vector_2" d="M12.4942 0.000671387C14.4142 0.000671387 16.3342 0.000671387 18.2542 0.000671387C20.7381 0.000671387 22.6994 1.6214 23.1673 4.05902C23.216 4.31472 23.24 4.57451 23.239 4.8348C23.239 8.08932 23.239 11.3436 23.239 14.5977C23.239 15.1412 22.888 15.5529 22.383 15.6175C22.1423 15.647 21.8993 15.5855 21.7017 15.4451C21.504 15.3047 21.3658 15.0956 21.3143 14.8587C21.2921 14.7389 21.2834 14.617 21.2882 14.4953C21.2882 11.3308 21.2882 8.16609 21.2882 5.00119C21.2882 3.22582 20.0211 1.95416 18.2522 1.95351C14.4205 1.95351 10.5885 1.95351 6.75637 1.95351C4.98296 1.95351 3.7126 3.22255 3.7126 4.99335C3.7126 8.18262 3.7126 11.3717 3.7126 14.5605C3.7126 15.1804 3.31199 15.6175 2.74629 15.6227C2.49566 15.6254 2.25354 15.5318 2.06987 15.3612C1.8862 15.1907 1.77497 14.9562 1.75911 14.706C1.75911 14.6897 1.75911 14.6734 1.75911 14.6571C1.75911 11.3295 1.73627 8.00189 1.76955 4.6743C1.79304 2.34498 3.70738 0.308629 6.02952 0.0417693C6.27191 0.014293 6.51569 0.000778709 6.75963 0.00130856L12.4942 0.000671387Z" fill="#787878"/>
<path id="Vector_3" d="M12.508 3.9063C13.1344 3.9063 13.7608 3.9063 14.3871 3.9063C15.0135 3.9063 15.4311 4.31345 15.4252 4.94243C15.4148 5.72213 15.4748 6.50378 15.388 7.28218C15.359 7.57402 15.2701 7.85676 15.1271 8.11277C15.0344 8.27393 15.0775 8.31961 15.2249 8.38355C16.5113 8.93741 17.5936 9.8778 18.3215 11.0743C18.9783 12.1285 19.3287 13.3446 19.3335 14.5866C19.3394 15.179 18.9244 15.6181 18.3672 15.6227C17.81 15.6273 17.3944 15.1986 17.3813 14.6048C17.322 11.8064 15.0794 9.68001 12.281 9.76809C9.96145 9.84117 7.91335 11.7255 7.6628 14.0196C7.64062 14.2212 7.62562 14.4248 7.61909 14.627C7.60017 15.2018 7.18324 15.626 6.63386 15.6227C6.5031 15.6235 6.37355 15.5976 6.25315 15.5466C6.13274 15.4955 6.02402 15.4205 5.93362 15.326C5.84322 15.2315 5.77306 15.1196 5.72742 14.997C5.68178 14.8745 5.66163 14.7439 5.66821 14.6133C5.77325 11.7307 7.14083 9.66434 9.72983 8.40769C9.921 8.31504 9.95689 8.26219 9.8551 8.07232C9.6608 7.69495 9.56306 7.2753 9.57063 6.8509C9.57063 6.20822 9.57063 5.56554 9.57063 4.92285C9.57389 4.32324 9.98364 3.91022 10.5806 3.90696C11.2227 3.90304 11.8686 3.9063 12.508 3.9063ZM12.5224 5.85914C12.2379 5.85914 11.9528 5.86436 11.669 5.85914C11.5515 5.85914 11.5163 5.89046 11.5196 6.0079C11.528 6.30021 11.5137 6.59512 11.5254 6.88612C11.5369 7.13642 11.6445 7.37264 11.8259 7.54551C12.0072 7.71837 12.2483 7.81455 12.4989 7.81395C12.7495 7.81404 12.9904 7.71751 13.1716 7.54445C13.3528 7.3714 13.4603 7.13512 13.4717 6.88482C13.4835 6.59251 13.4717 6.2976 13.4776 6.00725C13.4815 5.8872 13.4424 5.85588 13.3269 5.85914C13.0587 5.86436 12.7906 5.85914 12.5211 5.85914H12.5224Z" fill="#787878"/>
<path id="Vector_4" d="M12.4733 15.6234C11.8469 15.6234 11.2212 15.6234 10.5949 15.6234C10.0031 15.6234 9.56917 15.2045 9.56982 14.6446C9.57048 14.0848 10.0037 13.6705 10.5962 13.6699C11.8646 13.6673 13.133 13.6673 14.4014 13.6699C14.9938 13.6699 15.427 14.0874 15.427 14.6486C15.427 15.2097 14.9931 15.6214 14.4001 15.6273C13.7606 15.6253 13.1153 15.6234 12.4733 15.6234Z" fill="#787878"/>
</g>
<defs>
<clipPath id="clip0_719_433">
<rect width="25" height="24.9967" fill="white"/>
</clipPath>
</defs>
</svg>
