<svg width="7" height="5" viewBox="0 0 7 5" fill="none" xmlns="http://www.w3.org/2000/svg">
<g id="Isolation_Mode" clip-path="url(#clip0_46_16458)">
<path id="Vector" d="M2.84397 4.37472C2.29722 4.36057 1.82754 4.1705 1.44333 3.78069C1.02638 3.35794 0.615311 2.92863 0.205917 2.49794C-0.0646057 2.21369 -0.0669567 1.81647 0.19114 1.55016C0.449236 1.28385 0.84973 1.29144 1.12647 1.57482C1.51873 1.97636 1.9068 2.38221 2.29789 2.78478C2.63995 3.13682 3.04682 3.13958 3.38938 2.78737C4.22071 1.93082 5.05086 1.07307 5.87984 0.214114C6.06573 0.021969 6.28705 -0.0475411 6.54246 0.031973C6.79165 0.10959 6.94043 0.288971 6.98896 0.547521C7.03564 0.795895 6.94178 0.998733 6.7715 1.1738C6.10317 1.86177 5.43591 2.55095 4.7697 3.24134C4.59523 3.42141 4.42261 3.60355 4.24562 3.78086C3.85352 4.17326 3.38032 4.36351 2.84397 4.37472Z" fill="white"/>
</g>
<defs>
<clipPath id="clip0_46_16458">
<rect width="7" height="4.375" fill="white"/>
</clipPath>
</defs>
</svg>
