<svg width="25" height="24" viewBox="0 0 25 24" fill="none" xmlns="http://www.w3.org/2000/svg">
<g id="Layer_1" clip-path="url(#clip0_719_393)">
<path id="Vector" d="M0 18.6161V8.41469C0.0906766 8.31097 0.0756707 8.17723 0.0958935 8.0559C0.517311 5.51173 2.84424 3.40464 5.42559 3.29374C6.66505 3.24025 7.91366 3.27352 9.15769 3.2683C9.55889 3.2683 9.55888 3.2683 9.56801 2.86646C9.60911 1.05749 11.3039 -0.298747 13.0783 0.0574358C14.4443 0.332075 15.4052 1.50826 15.4268 2.92777C15.4313 3.267 15.4313 3.267 15.7771 3.267C16.8991 3.267 18.0218 3.26047 19.1445 3.267C22.3926 3.28852 24.9785 5.86596 24.9915 9.11075C25.0033 12.0796 25.0111 15.0471 24.9856 18.0166C24.9719 19.6645 24.3229 21.0637 23.1206 22.1917C21.9424 23.2948 20.5262 23.7749 18.9208 23.7723C14.6837 23.7638 10.4461 23.7723 6.20841 23.7684C5.98922 23.7684 5.76939 23.7632 5.5502 23.7521C4.27026 23.685 3.04762 23.2 2.06965 22.3716C1.09168 21.5432 0.412336 20.4169 0.135694 19.1654C0.0952482 18.9821 0.114814 18.7825 0 18.6161ZM12.4918 21.8166C14.6307 21.8166 16.7697 21.8166 18.909 21.8166C19.1855 21.8228 19.462 21.8053 19.7355 21.7644C21.7252 21.4115 23.0377 19.8367 23.039 17.8124C23.039 14.9491 23.039 12.0859 23.039 9.22295C23.0384 8.99543 23.0233 8.76818 22.994 8.54255C22.7755 6.8223 21.2249 5.32386 19.4942 5.24949C18.1706 5.19273 16.8437 5.23057 15.5181 5.21883C15.3537 5.21883 15.3609 5.32647 15.3374 5.4204C14.9969 6.75185 13.8527 7.6534 12.4984 7.65601C11.843 7.65857 11.206 7.43978 10.6904 7.03509C10.1749 6.6304 9.81115 6.06352 9.65804 5.42628C9.62151 5.28015 9.57453 5.21622 9.40623 5.21752C8.21047 5.22666 7.01471 5.21296 5.8183 5.2247C4.79433 5.23036 3.81398 5.63996 3.09033 6.36446C2.36669 7.08896 1.95824 8.0698 1.95378 9.09379C1.94465 12.0463 1.94987 14.9989 1.95378 17.9514C1.94792 18.5144 2.07676 19.0707 2.32954 19.5738C3.09801 21.0807 4.344 21.8146 6.02576 21.8179C8.18113 21.8205 10.3365 21.82 12.4918 21.8166ZM13.4704 3.83389C13.4704 3.54098 13.4704 3.24678 13.4704 2.95583C13.4638 2.38241 13.0463 1.95186 12.499 1.95056C12.2398 1.95396 11.9922 2.05877 11.8093 2.24253C11.6263 2.42629 11.5227 2.67438 11.5205 2.93365C11.5101 3.53511 11.512 4.13723 11.5205 4.7387C11.5271 4.99273 11.6326 5.23415 11.8146 5.4115C11.9966 5.58884 12.2407 5.6881 12.4948 5.6881C12.7489 5.6881 12.993 5.58884 13.175 5.4115C13.357 5.23415 13.4625 4.99273 13.4691 4.7387C13.4769 4.43536 13.4717 4.13462 13.4717 3.83585L13.4704 3.83389Z" fill="#787878"/>
<path id="Vector_2" d="M8.54037 8.00232C9.1187 8.00258 9.68399 8.17423 10.1648 8.49559C10.6457 8.81695 11.0204 9.2736 11.2419 9.80786C11.4633 10.3421 11.5215 10.93 11.409 11.4973C11.2964 12.0646 11.0183 12.5858 10.6097 12.9951C10.2012 13.4044 9.68045 13.6835 9.11337 13.797C8.54629 13.9105 7.95829 13.8534 7.42363 13.6329C6.88898 13.4124 6.43165 13.0385 6.10944 12.5582C5.78722 12.0779 5.61457 11.513 5.61328 10.9346C5.61311 10.1578 5.92127 9.41263 6.4701 8.86283C7.01892 8.31302 7.76352 8.00353 8.54037 8.00232ZM9.51889 10.9379C9.52198 10.7442 9.4675 10.5539 9.36233 10.3912C9.25717 10.2284 9.10607 10.1006 8.92818 10.0238C8.75028 9.94708 8.55359 9.92486 8.36306 9.95999C8.17252 9.99512 7.9967 10.086 7.85788 10.2212C7.71906 10.3563 7.62349 10.5297 7.58328 10.7192C7.54307 10.9087 7.56002 11.1059 7.632 11.2858C7.70397 11.4657 7.82773 11.6202 7.98759 11.7296C8.14744 11.8391 8.3362 11.8987 8.52993 11.9008C8.65798 11.9025 8.78512 11.879 8.90406 11.8315C9.02301 11.7841 9.13144 11.7137 9.22317 11.6243C9.31489 11.535 9.3881 11.4284 9.43862 11.3107C9.48914 11.1931 9.51597 11.0666 9.51758 10.9385L9.51889 10.9379Z" fill="#787878"/>
<path id="Vector_3" d="M8.54433 14.7875C10.0584 14.7379 11.2842 15.295 12.1831 16.5279C12.675 17.2032 12.9379 18.0182 12.9333 18.8536C12.9373 19.4237 12.5126 19.8556 11.962 19.8575C11.4114 19.8595 11.0044 19.4465 10.9835 18.8849C10.9332 17.6226 10.0356 16.7504 8.772 16.7412C8.44583 16.7412 8.11966 16.7145 7.79936 16.7876C6.80061 17.0165 6.14108 17.8268 6.10325 18.866C6.08237 19.4452 5.66682 19.8627 5.11754 19.8575C4.55782 19.8516 4.14684 19.4139 4.1514 18.8235C4.15569 18.3432 4.24766 17.8677 4.42279 17.4203C4.71667 16.6527 5.23464 15.9912 5.90939 15.5218C6.58414 15.0524 7.38449 14.7967 8.20642 14.7881C8.31667 14.7862 8.43083 14.7875 8.54433 14.7875Z" fill="#787878"/>
<path id="Vector_4" d="M17.2787 8.92937C18.2383 8.92937 19.1972 8.92415 20.1568 8.92937C20.3909 8.9265 20.618 9.00851 20.7962 9.16023C20.9745 9.31195 21.0917 9.5231 21.1262 9.75459C21.1595 9.98181 21.1118 10.2135 20.9914 10.4091C20.8711 10.6047 20.6858 10.7517 20.468 10.8244C20.3276 10.8662 20.1813 10.885 20.0349 10.8799C18.1978 10.8799 16.3606 10.8799 14.5231 10.8799C14.3605 10.887 14.1979 10.8628 14.0443 10.8088C13.842 10.7299 13.6717 10.5859 13.5602 10.3995C13.4487 10.2131 13.4024 9.99498 13.4285 9.77938C13.4553 9.55975 13.5571 9.35608 13.7165 9.20268C13.876 9.04927 14.0834 8.95552 14.304 8.9372C14.5545 8.91828 14.8076 8.92807 15.0594 8.92807C15.7991 8.92807 16.5389 8.9285 17.2787 8.92937Z" fill="#787878"/>
<path id="Vector_5" d="M17.2773 12.8833C18.2369 12.8833 19.1959 12.8781 20.1555 12.8833C20.3895 12.8803 20.6167 12.9621 20.7951 13.1136C20.9735 13.265 21.0911 13.4759 21.1262 13.7072C21.1603 13.9349 21.1129 14.1674 20.9926 14.3637C20.8722 14.56 20.6864 14.7075 20.468 14.7803C20.3277 14.8228 20.1813 14.8415 20.0348 14.8358C18.1978 14.8358 16.3606 14.8358 14.5231 14.8358C14.3851 14.8391 14.2472 14.8236 14.1134 14.7895C13.898 14.7236 13.7118 14.5854 13.5864 14.3982C13.461 14.2111 13.4041 13.9863 13.4252 13.762C13.4464 13.5377 13.5457 13.3279 13.7059 13.1693C13.866 13.0107 14.0767 12.9134 14.3013 12.8944C14.5355 12.8755 14.7723 12.8853 15.0085 12.8853C15.7647 12.8831 16.521 12.8824 17.2773 12.8833Z" fill="#787878"/>
<path id="Vector_6" d="M18.4993 16.7901C19.0682 16.7901 19.6377 16.7784 20.2059 16.794C20.4359 16.8012 20.6558 16.8908 20.8253 17.0465C20.9948 17.2021 21.1028 17.4135 21.1296 17.6421C21.1562 17.8656 21.105 18.0915 20.9845 18.2816C20.864 18.4717 20.6816 18.6145 20.4681 18.6858C20.3359 18.7264 20.198 18.7449 20.0598 18.7406C19.0193 18.7406 17.9794 18.7459 16.9389 18.7406C16.3394 18.7374 15.918 18.3832 15.8671 17.86C15.8117 17.2846 16.2429 16.8032 16.8417 16.7914C17.3943 16.781 17.9468 16.7914 18.4993 16.7914V16.7901Z" fill="#787878"/>
</g>
<defs>
<clipPath id="clip0_719_393">
<rect width="25" height="23.7723" fill="white"/>
</clipPath>
</defs>
</svg>
