<svg width="26" height="27" viewBox="0 0 26 27" fill="none" xmlns="http://www.w3.org/2000/svg">
<g id="Isolation_Mode" clip-path="url(#clip0_56_10073)">
<path id="Vector" d="M12.0865 0H12.7468C12.8258 0.0388627 12.9126 0.0590759 13.0006 0.0590759C13.0886 0.0590759 13.1754 0.0388627 13.2544 0H13.762C13.7851 0.0678656 13.8435 0.0447963 13.8896 0.0475109C14.9106 0.111607 15.921 0.292399 16.9008 0.58636C22.1862 2.13166 26.4584 7.61181 25.9616 13.8161C25.7044 17.0248 24.4889 19.81 22.2683 22.133C20.2405 24.2545 17.7539 25.5025 14.8472 25.9104C14.5025 25.9586 14.1489 25.941 13.8129 26.0509H13.4573C13.1407 25.9702 12.8089 25.9702 12.4923 26.0509H12.0851C12.0484 25.962 11.9684 26.0034 11.9086 25.998C10.7339 25.8921 9.57814 25.6817 8.48075 25.2433C3.73016 23.3431 1.03318 19.7957 0.141422 14.8001C0.0905224 14.5144 0.11563 14.2158 -0.00109863 13.9416V11.8039C0.0810188 11.7774 0.0477645 11.7055 0.0538724 11.6539C0.135524 10.8879 0.280344 10.13 0.486855 9.38786C1.70233 5.11232 5.59239 0.688163 11.5564 0.0902666C11.7363 0.0726215 11.9249 0.111978 12.0865 0ZM12.9891 23.9477C18.9354 23.8982 23.8028 19.7509 23.9466 12.9908C24.0742 6.98677 19.0705 2.05497 13.0203 2.02783C6.99653 2 1.94801 6.94334 2.05184 12.9691C2.16721 19.6261 6.94562 23.8785 12.9891 23.9477Z" fill="#787878"/>
<path id="Vector_2" d="M12.4921 26.0509C12.8087 25.9702 13.1405 25.9702 13.4571 26.0509H12.4921Z" fill="#787878"/>
<path id="Vector_3" d="M13.2542 0C13.1752 0.0388627 13.0884 0.0590759 13.0004 0.0590759C12.9124 0.0590759 12.8255 0.0388627 12.7466 0H13.2542Z" fill="#787878"/>
<path id="Vector_4" d="M7.10549 6.09299C7.44482 6.08756 7.6966 6.25723 7.9253 6.48729C9.54593 8.11245 11.1659 9.73851 12.7852 11.3655C12.9494 11.5311 13.0288 11.5569 13.2086 11.375C14.8333 9.72991 16.4653 8.09186 18.1045 6.46082C18.6189 5.94708 19.3125 5.97422 19.7081 6.51647C19.8389 6.6853 19.9102 6.89264 19.911 7.10621C19.9117 7.31978 19.8418 7.5276 19.7122 7.69733C19.6353 7.79849 19.5504 7.89335 19.4584 7.98101C17.85 9.59486 16.2397 11.2067 14.6277 12.8164C14.4804 12.963 14.4485 13.035 14.6182 13.2033C16.266 14.8375 17.9009 16.4846 19.5419 18.1256C19.8391 18.4228 19.9823 18.7628 19.8656 19.1829C19.8222 19.3471 19.738 19.4977 19.6208 19.6205C19.5036 19.7434 19.3572 19.8347 19.1952 19.8857C19.0332 19.9368 18.861 19.9461 18.6945 19.9126C18.528 19.8792 18.3726 19.8042 18.2429 19.6946C18.1649 19.6268 18.0943 19.5589 18.0224 19.4842C16.4126 17.8717 14.8044 16.2579 13.1978 14.6427C13.0471 14.4914 12.9731 14.4696 12.8096 14.6359C11.1808 16.2796 9.54593 17.9125 7.91444 19.5507C7.64298 19.8222 7.33488 19.9871 6.93854 19.9145C6.75699 19.888 6.58664 19.8107 6.4472 19.6914C6.30777 19.5721 6.20494 19.4158 6.15062 19.2406C6.08278 19.0648 6.06875 18.8728 6.11032 18.689C6.15189 18.5052 6.24718 18.3379 6.38408 18.2084C6.89171 17.6865 7.41088 17.1748 7.9253 16.659C9.07359 15.5053 10.2198 14.3516 11.3749 13.2101C11.5269 13.0594 11.5473 12.9854 11.3824 12.8212C9.74139 11.1924 8.10651 9.5573 6.47773 7.91586C6.02778 7.46387 5.96535 6.9481 6.29993 6.50426C6.39343 6.37826 6.51478 6.27558 6.65452 6.20424C6.79426 6.1329 6.9486 6.09482 7.10549 6.09299Z" fill="#787878"/>
</g>
<defs>
<clipPath id="clip0_56_10073">
<rect width="26" height="26.0502" fill="white"/>
</clipPath>
</defs>
</svg>
