<svg width="133" height="96" viewBox="0 0 133 96" fill="none" xmlns="http://www.w3.org/2000/svg">
<g id="Group 109">
<g id="Bar 7">
<rect id="Rectangle 17" x="121.669" y="95.4734" width="95.4734" height="11.1727" rx="5.58636" transform="rotate(-90 121.669 95.4734)" fill="#E9EDF7"/>
<rect id="Rectangle 18" x="121.669" y="95.4734" width="22.7667" height="11.1727" rx="5.58636" transform="rotate(-90 121.669 95.4734)" fill="#D9A528"/>
</g>
<g id="Bar 6">
<rect id="Rectangle 17_2" x="91.2502" y="95.4734" width="95.4734" height="11.1726" rx="5.58631" transform="rotate(-90 91.2502 95.4734)" fill="#E9EDF7"/>
<rect id="Rectangle 18_2" x="91.2502" y="95.4734" width="86.6604" height="11.1727" rx="5.58637" transform="rotate(-90 91.2502 95.4734)" fill="#D9A528"/>
</g>
<g id="Bar 5">
<rect id="Rectangle 17_3" x="60.8337" y="95.4734" width="95.4734" height="11.1727" rx="5.58637" transform="rotate(-90 60.8337 95.4734)" fill="#E9EDF7"/>
<rect id="Rectangle 18_3" x="60.8337" y="95.4734" width="66.097" height="11.1727" rx="5.58637" transform="rotate(-90 60.8337 95.4734)" fill="#D9A528"/>
</g>
<g id="Bar 4">
<rect id="Rectangle 17_4" x="30.4175" y="95.4734" width="95.4734" height="11.1727" rx="5.58637" transform="rotate(-90 30.4175 95.4734)" fill="#E9EDF7"/>
<rect id="Rectangle 18_4" x="30.4175" y="95.4734" width="49.2055" height="11.1727" rx="5.58637" transform="rotate(-90 30.4175 95.4734)" fill="#D9A528"/>
</g>
<g id="Bar 3">
<rect id="Rectangle 17_5" y="95.4734" width="95.4734" height="11.1727" rx="5.58637" transform="rotate(-90 0 95.4734)" fill="#E9EDF7"/>
<rect id="Rectangle 18_5" y="95.4734" width="78.5819" height="11.1728" rx="5.58638" transform="rotate(-90 0 95.4734)" fill="#D9A528"/>
</g>
</g>
</svg>
