<svg width="25" height="25" viewBox="0 0 25 25" fill="none" xmlns="http://www.w3.org/2000/svg">
<g id="Layer_1" clip-path="url(#clip0_719_452)">
<path id="Vector" d="M-0.000152268 11.67C0.110773 11.5213 0.0931557 11.3366 0.130348 11.1696C0.384274 10.1103 0.985052 9.16639 1.83715 8.48786C2.68924 7.80933 3.74373 7.43516 4.83293 7.42485C6.18296 7.41506 7.53299 7.41245 8.88302 7.42485C11.4793 7.4516 13.6463 9.60748 13.6626 12.2077C13.6813 14.8743 13.6813 17.5413 13.6626 20.2087C13.6469 22.6184 11.7834 24.6699 9.39393 24.9504C9.36 24.9543 9.32868 24.9589 9.32281 24.9981H4.24437C4.18891 24.9041 4.08516 24.9361 4.00621 24.9185C1.94626 24.4617 0.656264 23.2122 0.112729 21.1803C0.0742318 21.0367 0.0970675 20.8769 -0.00341797 20.7503L-0.000152268 11.67ZM11.7181 16.2075C11.7181 14.9386 11.7181 13.6693 11.7181 12.3995C11.7181 10.6567 10.4425 9.3778 8.70619 9.37585C7.46121 9.37585 6.21624 9.37585 4.97126 9.37585C3.23234 9.37585 1.95409 10.6548 1.95344 12.3937C1.95344 14.9406 1.95344 17.4873 1.95344 20.0338C1.95344 21.7584 3.23365 23.0432 4.95495 23.0458C6.20776 23.0458 7.46078 23.0458 8.71402 23.0458C10.4373 23.0458 11.7155 21.763 11.7201 20.0397C11.7201 18.763 11.7195 17.4858 11.7181 16.2082V16.2075Z" fill="#787878"/>
<path id="Vector_2" d="M24.9995 10.7467C24.9995 12.6664 24.9995 14.5863 24.9995 16.5064C24.9995 18.9859 23.3683 20.9512 20.9331 21.4132C20.7181 21.4547 20.4997 21.4765 20.2806 21.4784C18.8164 21.4841 17.352 21.4841 15.8873 21.4784C15.6866 21.4809 15.4901 21.4213 15.3246 21.3078C15.159 21.1943 15.0327 21.0324 14.9627 20.8442C14.8955 20.664 14.8832 20.4679 14.9274 20.2807C14.9715 20.0935 15.0701 19.9236 15.2107 19.7924C15.4113 19.6099 15.6758 19.514 15.9467 19.5255C17.2974 19.5286 18.6478 19.5286 19.9981 19.5255C21.7853 19.5255 23.0485 18.2577 23.0485 16.4666C23.0485 12.6429 23.0485 8.81923 23.0485 4.99556C23.0485 3.22076 21.7807 1.94968 20.0111 1.94903C17.4881 1.94903 14.9651 1.94903 12.4421 1.94903C10.6803 1.94903 9.44059 3.13986 9.37534 4.89313C9.37071 5.15227 9.26348 5.39899 9.07718 5.57917C8.89088 5.75935 8.64072 5.85828 8.38158 5.85427C7.84457 5.84579 7.42828 5.41383 7.42306 4.85855C7.40022 2.44885 9.29508 0.313202 11.6982 0.0365407C11.9161 0.0103715 12.1353 -0.00312793 12.3547 -0.00390625C14.9264 -0.00390625 17.4975 -0.00390625 20.0679 -0.00390625C22.4045 -0.00390625 24.3359 1.52817 24.8762 3.79496C24.9637 4.1758 25.0055 4.5657 25.0008 4.95642C24.9987 6.88957 24.9982 8.81968 24.9995 10.7467Z" fill="#787878"/>
<path id="Vector_3" d="M16.1775 9.76729C16.0074 9.76395 15.8414 9.71477 15.697 9.62497C15.5525 9.53517 15.4349 9.40806 15.3567 9.25703C15.2675 9.1053 15.2234 8.93132 15.2296 8.75545C15.2357 8.57958 15.2918 8.40909 15.3912 8.26392C15.4503 8.17624 15.519 8.09547 15.5961 8.02315C16.8476 6.76904 18.1 5.51558 19.3532 4.26277C19.6377 3.97763 19.9614 3.83343 20.3646 3.9437C20.5228 3.9839 20.6683 4.06342 20.7875 4.1749C20.9067 4.28637 20.9958 4.42619 21.0465 4.58133C21.0973 4.73647 21.1079 4.90191 21.0776 5.06228C21.0472 5.22265 20.9768 5.37275 20.8729 5.49862C20.8262 5.55492 20.7763 5.60851 20.7235 5.65914C19.4764 6.90672 18.2296 8.1543 16.9834 9.40188C16.768 9.61786 16.526 9.76207 16.1775 9.76729Z" fill="#787878"/>
<path id="Vector_4" d="M18.1633 11.7189C18.7975 11.7189 19.4318 11.7189 20.066 11.7189C20.6585 11.7189 21.0924 12.1359 21.0924 12.6938C21.0924 13.2517 20.6591 13.6693 20.0666 13.6725C18.7982 13.6751 17.5297 13.6751 16.2612 13.6725C15.6688 13.6725 15.2349 13.2549 15.2349 12.697C15.2349 12.1391 15.6688 11.7235 16.2606 11.7183C16.8948 11.717 17.5291 11.7189 18.1633 11.7189Z" fill="#787878"/>
<path id="Vector_5" d="M18.1392 17.5784C17.5128 17.5784 16.887 17.5784 16.2606 17.5784C15.6688 17.5784 15.2342 17.1602 15.2349 16.5997C15.2355 16.0392 15.6688 15.6255 16.2606 15.6242C17.5291 15.6242 18.7977 15.6242 20.0666 15.6242C20.6585 15.6242 21.0924 16.0418 21.0924 16.5997C21.0924 17.1576 20.6585 17.5732 20.066 17.5784C19.4239 17.5784 18.7812 17.5784 18.1392 17.5784Z" fill="#787878"/>
<path id="Vector_6" d="M16.2061 5.86011C15.9477 5.85839 15.7004 5.75452 15.5182 5.57116C15.3361 5.38779 15.2339 5.13982 15.2339 4.88136C15.2358 4.62302 15.3397 4.37592 15.5231 4.19392C15.7064 4.01192 15.9543 3.90978 16.2126 3.90979C16.471 3.91168 16.7181 4.01564 16.9001 4.19899C17.0821 4.38233 17.1842 4.6302 17.1842 4.88854C17.1823 5.14677 17.0785 5.39378 16.8953 5.57576C16.712 5.75774 16.4643 5.85995 16.2061 5.86011Z" fill="#787878"/>
<path id="Vector_7" d="M21.0928 8.78793C21.0928 9.04683 20.9902 9.29519 20.8075 9.47863C20.6248 9.66207 20.3768 9.76565 20.1179 9.76668C19.8589 9.76668 19.6104 9.66401 19.427 9.48116C19.2435 9.29832 19.14 9.05021 19.1392 8.79119C19.1392 8.5324 19.2417 8.28413 19.4242 8.10071C19.6068 7.91729 19.8546 7.81365 20.1133 7.81244C20.3725 7.81226 20.6211 7.91485 20.8047 8.09772C20.9883 8.28058 21.0919 8.5288 21.0928 8.78793Z" fill="#787878"/>
<path id="Vector_8" d="M6.83696 13.2817C6.20273 13.2817 5.5685 13.2817 4.93427 13.2817C4.34114 13.2817 3.90723 12.8641 3.90723 12.3062C3.90723 11.7483 4.34049 11.3275 4.93165 11.3275C6.20012 11.3275 7.46858 11.3275 8.73705 11.3275C9.33017 11.3275 9.76409 11.7437 9.76474 12.3023C9.76539 12.8608 9.33148 13.2765 8.73966 13.281C8.10477 13.2837 7.47119 13.2817 6.83696 13.2817Z" fill="#787878"/>
<path id="Vector_9" d="M4.88793 17.1869C4.6297 17.1869 4.38194 17.0849 4.19861 16.903C4.01528 16.7212 3.91125 16.4742 3.90918 16.216C3.90917 15.9578 4.01122 15.71 4.19308 15.5267C4.37494 15.3433 4.62188 15.2393 4.8801 15.2372C5.13822 15.2372 5.3859 15.3392 5.56921 15.5209C5.75252 15.7026 5.85662 15.9494 5.85886 16.2075C5.85904 16.4659 5.75708 16.7138 5.5752 16.8973C5.39332 17.0807 5.14627 17.1848 4.88793 17.1869Z" fill="#787878"/>
<path id="Vector_10" d="M9.76479 16.2036C9.76601 16.4623 9.66478 16.7109 9.48321 16.8952C9.30164 17.0794 9.0545 17.1843 8.79583 17.1869C8.53703 17.1881 8.28829 17.0868 8.10401 16.9051C7.91973 16.7234 7.81492 16.4761 7.81251 16.2173C7.81146 15.9586 7.91287 15.71 8.09456 15.5259C8.27625 15.3418 8.52345 15.237 8.78213 15.2346C9.0407 15.2336 9.28918 15.3349 9.4733 15.5164C9.65742 15.698 9.76221 15.945 9.76479 16.2036Z" fill="#787878"/>
<path id="Vector_11" d="M5.85905 20.1056C5.86132 20.3644 5.76099 20.6136 5.58001 20.7986C5.39903 20.9836 5.15214 21.0894 4.89335 21.0928C4.63467 21.0949 4.38567 20.9945 4.20079 20.8135C4.01592 20.6326 3.91021 20.3858 3.90677 20.1271C3.90468 19.8684 4.00508 19.6194 4.18604 19.4346C4.367 19.2497 4.61379 19.144 4.87247 19.1405C5.13105 19.1384 5.37995 19.2388 5.56481 19.4196C5.74966 19.6004 5.85544 19.847 5.85905 20.1056Z" fill="#787878"/>
<path id="Vector_12" d="M9.76481 20.1075C9.76655 20.3662 9.66581 20.6151 9.48461 20.7997C9.3034 20.9843 9.05648 21.0897 8.7978 21.0928C8.53911 21.0946 8.29026 20.9938 8.10563 20.8126C7.921 20.6314 7.81562 20.3845 7.81252 20.1258C7.81078 19.8671 7.91152 19.6183 8.09272 19.4336C8.27392 19.249 8.52085 19.1436 8.77953 19.1405C9.03822 19.1388 9.28708 19.2395 9.47171 19.4207C9.65633 19.6019 9.76171 19.8489 9.76481 20.1075Z" fill="#787878"/>
</g>
<defs>
<clipPath id="clip0_719_452">
<rect width="25" height="24.9993" fill="white"/>
</clipPath>
</defs>
</svg>
