<svg width="20" height="23" viewBox="0 0 20 23" fill="none" xmlns="http://www.w3.org/2000/svg">
<g id="Isolation_Mode" clip-path="url(#clip0_117_4229)">
<path id="Vector" d="M14.6484 9.21632e-05C14.8803 0.0505416 15.1181 0.0946055 15.3501 0.152593C17.6957 0.735951 19.2932 2.78757 19.3077 5.26828C19.3216 7.48516 19.3123 9.70145 19.3077 11.9183C19.3077 12.4251 19.0299 12.7789 18.584 12.8589C18.3823 12.8914 18.1756 12.8519 18.0001 12.7472C17.8246 12.6426 17.6916 12.4795 17.6243 12.2865C17.5812 12.1407 17.5637 11.9884 17.5727 11.8366C17.5727 9.65622 17.5762 7.47588 17.5727 5.29496C17.5692 3.73218 16.678 2.44659 15.2584 1.93862C14.8693 1.80218 14.4594 1.73449 14.0471 1.73857C11.4295 1.73857 8.8123 1.73857 6.19551 1.73857C4.17811 1.73857 2.65826 3.25031 2.65014 5.27582C2.64202 7.47936 2.65014 9.68289 2.65014 11.8824C2.65014 12.4043 2.41819 12.7325 1.98096 12.8432C1.8666 12.8706 1.74784 12.8743 1.63203 12.8539C1.51621 12.8336 1.4058 12.7897 1.30763 12.7249C1.20946 12.6602 1.12561 12.576 1.06129 12.4775C0.996974 12.3791 0.953548 12.2685 0.933694 12.1526C0.920262 12.0595 0.914069 11.9654 0.915148 11.8714C0.915148 9.68348 0.910509 7.49617 0.915148 5.30829C0.920367 2.94123 2.31554 0.993423 4.52546 0.253499C4.82022 0.156571 5.12321 0.0866914 5.43065 0.0447368C5.4695 0.0389381 5.52112 0.0598191 5.53735 -0.000488281L14.6484 9.21632e-05Z" fill="#96B0C4"/>
<path id="Vector_2" d="M9.31061 22.2596C9.12505 22.1546 8.91167 22.1749 8.71277 22.1337C8.28112 22.0476 7.85674 21.9284 7.44341 21.7771C6.97951 21.6031 6.74756 21.1236 6.90818 20.6707C6.94384 20.5622 7.00097 20.462 7.07617 20.376C7.15137 20.29 7.24312 20.2201 7.34592 20.1703C7.44873 20.1205 7.56049 20.0919 7.67457 20.0862C7.78865 20.0806 7.90271 20.0979 8.00995 20.1372C8.51214 20.32 9.0345 20.4417 9.56577 20.4996C9.70219 20.5157 9.83962 20.5213 9.97689 20.5165C10.3097 20.4996 10.6107 20.2445 10.66 19.9505C10.7093 19.6565 10.5324 19.4037 10.1891 19.2581C9.8789 19.1265 9.54605 19.1909 9.22712 19.134C8.21349 18.9537 7.41384 18.4805 7.06012 17.4669C6.59622 16.1297 7.5304 14.6104 8.93023 14.3935C9.77569 14.2607 10.5806 14.459 11.3756 14.7177C11.5139 14.7603 11.6495 14.8114 11.7815 14.8708C11.977 14.9608 12.1315 15.121 12.2145 15.3195C12.2975 15.5181 12.3029 15.7406 12.2297 15.943C12.1598 16.1508 12.0118 16.3232 11.817 16.4238C11.6221 16.5243 11.3958 16.5451 11.1859 16.4817C10.7104 16.3332 10.2436 16.1569 9.74436 16.1053C9.55068 16.0856 9.35584 16.0584 9.16448 16.1221C9.03544 16.1607 8.92103 16.2372 8.83619 16.3418C8.75136 16.4464 8.70005 16.5742 8.68899 16.7084C8.67043 16.9983 8.84034 17.1636 9.07113 17.2842C9.32164 17.4153 9.59302 17.424 9.87137 17.439C10.7412 17.4854 11.4707 17.8235 11.9862 18.5408C12.9412 19.8699 12.2094 21.7551 10.5892 22.1737C10.4831 22.201 10.3637 22.1848 10.2703 22.2596H9.31061Z" fill="#96B0C4"/>
<path id="Vector_3" d="M16.4277 22.2597C16.4063 22.1855 16.3332 22.2017 16.2851 22.1855C15.5515 21.9582 15.0888 21.4577 14.9137 20.7254C14.4956 18.9759 14.1018 17.2206 13.7041 15.4665C13.5834 14.9382 13.8577 14.4847 14.3558 14.3647C14.8273 14.2528 15.2726 14.5514 15.3932 15.075C15.7841 16.7644 16.172 18.4542 16.5571 20.1443C16.5571 20.1582 16.5571 20.1733 16.564 20.1872C16.6063 20.3305 16.622 20.5137 16.8215 20.5114C17.0059 20.5114 17.0314 20.3374 17.0639 20.1971C17.4613 18.5321 17.8566 16.8665 18.2497 15.2003C18.2665 15.1301 18.2793 15.0588 18.299 14.9892C18.3555 14.7813 18.4868 14.6015 18.6676 14.4843C18.8484 14.3672 19.0661 14.3209 19.279 14.3542C19.74 14.4366 20.0659 14.8454 19.9893 15.3134C19.9128 15.7813 19.7841 16.2586 19.6727 16.7294C19.3608 18.044 19.0552 19.3598 18.7293 20.6726C18.517 21.5262 17.9969 22.08 17.101 22.2272C17.0917 22.2272 17.0859 22.2481 17.0784 22.2597H16.4277Z" fill="#96B0C4"/>
<path id="Vector_4" d="M0 18.2625C0.028414 17.7093 -0.0411798 17.1648 0.0637781 16.6261C0.313126 15.344 1.45549 14.3553 2.74051 14.3066C4.14787 14.2532 5.3285 15.0993 5.68281 16.4144C5.8214 16.93 5.57958 17.3892 5.09712 17.5284C4.61467 17.6676 4.16469 17.3979 4.01624 16.8905C3.84981 16.3182 3.35459 15.9853 2.76718 16.0509C2.49436 16.0784 2.24085 16.2042 2.05385 16.4047C1.86685 16.6053 1.7591 16.867 1.75065 17.141C1.73016 17.8864 1.73016 18.6319 1.75065 19.3776C1.7579 19.6518 1.86432 19.914 2.05019 20.1156C2.23605 20.3173 2.48873 20.4447 2.76137 20.4742C3.34705 20.5449 3.84169 20.2213 4.02203 19.6507C4.17743 19.1584 4.63149 18.9015 5.10293 19.039C5.58365 19.1793 5.82488 19.6455 5.68281 20.1564C5.32154 21.4391 4.13684 22.27 2.74571 22.2167C1.46998 22.1674 0.318351 21.1799 0.070163 19.921C-0.0417535 19.3643 0.0295738 18.8059 0 18.2625Z" fill="#96B0C4"/>
<path id="Vector_5" d="M10.4151 5.24143C10.4151 4.95903 10.4105 4.67663 10.4151 4.39365C10.4256 3.86016 10.7903 3.47803 11.285 3.47803C11.7796 3.47803 12.1426 3.85842 12.1507 4.39365C12.1577 4.83552 12.1507 5.27796 12.1507 5.71983C12.1548 6.58965 12.6929 7.12836 13.5575 7.1301C13.9982 7.1301 14.4395 7.1301 14.8808 7.1301C15.4091 7.1301 15.7918 7.49948 15.7924 7.99992C15.7929 8.50035 15.4091 8.87321 14.882 8.86973C14.2748 8.86393 13.6642 8.92772 13.0617 8.839C11.5024 8.61517 10.4383 7.3893 10.4146 5.80972C10.4128 5.62125 10.4157 5.42989 10.4151 5.24143Z" fill="#96B0C4"/>
</g>
<defs>
<clipPath id="clip0_117_4229">
<rect width="20" height="22.2598" fill="white"/>
</clipPath>
</defs>
</svg>
