<svg width="25" height="26" viewBox="0 0 25 26" fill="none" xmlns="http://www.w3.org/2000/svg">
<g clip-path="url(#clip0_294_1008)">
<path d="M25.0001 13.1928C24.8963 13.2881 24.9126 13.4271 24.8761 13.5459C24.695 14.1461 24.3266 14.6725 23.8248 15.0483C23.323 15.4241 22.7141 15.6295 22.0873 15.6344C20.8583 15.6409 19.6294 15.6376 18.4004 15.6344C17.813 15.6344 17.3777 15.2088 17.3823 14.6495C17.3862 14.1013 17.8176 13.6842 18.3939 13.6829C19.5824 13.6797 20.7702 13.6829 21.9587 13.6829C22.6525 13.6829 23.0525 13.2815 23.0447 12.595C23.0318 11.3981 22.8323 10.2106 22.4534 9.07518C22.3992 8.91332 22.3424 8.87939 22.1884 8.96815C21.9704 9.09151 21.74 9.19526 21.511 9.29773C20.9954 9.52943 20.4413 9.33755 20.2057 8.85133C19.97 8.3651 20.1593 7.80316 20.6573 7.54601C20.9027 7.4194 21.152 7.30127 21.4026 7.18705C21.5116 7.13745 21.5462 7.09699 21.4718 6.9769C20.8438 5.95584 20.0497 5.0468 19.1222 4.28729C18.9917 4.18091 18.9467 4.21158 18.8749 4.3382C18.7554 4.55031 18.6256 4.7572 18.4879 4.95822C18.3487 5.17231 18.1307 5.32292 17.8813 5.37741C17.6318 5.4319 17.3709 5.38589 17.1551 5.24932C16.9376 5.11602 16.7818 4.90187 16.722 4.65385C16.6622 4.40583 16.7032 4.14421 16.836 3.92638C16.9665 3.70122 17.1049 3.48126 17.2465 3.26393C17.3118 3.16864 17.3353 3.11512 17.2002 3.0492C16.0736 2.50066 14.8608 2.15092 13.6151 2.0154C13.4846 2.00039 13.4689 2.0526 13.4715 2.16094C13.4772 2.42201 13.4772 2.68307 13.4715 2.94413C13.4715 3.07242 13.446 3.19944 13.3967 3.31788C13.3475 3.43632 13.2753 3.54387 13.1843 3.63435C13.0933 3.72482 12.9854 3.79645 12.8667 3.8451C12.748 3.89376 12.6208 3.91849 12.4926 3.91789C12.3642 3.91729 12.2372 3.89135 12.1188 3.84155C12.0005 3.79175 11.8932 3.71907 11.803 3.62768C11.7128 3.5363 11.6416 3.42802 11.5934 3.30904C11.5452 3.19005 11.5209 3.06271 11.5221 2.93433C11.5175 2.67327 11.5136 2.41221 11.5221 2.15115C11.5273 2.02061 11.4803 2.00756 11.368 2.02061C10.1302 2.15429 8.92468 2.5005 7.80453 3.04399C7.66877 3.10926 7.674 3.16343 7.75036 3.27373C7.88872 3.47409 8.01534 3.68294 8.14195 3.8931C8.43434 4.38846 8.29989 4.96997 7.83129 5.25649C7.36268 5.54301 6.80074 5.40138 6.48942 4.93016C6.35889 4.73436 6.22836 4.53857 6.1148 4.33103C6.04953 4.2142 6.00319 4.18418 5.88441 4.28077C4.94959 5.04386 4.15037 5.95936 3.52049 6.98864C3.45522 7.09633 3.48068 7.13484 3.58575 7.18444C3.83637 7.29865 4.08569 7.41744 4.33044 7.54471C4.84408 7.8123 5.03531 8.37293 4.7873 8.86699C4.54581 9.34995 3.99236 9.53465 3.47546 9.29839C3.2318 9.18743 2.99118 9.0704 2.75362 8.94726C2.64854 8.89179 2.60938 8.90418 2.56827 9.02362C2.1489 10.2232 1.94173 11.4867 1.95607 12.7575C1.96129 13.2861 2.40119 13.6849 2.95268 13.6868C4.1738 13.6908 5.39427 13.6868 6.61539 13.6868C7.31438 13.6868 7.78038 14.3297 7.5637 14.9758C7.50273 15.163 7.38543 15.3268 7.22783 15.4448C7.07024 15.5628 6.88004 15.6292 6.68326 15.635C5.37272 15.6416 4.06154 15.6631 2.75231 15.6285C1.29036 15.5893 0.0248603 14.3036 0.00332267 12.8436C-0.0834806 6.83918 3.96364 1.45934 9.96416 0.281945C14.5556 -0.618721 18.5303 0.67354 21.7316 4.11761C23.4826 6.00117 24.4877 8.2672 24.8643 10.8119C24.9074 11.1023 24.8904 11.4032 25.0007 11.6832L25.0001 13.1928Z" fill="white"/>
<path d="M4.1961 25.0103C4.02641 24.8955 3.82083 24.885 3.63547 24.8145C2.44242 24.3707 1.64879 23.1124 1.76105 21.828C1.87591 20.5227 2.8934 19.4079 4.16282 19.1965C4.34718 19.1651 4.53382 19.149 4.72084 19.1482C9.90554 19.1482 15.0898 19.1482 20.2736 19.1482C21.9849 19.1482 23.2994 20.5136 23.24 22.2157C23.1923 23.5752 22.12 24.7689 20.7736 24.9568C20.7403 24.9614 20.7083 24.9653 20.7024 25.0045L4.1961 25.0103ZM9.93295 23.0569C11.6912 23.0569 13.4488 23.0569 15.2064 23.0615C15.3846 23.0615 15.4388 23.0256 15.4335 22.839C15.4179 22.3429 15.4172 21.8456 15.4335 21.3503C15.4401 21.1492 15.3918 21.0977 15.1855 21.0983C12.0441 21.1062 8.90306 21.1079 5.76248 21.1035C5.39634 21.1035 5.0302 21.0983 4.66406 21.1035C4.4635 21.107 4.26892 21.1724 4.10698 21.2907C3.94504 21.4091 3.82366 21.5746 3.75948 21.7647C3.54345 22.4089 4.01075 23.0517 4.70909 23.053C6.45038 23.0602 8.19167 23.0569 9.93295 23.0569ZM18.969 23.0569C19.4167 23.0569 19.8638 23.0622 20.3115 23.0569C20.4402 23.0576 20.5678 23.0326 20.6869 22.9837C20.8059 22.9347 20.9141 22.8626 21.0051 22.7716C21.0961 22.6805 21.1682 22.5724 21.2172 22.4533C21.2662 22.3343 21.2911 22.2067 21.2905 22.078C21.2908 21.9496 21.2657 21.8224 21.2166 21.7038C21.1674 21.5852 21.0952 21.4775 21.0042 21.387C20.9131 21.2965 20.805 21.225 20.6861 21.1765C20.5672 21.1281 20.4399 21.1037 20.3115 21.1049C19.3926 21.0983 18.473 21.1049 17.554 21.0996C17.413 21.0996 17.3798 21.1407 17.3817 21.2758C17.3896 21.8128 17.3896 22.3497 17.3817 22.8866C17.3817 23.0263 17.4209 23.0622 17.5573 23.0596C18.0259 23.0517 18.5004 23.0569 18.969 23.0569Z" fill="white"/>
<path d="M15.428 14.656C15.428 16.3261 14.0391 17.6478 12.3474 17.5851C10.7347 17.5251 9.44505 16.0605 9.57558 14.4295C9.61005 13.9072 9.79301 13.4057 10.1029 12.9839C10.191 12.8644 10.1812 12.7881 10.1068 12.6687C9.25491 11.3146 8.40646 9.95838 7.56148 8.59999C7.15162 7.9395 7.49165 7.16414 8.23959 7.06559C8.68014 7.00751 9.00059 7.2144 9.23228 7.58772C9.9254 8.70572 10.6257 9.81915 11.3208 10.9345C11.4631 11.1617 11.6132 11.3842 11.7437 11.6179C11.8175 11.7484 11.8984 11.7921 12.0518 11.7693C12.4687 11.704 12.8949 11.7298 13.301 11.8448C13.707 11.9598 14.0834 12.1614 14.4042 12.4357C14.725 12.7099 14.9826 13.0504 15.1593 13.4337C15.336 13.8169 15.4277 14.2339 15.428 14.656ZM12.5047 15.635C12.7634 15.6324 13.0106 15.5275 13.1922 15.3432C13.3738 15.1589 13.4751 14.9102 13.4739 14.6514C13.4713 14.3927 13.3664 14.1455 13.1821 13.9639C12.9978 13.7823 12.7491 13.681 12.4903 13.6822C12.2316 13.6848 11.9844 13.7897 11.8028 13.974C11.6212 14.1583 11.5199 14.407 11.5211 14.6658C11.5237 14.9245 11.6286 15.1717 11.8129 15.3533C11.9972 15.5349 12.246 15.6362 12.5047 15.635Z" fill="white"/>
</g>
<defs>
<clipPath id="clip0_294_1008">
<rect width="25" height="25.0104" fill="white"/>
</clipPath>
</defs>
</svg>
