<svg width="25" height="26" viewBox="0 0 25 26" fill="none" xmlns="http://www.w3.org/2000/svg">
<g clip-path="url(#clip0_296_2781)">
<path d="M25.0001 13.193C24.8963 13.2883 24.9126 13.4273 24.8761 13.5461C24.695 14.1463 24.3266 14.6728 23.8248 15.0486C23.323 15.4244 22.7141 15.6297 22.0873 15.6346C20.8583 15.6411 19.6294 15.6379 18.4004 15.6346C17.813 15.6346 17.3777 15.2091 17.3823 14.6498C17.3862 14.1015 17.8176 13.6845 18.3939 13.6832C19.5824 13.6799 20.7702 13.6832 21.9587 13.6832C22.6525 13.6832 23.0525 13.2818 23.0447 12.5952C23.0318 11.3983 22.8323 10.2108 22.4534 9.07543C22.3992 8.91357 22.3424 8.87964 22.1884 8.9684C21.9704 9.09175 21.74 9.19551 21.511 9.29798C20.9954 9.52967 20.4413 9.3378 20.2057 8.85157C19.97 8.36534 20.1593 7.8034 20.6573 7.54626C20.9027 7.41964 21.152 7.30151 21.4026 7.1873C21.5116 7.13769 21.5462 7.09723 21.4718 6.97714C20.8438 5.95609 20.0497 5.04704 19.1222 4.28753C18.9917 4.18115 18.9467 4.21183 18.8749 4.33844C18.7554 4.55055 18.6256 4.75745 18.4879 4.95847C18.3487 5.17256 18.1307 5.32317 17.8813 5.37766C17.6318 5.43214 17.3709 5.38613 17.1551 5.24956C16.9376 5.11626 16.7818 4.90211 16.722 4.65409C16.6622 4.40608 16.7032 4.14445 16.836 3.92663C16.9665 3.70146 17.1049 3.48151 17.2465 3.26417C17.3118 3.16888 17.3353 3.11536 17.2002 3.04945C16.0736 2.5009 14.8608 2.15116 13.6151 2.01565C13.4846 2.00064 13.4689 2.05285 13.4715 2.16119C13.4772 2.42225 13.4772 2.68331 13.4715 2.94438C13.4715 3.07267 13.446 3.19968 13.3967 3.31812C13.3475 3.43657 13.2753 3.54412 13.1843 3.63459C13.0933 3.72506 12.9854 3.79669 12.8667 3.84535C12.748 3.89401 12.6208 3.91874 12.4926 3.91813C12.3642 3.91754 12.2372 3.8916 12.1188 3.84179C12.0005 3.79199 11.8932 3.71931 11.803 3.62793C11.7128 3.53655 11.6416 3.42826 11.5934 3.30928C11.5452 3.1903 11.5209 3.06295 11.5221 2.93458C11.5175 2.67351 11.5136 2.41245 11.5221 2.15139C11.5273 2.02086 11.4803 2.00781 11.368 2.02086C10.1302 2.15454 8.92468 2.50075 7.80453 3.04423C7.66877 3.1095 7.674 3.16367 7.75036 3.27397C7.88872 3.47434 8.01534 3.68319 8.14195 3.89334C8.43434 4.38871 8.29989 4.97022 7.83129 5.25673C7.36268 5.54325 6.80074 5.40162 6.48942 4.93041C6.35889 4.73461 6.22836 4.53882 6.1148 4.33127C6.04953 4.21445 6.00319 4.18442 5.88441 4.28102C4.94959 5.0441 4.15037 5.9596 3.52049 6.98889C3.45522 7.09657 3.48068 7.13508 3.58575 7.18468C3.83637 7.2989 4.08569 7.41768 4.33044 7.54495C4.84408 7.81254 5.03531 8.37317 4.7873 8.86723C4.54581 9.3502 3.99236 9.53489 3.47546 9.29863C3.2318 9.18768 2.99118 9.07064 2.75362 8.94751C2.64854 8.89203 2.60938 8.90443 2.56827 9.02386C2.1489 10.2235 1.94173 11.487 1.95607 12.7577C1.96129 13.2864 2.40119 13.6851 2.95268 13.6871C4.1738 13.691 5.39427 13.6871 6.61539 13.6871C7.31438 13.6871 7.78038 14.33 7.5637 14.9761C7.50273 15.1633 7.38543 15.3271 7.22783 15.4451C7.07024 15.5631 6.88004 15.6295 6.68326 15.6353C5.37272 15.6418 4.06154 15.6633 2.75231 15.6287C1.29036 15.5896 0.0248603 14.3039 0.00332267 12.8439C-0.0834806 6.83943 3.96364 1.45958 9.96416 0.282189C14.5556 -0.618477 18.5303 0.673784 21.7316 4.11785C23.4826 6.00142 24.4877 8.26744 24.8643 10.8122C24.9074 11.1026 24.8904 11.4034 25.0007 11.6834L25.0001 13.193Z" fill="#787878"/>
<path d="M4.19586 25.0106C4.02617 24.8957 3.82058 24.8853 3.63523 24.8148C2.44217 24.371 1.64854 23.1127 1.7608 21.8282C1.87567 20.5229 2.89315 19.4082 4.16257 19.1967C4.34694 19.1654 4.53358 19.1492 4.7206 19.1484C9.9053 19.1484 15.0896 19.1484 20.2734 19.1484C21.9847 19.1484 23.2991 20.5138 23.2397 22.2159C23.1921 23.5754 22.1198 24.7691 20.7733 24.9571C20.74 24.9616 20.7081 24.9656 20.7022 25.0047L4.19586 25.0106ZM9.93271 23.0572C11.691 23.0572 13.4486 23.0572 15.2062 23.0618C15.3844 23.0618 15.4385 23.0259 15.4333 22.8392C15.4176 22.3432 15.417 21.8459 15.4333 21.3505C15.4398 21.1495 15.3915 21.0979 15.1853 21.0986C12.0438 21.1064 8.90281 21.1081 5.76223 21.1038C5.39609 21.1038 5.02996 21.0986 4.66382 21.1038C4.46326 21.1072 4.26868 21.1726 4.10674 21.291C3.9448 21.4093 3.82342 21.5749 3.75923 21.7649C3.54321 22.4091 4.0105 23.052 4.70884 23.0533C6.45013 23.0604 8.19142 23.0572 9.93271 23.0572ZM18.9687 23.0572C19.4165 23.0572 19.8635 23.0624 20.3113 23.0572C20.44 23.0578 20.5676 23.0329 20.6866 22.9839C20.8057 22.9349 20.9138 22.8628 21.0048 22.7718C21.0959 22.6808 21.168 22.5726 21.2169 22.4536C21.2659 22.3345 21.2908 22.2069 21.2902 22.0782C21.2906 21.9498 21.2655 21.8226 21.2163 21.704C21.1672 21.5854 21.095 21.4778 21.0039 21.3872C20.9129 21.2967 20.8048 21.2252 20.6859 21.1768C20.567 21.1283 20.4396 21.104 20.3113 21.1051C19.3923 21.0986 18.4727 21.1051 17.5538 21.0999C17.4128 21.0999 17.3795 21.141 17.3815 21.2761C17.3893 21.813 17.3893 22.3499 17.3815 22.8869C17.3815 23.0265 17.4206 23.0624 17.557 23.0598C18.0257 23.052 18.5001 23.0572 18.9687 23.0572Z" fill="#787878"/>
<path d="M15.4282 14.6562C15.4282 16.3264 14.0393 17.648 12.3477 17.5853C10.7349 17.5253 9.44529 16.0608 9.57582 14.4298C9.61029 13.9075 9.79325 13.4059 10.1032 12.9841C10.1913 12.8647 10.1815 12.7883 10.1071 12.6689C9.25515 11.3149 8.4067 9.95863 7.56173 8.60023C7.15186 7.93974 7.49189 7.16439 8.23984 7.06584C8.68038 7.00775 9.00083 7.21464 9.23253 7.58796C9.92565 8.70596 10.6259 9.8194 11.321 10.9348C11.4633 11.1619 11.6134 11.3845 11.7439 11.6181C11.8177 11.7486 11.8986 11.7924 12.052 11.7695C12.469 11.7042 12.8951 11.73 13.3012 11.845C13.7073 11.9601 14.0836 12.1616 14.4044 12.4359C14.7252 12.7102 14.9828 13.0507 15.1595 13.4339C15.3362 13.8172 15.4279 14.2342 15.4282 14.6562ZM12.5049 15.6352C12.7637 15.6326 13.0109 15.5277 13.1925 15.3434C13.3741 15.1591 13.4754 14.9104 13.4741 14.6517C13.4716 14.3929 13.3666 14.1457 13.1823 13.9641C12.998 13.7825 12.7493 13.6813 12.4906 13.6825C12.2319 13.6851 11.9847 13.79 11.803 13.9743C11.6214 14.1586 11.5202 14.4073 11.5214 14.666C11.524 14.9248 11.6289 15.172 11.8132 15.3536C11.9975 15.5352 12.2462 15.6364 12.5049 15.6352Z" fill="#787878"/>
</g>
<defs>
<clipPath id="clip0_296_2781">
<rect width="25" height="25.0104" fill="white"/>
</clipPath>
</defs>
</svg>
