<svg width="19" height="18" viewBox="0 0 19 18" fill="none" xmlns="http://www.w3.org/2000/svg">
<g id="Layer_1" clip-path="url(#clip0_30_8174)">
<path id="Vector" d="M18.8998 4.79766V14.7306C18.8357 14.7541 18.8603 14.8157 18.8505 14.8588C18.5457 16.6691 16.9838 18.0145 15.0529 17.9995C11.3081 17.9714 7.56335 17.9915 3.81807 17.9915C3.62152 17.9924 3.42509 17.982 3.22969 17.9604C1.4478 17.7545 0.0131137 16.1612 0.00522266 14.3299C-0.00760026 11.276 -0.00760026 8.22201 0.00522266 5.16783C0.0116341 3.4327 1.29245 1.90093 2.96732 1.57083C3.40675 1.48468 3.84865 1.4987 4.29054 1.5022C4.40299 1.5022 4.4385 1.47666 4.43258 1.35895C4.42223 1.15308 4.42617 0.946691 4.43258 0.740819C4.43756 0.54563 4.51739 0.360139 4.65508 0.22387C4.79276 0.0876013 4.97741 0.0113525 5.16966 0.0113525C5.3619 0.0113525 5.54655 0.0876013 5.68423 0.22387C5.82192 0.360139 5.90175 0.54563 5.90672 0.740819C5.91166 0.941181 5.91708 1.14154 5.90672 1.3419C5.89785 1.47765 5.94372 1.5022 6.06948 1.5022C8.32631 1.49753 10.5831 1.49652 12.84 1.4992C12.8584 1.49794 12.8768 1.49794 12.8952 1.4992C12.9776 1.51222 12.9993 1.47516 12.9973 1.39451C12.9924 1.17612 12.9924 0.957542 12.9973 0.738813C13.0029 0.543609 13.0834 0.358369 13.2216 0.222574C13.3598 0.0867784 13.5447 0.0111719 13.737 0.0118906C13.9293 0.0126093 14.1137 0.0895891 14.2509 0.226414C14.3881 0.363238 14.4672 0.5491 14.4715 0.744341C14.4806 0.937774 14.4796 1.13155 14.4685 1.32488C14.4557 1.48116 14.5178 1.5092 14.6525 1.50169C14.8497 1.49117 15.047 1.49768 15.2443 1.50169C16.0421 1.51009 16.8158 1.78048 17.4498 2.27244C18.0838 2.7644 18.544 3.45153 18.7617 4.23113C18.8145 4.41847 18.8204 4.61783 18.8998 4.79766ZM9.4567 2.99841C7.56253 2.99841 5.66802 2.99841 3.77319 2.99841C2.44503 2.99841 1.48134 3.97567 1.48084 5.3226C1.48084 8.27093 1.48084 11.2194 1.48084 14.1681C1.48084 15.5135 2.44602 16.4918 3.77368 16.4918H15.1215C16.462 16.4918 17.4227 15.517 17.4232 14.1581C17.4232 11.2157 17.4232 8.27343 17.4232 5.33111C17.4232 3.97166 16.4625 2.99891 15.121 2.99841C13.2331 2.99808 11.345 2.99808 9.4567 2.99841Z" fill="#787878"/>
<path id="Vector_2" d="M9.47094 5.9968C9.71063 5.9968 9.95032 5.99329 10.19 5.9968C10.2884 5.99421 10.3863 6.01165 10.478 6.04811C10.5696 6.08457 10.6532 6.1393 10.7236 6.20907C10.7941 6.27884 10.8502 6.36225 10.8884 6.45436C10.9267 6.54647 10.9464 6.64542 10.9464 6.74539C10.9464 6.84536 10.9267 6.94433 10.8884 7.03644C10.8502 7.12855 10.7941 7.21194 10.7236 7.28171C10.6532 7.35148 10.5696 7.40621 10.478 7.44267C10.3863 7.47913 10.2884 7.49659 10.19 7.49401C9.69682 7.49968 9.20527 7.49968 8.71537 7.49401C8.61697 7.49659 8.51906 7.47913 8.42741 7.44267C8.33576 7.40621 8.25222 7.35148 8.18173 7.28171C8.11123 7.21194 8.0552 7.12855 8.01695 7.03644C7.97869 6.94433 7.95898 6.84536 7.95898 6.74539C7.95898 6.64542 7.97869 6.54647 8.01695 6.45436C8.0552 6.36225 8.11123 6.27884 8.18173 6.20907C8.25222 6.1393 8.33576 6.08457 8.42741 6.04811C8.51906 6.01165 8.61697 5.99421 8.71537 5.9968C8.9669 5.99329 9.21892 5.9968 9.47094 5.9968Z" fill="#787878"/>
<path id="Vector_3" d="M14.4619 7.49609C14.2222 7.49609 13.9825 7.4991 13.7428 7.49609C13.3142 7.48958 12.9912 7.15897 12.9957 6.73671C12.9967 6.63823 13.0169 6.54092 13.0551 6.4504C13.0933 6.35989 13.1488 6.27795 13.2184 6.20932C13.2879 6.14068 13.3702 6.08672 13.4603 6.05051C13.5505 6.01431 13.6469 5.99658 13.7438 5.99837C14.2298 5.99436 14.7152 5.99436 15.2002 5.99837C15.297 5.99658 15.3933 6.01428 15.4833 6.05044C15.5734 6.08659 15.6555 6.14048 15.725 6.20903C15.7944 6.27757 15.8498 6.3594 15.888 6.44979C15.9262 6.54019 15.9464 6.63736 15.9474 6.73571C15.9518 7.15747 15.6283 7.48706 15.1992 7.49357C14.9536 7.49908 14.7075 7.49609 14.4619 7.49609Z" fill="#787878"/>
<path id="Vector_4" d="M4.43313 8.9957C4.67973 8.9957 4.92632 8.99219 5.17292 8.9957C5.27131 8.99311 5.36923 9.01055 5.46088 9.04701C5.55253 9.08347 5.63606 9.1382 5.70656 9.20797C5.77706 9.27774 5.83308 9.36115 5.87134 9.45326C5.90959 9.54537 5.9293 9.64432 5.9293 9.74429C5.9293 9.84426 5.90959 9.94323 5.87134 10.0353C5.83308 10.1275 5.77706 10.2108 5.70656 10.2806C5.63606 10.3504 5.55253 10.4051 5.46088 10.4416C5.36923 10.478 5.27131 10.4955 5.17292 10.4929C4.6817 10.4982 4.19015 10.4982 3.69828 10.4929C3.59988 10.4955 3.50197 10.478 3.41032 10.4416C3.31867 10.4051 3.23513 10.3504 3.16463 10.2806C3.09414 10.2108 3.03811 10.1275 2.99986 10.0353C2.9616 9.94323 2.94189 9.84426 2.94189 9.74429C2.94189 9.64432 2.9616 9.54537 2.99986 9.45326C3.03811 9.36115 3.09414 9.27774 3.16463 9.20797C3.23513 9.1382 3.31867 9.08347 3.41032 9.04701C3.50197 9.01055 3.59988 8.99311 3.69828 8.9957C3.94142 8.99219 4.18703 8.9957 4.43313 8.9957Z" fill="#787878"/>
<path id="Vector_5" d="M9.45861 10.495C9.21202 10.495 8.96542 10.498 8.72129 10.495C8.30109 10.4884 7.98151 10.1654 7.97707 9.75213C7.97411 9.33037 8.29814 9.00076 8.72721 8.99726C9.21284 8.99392 9.6983 8.99392 10.1836 8.99726C10.2809 8.99553 10.3776 9.01349 10.468 9.05009C10.5584 9.08668 10.6407 9.14118 10.7101 9.21041C10.7796 9.27964 10.8348 9.36222 10.8725 9.45333C10.9102 9.54444 10.9297 9.64227 10.9298 9.7411C10.9332 10.1629 10.6092 10.4925 10.1792 10.497C9.93799 10.4975 9.69682 10.495 9.45861 10.495Z" fill="#787878"/>
<path id="Vector_6" d="M14.4712 10.495C14.2246 10.495 13.9781 10.4985 13.7339 10.495C13.6355 10.4975 13.5376 10.4801 13.446 10.4436C13.3543 10.4072 13.2708 10.3525 13.2003 10.2827C13.1298 10.2129 13.0738 10.1295 13.0355 10.0374C12.9972 9.94531 12.9775 9.84634 12.9775 9.74637C12.9775 9.6464 12.9972 9.54745 13.0355 9.45534C13.0738 9.36323 13.1298 9.27982 13.2003 9.21005C13.2708 9.14028 13.3543 9.08555 13.446 9.04909C13.5376 9.01263 13.6355 8.99519 13.7339 8.99778C14.2271 8.99277 14.7188 8.99277 15.2091 8.99778C15.3075 8.99519 15.4054 9.01263 15.497 9.04909C15.5887 9.08555 15.6722 9.14028 15.7427 9.21005C15.8132 9.27982 15.8692 9.36323 15.9075 9.45534C15.9457 9.54745 15.9654 9.6464 15.9654 9.74637C15.9654 9.84634 15.9457 9.94531 15.9075 10.0374C15.8692 10.1295 15.8132 10.2129 15.7427 10.2827C15.6722 10.3525 15.5887 10.4072 15.497 10.4436C15.4054 10.4801 15.3075 10.4975 15.2091 10.495C14.963 10.4985 14.7169 10.495 14.4712 10.495Z" fill="#787878"/>
<path id="Vector_7" d="M4.43392 11.9952C4.68051 11.9952 4.92711 11.9917 5.1737 11.9952C5.2721 11.9926 5.37002 12.01 5.46167 12.0465C5.55332 12.083 5.63685 12.1377 5.70735 12.2075C5.77785 12.2772 5.83387 12.3606 5.87213 12.4527C5.91038 12.5449 5.93009 12.6438 5.93009 12.7438C5.93009 12.8437 5.91038 12.9427 5.87213 13.0348C5.83387 13.1269 5.77785 13.2103 5.70735 13.2801C5.63685 13.3499 5.55332 13.4046 5.46167 13.4411C5.37002 13.4775 5.2721 13.495 5.1737 13.4924C4.68051 13.4974 4.18881 13.4974 3.69858 13.4924C3.59668 13.5009 3.49416 13.4878 3.39749 13.454C3.30082 13.4202 3.21209 13.3664 3.13691 13.2961C3.06172 13.2257 3.00172 13.1403 2.96067 13.0452C2.91963 12.9501 2.89844 12.8474 2.89844 12.7435C2.89844 12.6397 2.91963 12.537 2.96067 12.4419C3.00172 12.3468 3.06172 12.2614 3.13691 12.191C3.21209 12.1206 3.30082 12.0669 3.39749 12.0331C3.49416 11.9993 3.59668 11.9862 3.69858 11.9947C3.9427 11.9907 4.18831 11.9952 4.43392 11.9952Z" fill="#787878"/>
<path id="Vector_8" d="M9.45963 13.4934C9.21304 13.4934 8.96645 13.4964 8.71985 13.4934C8.29867 13.4869 7.97711 13.1648 7.97415 12.7516C7.9707 12.3293 8.29374 12.0002 8.7233 11.9957C9.2086 11.9917 9.69406 11.9917 10.1797 11.9957C10.277 11.9935 10.3737 12.011 10.4643 12.0472C10.5549 12.0833 10.6375 12.1374 10.7072 12.2063C10.777 12.2752 10.8326 12.3576 10.8707 12.4485C10.9088 12.5394 10.9288 12.6372 10.9293 12.736C10.9333 13.1578 10.6093 13.4874 10.1802 13.4929C9.93901 13.4979 9.69932 13.4934 9.45963 13.4934Z" fill="#787878"/>
</g>
<defs>
<clipPath id="clip0_30_8174">
<rect width="18.9" height="18" fill="white"/>
</clipPath>
</defs>
</svg>
