<svg width="20" height="20" viewBox="0 0 20 20" fill="none" xmlns="http://www.w3.org/2000/svg">
<g id="Isolation_Mode" clip-path="url(#clip0_100_3024)">
<path id="Vector" d="M13.9063 20.0006C13.7152 19.9009 13.4986 19.9045 13.295 19.857C10.9202 19.3026 9.16404 17.206 9.06641 14.7988C8.96514 12.2929 10.5281 10.0554 12.8925 9.31199C16.1333 8.29345 19.4749 10.4313 19.9573 13.8314C19.963 13.8706 19.9359 13.9264 20.0001 13.9458V15.1173C19.9401 15.1392 19.9635 15.1935 19.9568 15.2337C19.549 17.5986 18.2006 19.1334 15.901 19.8226C15.6212 19.9066 15.3268 19.9421 15.0391 20.0006H13.9063ZM10.6252 14.531C10.6276 15.5671 11.0405 16.56 11.7735 17.2922C12.5065 18.0245 13.4998 18.4363 14.5359 18.4375C15.5685 18.4338 16.5578 18.0223 17.2885 17.2926C18.0192 16.5629 18.432 15.5741 18.4371 14.5414C18.4381 13.5052 18.0279 12.511 17.2966 11.7769C16.5652 11.0428 15.5726 10.6289 14.5364 10.626C13.5002 10.6261 12.5064 11.0374 11.7731 11.7695C11.0399 12.5016 10.627 13.4948 10.6252 14.531Z" fill="#C1C4C7"/>
<path id="Vector_2" d="M9.84333 7.81303C7.14855 7.81303 4.45341 7.81164 1.75793 7.80886C1.59609 7.80886 1.55798 7.84644 1.55851 8.0088C1.56477 10.2677 1.56164 12.5267 1.56268 14.7856C1.56268 16.1618 2.59059 17.1871 3.96982 17.1871C5.20707 17.1871 6.44379 17.1871 7.68051 17.1871C7.84771 17.1863 8.01078 17.239 8.14586 17.3375C8.28094 17.4361 8.38093 17.5753 8.4312 17.7347C8.47896 17.8915 8.47634 18.0593 8.4237 18.2145C8.37107 18.3696 8.27108 18.5044 8.13782 18.5998C8.00654 18.698 7.84704 18.7511 7.68312 18.7512C6.37488 18.7512 5.06611 18.7674 3.75787 18.7449C1.88165 18.7136 0.249222 17.2012 0.0336177 15.3322C0.0113739 15.1383 0.000566572 14.9432 0.0012513 14.748C0.0012513 11.6884 0.0012513 8.62866 0.0012513 5.56871C0.0012513 3.57132 1.27817 2.01298 3.23218 1.62301C3.6378 1.54209 4.0497 1.55148 4.45793 1.5708C4.66675 1.57968 4.70904 1.51128 4.69233 1.32491C4.68128 1.14307 4.68041 0.960768 4.68972 0.778837C4.69006 0.676127 4.7107 0.574497 4.75044 0.479789C4.79019 0.385081 4.84826 0.299165 4.92132 0.226975C4.99439 0.154786 5.08099 0.0977479 5.17617 0.059142C5.27135 0.020536 5.37321 0.00112161 5.47592 0.0020165C5.68001 0.00323528 5.87546 0.0845678 6.02017 0.228498C6.16488 0.372429 6.24726 0.56744 6.24959 0.771528C6.25533 0.986615 6.25794 1.2017 6.24959 1.41627C6.24384 1.53477 6.2736 1.57289 6.39732 1.56766C6.7685 1.55827 7.13967 1.56454 7.51084 1.56454C9.11195 1.56454 10.7136 1.56453 12.3136 1.56766C12.4629 1.56766 12.5157 1.53634 12.5042 1.37973C12.489 1.17926 12.4969 0.976177 12.5016 0.774663C12.5033 0.570562 12.5851 0.375297 12.7293 0.230824C12.8734 0.0863512 13.0685 0.00419623 13.2726 0.0020165C13.3753 0.00070662 13.4773 0.0197133 13.5726 0.0579375C13.668 0.0961617 13.7548 0.152852 13.8282 0.224751C13.9015 0.29665 13.9599 0.382337 14 0.476889C14.0402 0.571442 14.0612 0.672996 14.062 0.775708C14.0672 0.990274 14.0719 1.20588 14.062 1.41992C14.0547 1.54678 14.0985 1.56871 14.2144 1.56714C14.7411 1.56088 15.2679 1.54678 15.7863 1.67782C16.6284 1.8887 17.3766 2.37351 17.9132 3.056C18.4497 3.73849 18.7443 4.57997 18.7504 5.44812C18.7546 5.95608 18.7504 6.46404 18.7504 6.97148C18.7504 7.48831 18.4257 7.81251 17.9099 7.81251C15.2211 7.81355 12.5322 7.81373 9.84333 7.81303ZM9.37036 6.25052H12.9636C14.311 6.25052 15.6584 6.25052 17.0063 6.25052C17.1405 6.25052 17.2052 6.23642 17.1916 6.07667C17.1744 5.86785 17.1916 5.65902 17.1874 5.4502C17.1819 4.97577 17.0337 4.51399 16.762 4.12503C16.4902 3.73607 16.1077 3.43797 15.6641 3.26957C15.1677 3.07693 14.6524 3.1307 14.1408 3.11974C14.0432 3.11974 14.063 3.18343 14.063 3.23825C14.063 3.46586 14.0677 3.694 14.063 3.92162C14.0582 4.12579 13.9735 4.31993 13.8271 4.46227C13.6806 4.60461 13.4842 4.68379 13.2799 4.68278C13.0759 4.68226 12.8802 4.60177 12.7349 4.45858C12.5896 4.31539 12.5062 4.12092 12.5026 3.91692C12.4969 3.72167 12.4906 3.52538 12.5026 3.33117C12.5141 3.1709 12.4817 3.11452 12.299 3.11556C10.3459 3.12392 8.39292 3.12392 6.44013 3.11556C6.29814 3.11556 6.23131 3.1354 6.24541 3.29985C6.25681 3.49491 6.25803 3.69042 6.24906 3.8856C6.24176 4.34135 5.90086 4.68434 5.46078 4.68069C5.03062 4.67704 4.69494 4.33561 4.68763 3.8903C4.6845 3.66894 4.68346 3.44759 4.68763 3.22676C4.69024 3.14115 4.66466 3.11452 4.57853 3.11661C4.34413 3.12235 4.10869 3.11661 3.87533 3.11661C3.40446 3.1253 2.94691 3.27446 2.56137 3.54495C2.17583 3.81544 1.87988 4.19492 1.71146 4.63475C1.54076 5.08059 1.56999 5.54104 1.55485 6.00202C1.54963 6.18683 1.58304 6.24791 1.78977 6.24686C4.31855 6.24738 6.84419 6.25052 9.37036 6.25052Z" fill="#C1C4C7"/>
<path id="Vector_3" d="M4.68685 10.153C4.68686 10.3597 4.60514 10.558 4.45953 10.7047C4.31392 10.8514 4.11621 10.9346 3.90953 10.9361C3.70275 10.9361 3.50436 10.8543 3.35766 10.7086C3.21095 10.5628 3.12784 10.365 3.12646 10.1582C3.12646 9.95142 3.20824 9.75303 3.35397 9.60632C3.4997 9.45961 3.69753 9.3765 3.90431 9.37512C4.111 9.37526 4.30925 9.4571 4.45584 9.60281C4.60244 9.74853 4.68547 9.9463 4.68685 10.153Z" fill="#C1C4C7"/>
<path id="Vector_4" d="M7.81174 10.1546C7.81175 10.3616 7.72975 10.5603 7.58368 10.707C7.43762 10.8538 7.23938 10.9367 7.03233 10.9377C6.82519 10.9377 6.62649 10.8556 6.47973 10.7094C6.33296 10.5632 6.2501 10.3649 6.24927 10.1577C6.24927 9.95066 6.33126 9.75204 6.47733 9.60528C6.62339 9.45853 6.82163 9.3756 7.02868 9.37463C7.23582 9.37463 7.43452 9.45671 7.58128 9.60289C7.72805 9.74907 7.81091 9.94744 7.81174 10.1546Z" fill="#C1C4C7"/>
<path id="Vector_5" d="M4.68682 13.2769C4.68682 13.4835 4.60518 13.6818 4.45968 13.8285C4.31418 13.9751 4.11661 14.0584 3.91002 14.06C3.70342 14.06 3.50518 13.9784 3.35851 13.8329C3.21184 13.6874 3.12861 13.4898 3.12695 13.2832C3.12695 13.0766 3.20859 12.8784 3.35409 12.7317C3.49959 12.585 3.69716 12.5018 3.90375 12.5001C4.11035 12.5001 4.30859 12.5818 4.45526 12.7273C4.60194 12.8728 4.68516 13.0703 4.68682 13.2769Z" fill="#C1C4C7"/>
<path id="Vector_6" d="M7.81198 13.2884C7.80963 13.4955 7.72538 13.6932 7.57765 13.8383C7.42993 13.9834 7.23075 14.064 7.02369 14.0627C6.81664 14.0602 6.61901 13.9758 6.47402 13.828C6.32903 13.6801 6.24849 13.4809 6.25002 13.2738C6.2525 13.0668 6.33688 12.8691 6.48471 12.7241C6.63254 12.5791 6.83177 12.4986 7.03883 12.5001C7.24569 12.5028 7.44312 12.5871 7.58798 12.7348C7.73284 12.8825 7.81337 13.0816 7.81198 13.2884Z" fill="#C1C4C7"/>
<path id="Vector_7" d="M15.3048 15.3125C15.0511 15.3125 14.7973 15.3156 14.5436 15.3125C14.0894 15.3062 13.7559 14.9763 13.7517 14.5237C13.7472 14.01 13.7472 13.4961 13.7517 12.982C13.7553 12.5278 14.0994 12.1849 14.5389 12.1885C14.9701 12.1922 15.3042 12.5315 15.3121 12.9773C15.3157 13.1919 15.3173 13.407 15.3121 13.6215C15.3089 13.7197 15.3324 13.7578 15.4389 13.7531C15.6535 13.7448 15.868 13.7484 16.0826 13.7531C16.5373 13.7594 16.8798 14.1013 16.8761 14.5414C16.8719 14.9721 16.5316 15.3073 16.0863 15.3141C15.8268 15.3161 15.5658 15.3125 15.3048 15.3125Z" fill="#C1C4C7"/>
</g>
<defs>
<clipPath id="clip0_100_3024">
<rect width="20" height="20" fill="white"/>
</clipPath>
</defs>
</svg>
