<svg width="16" height="18" viewBox="0 0 16 18" fill="none" xmlns="http://www.w3.org/2000/svg">
<g id="Layer_1" clip-path="url(#clip0_269_4722)">
<path id="Vector" d="M9.41953 -2.95021e-05C9.48859 0.0619828 9.58067 0.044607 9.66053 0.0652777C10.1057 0.181002 10.5011 0.438355 10.7872 0.79851C11.0733 1.15867 11.2345 1.60209 11.2465 2.06188C11.2494 2.25544 11.255 2.449 11.2465 2.64161C11.239 2.77315 11.27 2.81684 11.4133 2.8159C12.5264 2.80901 13.6393 2.80822 14.7521 2.81355C15.2473 2.81355 15.5789 3.2683 15.4324 3.72917C15.3895 3.86394 15.3069 3.98261 15.1954 4.06963C15.0839 4.15664 14.9487 4.20794 14.8076 4.2168C14.7437 4.22056 14.6788 4.2168 14.6145 4.2168C10.7425 4.2168 6.87045 4.21556 2.99844 4.21305C2.84623 4.21305 2.81052 4.24594 2.81052 4.40097C2.81585 7.7346 2.81726 11.0681 2.81475 14.4014C2.81475 15.6764 3.72943 16.5906 5.00585 16.5911H10.4362C11.7516 16.5911 12.6564 15.6881 12.6564 14.3779C12.6564 11.7123 12.6564 9.04672 12.6564 6.38113C12.6564 5.93859 12.9505 5.62383 13.3582 5.62336C13.5357 5.62355 13.7065 5.69064 13.8366 5.81126C13.9667 5.93187 14.0465 6.09713 14.0601 6.27402C14.0629 6.31489 14.0601 6.35624 14.0601 6.39711C14.0601 9.07992 14.0601 11.763 14.0601 14.4465C14.0601 16.1279 12.9566 17.5189 11.3236 17.9084C11.0618 17.9696 10.7938 17.9996 10.5249 17.9976C8.66786 17.9976 6.8136 18.0004 4.95417 17.9976C2.95992 17.9939 1.41055 16.4375 1.40914 14.4385C1.40695 11.0936 1.40804 7.74854 1.41243 4.40332C1.41243 4.2497 1.37907 4.20037 1.22451 4.21541C1.05494 4.22551 0.884939 4.22644 0.715261 4.21822C0.313591 4.21117 0.0072874 3.91051 0.00399887 3.52247C0.00247324 3.42879 0.0198093 3.33575 0.0549721 3.24891C0.0901349 3.16206 0.142405 3.08318 0.208677 3.01695C0.27495 2.95072 0.35387 2.8985 0.440737 2.86339C0.527603 2.82829 0.620642 2.81102 0.714321 2.81261C1.82725 2.80979 2.94019 2.80838 4.05312 2.81543C4.19687 2.81543 4.22177 2.77174 4.22036 2.64114C4.21614 2.24464 4.18325 1.84249 4.32137 1.4582C4.59808 0.684926 5.14021 0.212316 5.9412 0.0352047C5.96798 0.0295673 6.00087 0.0385043 6.00979 -0.000488281L9.41953 -2.95021e-05ZM7.72828 2.81214C8.38599 2.81214 9.03994 2.81214 9.69576 2.81214C9.79771 2.81214 9.85596 2.80557 9.84704 2.67637C9.83388 2.48376 9.84704 2.28973 9.84234 2.09665C9.84147 1.91274 9.76767 1.73669 9.63714 1.60713C9.50662 1.47757 9.33002 1.40509 9.14611 1.40559C8.20309 1.4012 7.26037 1.4012 6.31797 1.40559C6.13407 1.40634 5.95797 1.48001 5.82832 1.61045C5.69867 1.74089 5.62607 1.91744 5.62644 2.10135C5.62222 2.29443 5.63349 2.48845 5.62269 2.68106C5.61611 2.79616 5.65839 2.81261 5.7608 2.81214C6.41428 2.80979 7.07011 2.81261 7.72594 2.81261L7.72828 2.81214Z" fill="#C1C4C7"/>
<path id="Vector_2" d="M5.62318 11.1077C5.62318 12.2263 5.62553 13.3449 5.62318 14.4635C5.62318 14.9675 5.16278 15.3034 4.69769 15.1494C4.55782 15.1029 4.43621 15.0134 4.3503 14.8937C4.2644 14.774 4.21859 14.6301 4.21944 14.4827C4.21569 14.0491 4.21944 13.616 4.21944 13.1823C4.21944 11.3783 4.21944 9.57451 4.21944 7.77083C4.21944 7.46077 4.35005 7.22775 4.6338 7.09621C4.89782 6.97406 5.15057 7.01541 5.37278 7.19675C5.55788 7.34708 5.62741 7.55049 5.62694 7.7868C5.62177 8.89362 5.62318 10.0005 5.62318 11.1077Z" fill="#C1C4C7"/>
<path id="Vector_3" d="M8.43547 11.1082C8.43547 12.2268 8.43547 13.3453 8.43547 14.4639C8.43547 14.968 7.9746 15.3034 7.50998 15.1493C7.37007 15.1027 7.24848 15.013 7.16259 14.8931C7.0767 14.7732 7.0309 14.6292 7.03174 14.4817C7.02845 14.012 7.03174 13.545 7.03174 13.0761V7.77033C7.03174 7.46027 7.16233 7.22725 7.44656 7.09618C7.71105 6.97404 7.96333 7.01538 8.18554 7.19719C8.37016 7.34753 8.43969 7.55094 8.43875 7.78724C8.43468 8.89469 8.43359 10.0017 8.43547 11.1082Z" fill="#C1C4C7"/>
<path id="Vector_4" d="M11.2475 11.1279C11.2475 12.2408 11.2475 13.3537 11.2475 14.4662C11.2475 14.9698 10.7857 15.3052 10.3211 15.1507C10.1812 15.104 10.0598 15.0143 9.97404 14.8944C9.88831 14.7744 9.8427 14.6305 9.84375 14.4831C9.84046 13.9795 9.84375 13.4759 9.84375 12.9722V7.77168C9.84375 7.46162 9.97482 7.2286 10.259 7.09752C10.5235 6.97585 10.7758 7.01767 10.9975 7.19901C11.1826 7.34981 11.2512 7.55322 11.2508 7.78999C11.247 8.9012 11.2459 10.0138 11.2475 11.1279Z" fill="#C1C4C7"/>
</g>
<defs>
<clipPath id="clip0_269_4722">
<rect width="15.466" height="18" fill="white"/>
</clipPath>
</defs>
</svg>
