<svg width="18" height="20" viewBox="0 0 18 20" fill="none" xmlns="http://www.w3.org/2000/svg">
<g id="Layer_1" clip-path="url(#clip0_58_11326)">
<path id="Vector" d="M10.4662 -9.04419e-06C10.5429 0.0688935 10.6452 0.049587 10.734 0.0725545C11.2286 0.201137 11.668 0.487085 11.9859 0.887257C12.3037 1.28743 12.4829 1.78012 12.4962 2.29101C12.4993 2.50607 12.5056 2.72113 12.4962 2.93515C12.4879 3.0813 12.5223 3.12985 12.6815 3.1288C13.9183 3.12115 15.1549 3.12027 16.3913 3.12619C16.9415 3.12619 17.31 3.63147 17.1471 4.14354C17.0995 4.29329 17.0077 4.42515 16.8838 4.52183C16.7599 4.61852 16.6097 4.67551 16.4529 4.68536C16.3819 4.68954 16.3099 4.68536 16.2384 4.68536C11.9361 4.68536 7.63388 4.68398 3.33165 4.6812C3.16253 4.6812 3.12286 4.71773 3.12286 4.88999C3.12877 8.59402 3.13034 12.2979 3.12756 16.0016C3.12756 17.4182 4.14387 18.434 5.56211 18.4346H11.5958C13.0573 18.4346 14.0627 17.4313 14.0627 15.9755C14.0627 13.0137 14.0627 10.0519 14.0627 7.09017C14.0627 6.59845 14.3895 6.24873 14.8425 6.24821C15.0397 6.24841 15.2295 6.32296 15.374 6.45698C15.5186 6.59099 15.6073 6.77461 15.6224 6.97115C15.6255 7.01657 15.6224 7.06251 15.6224 7.10792C15.6224 10.0888 15.6224 13.0701 15.6224 16.0517C15.6224 17.9199 14.3962 19.4655 12.5818 19.8982C12.291 19.9663 11.9931 19.9996 11.6944 19.9974C9.63101 19.9974 7.57072 20.0005 5.50469 19.9974C3.28885 19.9932 1.56733 18.2639 1.56577 16.0428C1.56333 12.3262 1.56455 8.60951 1.56942 4.8926C1.56942 4.72191 1.53236 4.6671 1.36062 4.68381C1.17221 4.69503 0.98332 4.69607 0.794789 4.68693C0.348489 4.6791 0.00815136 4.34504 0.00449744 3.91387C0.0028023 3.80979 0.0220645 3.70641 0.0611344 3.60992C0.100204 3.51343 0.158282 3.42578 0.231918 3.35219C0.305554 3.2786 0.393243 3.22058 0.489762 3.18157C0.58628 3.14257 0.689657 3.12338 0.793744 3.12514C2.03034 3.12201 3.26693 3.12045 4.50352 3.12828C4.66325 3.12828 4.69091 3.07974 4.68935 2.93462C4.68465 2.49406 4.64811 2.04723 4.80158 1.62025C5.10903 0.761053 5.7114 0.23593 6.60139 0.0391401C6.63115 0.0328762 6.66769 0.0428063 6.6776 -0.000518799L10.4662 -9.04419e-06ZM8.58704 3.12462C9.31782 3.12462 10.0444 3.12462 10.7731 3.12462C10.8864 3.12462 10.9511 3.11732 10.9412 2.97377C10.9266 2.75976 10.9412 2.54417 10.936 2.32963C10.935 2.12529 10.853 1.92968 10.708 1.78573C10.563 1.64177 10.3667 1.56123 10.1624 1.56179C9.1146 1.55692 8.06713 1.55692 7.02002 1.56179C6.81568 1.56262 6.62002 1.64448 6.47596 1.78941C6.33191 1.93434 6.25124 2.13051 6.25166 2.33486C6.24696 2.5494 6.25949 2.76497 6.24748 2.97898C6.24018 3.10687 6.28715 3.12514 6.40095 3.12462C7.12703 3.12201 7.85573 3.12514 8.58443 3.12514L8.58704 3.12462Z" fill="#C1C4C7"/>
<path id="Vector_2" d="M6.24808 12.3419C6.24808 13.5847 6.25069 14.8276 6.24808 16.0705C6.24808 16.6305 5.73654 17.0038 5.21977 16.8326C5.06435 16.781 4.92923 16.6816 4.83378 16.5485C4.73833 16.4155 4.68743 16.2556 4.68838 16.0919C4.6842 15.6101 4.68838 15.1288 4.68838 14.647C4.68838 12.6426 4.68838 10.6383 4.68838 8.63421C4.68838 8.28969 4.83349 8.03078 5.14877 7.88462C5.44213 7.74891 5.72296 7.79485 5.96986 7.99634C6.17553 8.16337 6.25278 8.38938 6.25226 8.65194C6.24652 9.88175 6.24808 11.1116 6.24808 12.3419Z" fill="#C1C4C7"/>
<path id="Vector_3" d="M9.37285 12.3424C9.37285 13.5853 9.37285 14.8281 9.37285 16.071C9.37285 16.6311 8.86078 17.0038 8.34453 16.8326C8.18907 16.7807 8.05398 16.6811 7.95854 16.5479C7.86311 16.4147 7.81222 16.2547 7.81315 16.0908C7.80949 15.5688 7.81315 15.05 7.81315 14.529V8.63368C7.81315 8.28917 7.95826 8.03026 8.27406 7.88462C8.56794 7.74891 8.84825 7.79485 9.09515 7.99686C9.30029 8.1639 9.37755 8.38991 9.3765 8.65247C9.37198 9.88297 9.37076 11.113 9.37285 12.3424Z" fill="#C1C4C7"/>
<path id="Vector_4" d="M12.4974 12.3643C12.4974 13.6009 12.4974 14.8375 12.4974 16.0736C12.4974 16.6332 11.9842 17.0059 11.468 16.8341C11.3127 16.7822 11.1777 16.6826 11.0824 16.5493C10.9872 16.4161 10.9365 16.2562 10.9377 16.0924C10.934 15.5328 10.9377 14.9732 10.9377 14.4137V8.63525C10.9377 8.29074 11.0833 8.03182 11.3991 7.88619C11.693 7.75099 11.9733 7.79746 12.2197 7.99895C12.4253 8.1665 12.5015 8.39252 12.501 8.6556C12.4968 9.89028 12.4956 11.1265 12.4974 12.3643Z" fill="#C1C4C7"/>
</g>
<defs>
<clipPath id="clip0_58_11326">
<rect width="17.1844" height="20" fill="white"/>
</clipPath>
</defs>
</svg>
