<svg width="13" height="15" viewBox="0 0 13 15" fill="none" xmlns="http://www.w3.org/2000/svg">
<g id="Layer_1" clip-path="url(#clip0_283_4670)">
<path id="Vector" d="M7.84977 -0.000105965C7.90732 0.0515709 7.98405 0.0370911 8.0506 0.0543167C8.42157 0.150753 8.75112 0.365214 8.98952 0.665344C9.22793 0.965473 9.36227 1.33499 9.37228 1.71816C9.37463 1.87945 9.37933 2.04075 9.37228 2.20126C9.36602 2.31088 9.39186 2.34728 9.51126 2.3465C10.4388 2.34076 11.3663 2.34011 12.2936 2.34454C12.7062 2.34454 12.9826 2.72351 12.8605 3.10756C12.8247 3.21987 12.7559 3.31876 12.663 3.39128C12.5701 3.46379 12.4574 3.50653 12.3398 3.51392C12.2865 3.51705 12.2325 3.51392 12.1789 3.51392C8.95221 3.51392 5.72554 3.51289 2.49886 3.5108C2.37202 3.5108 2.34227 3.5382 2.34227 3.66739C2.3467 6.44542 2.34788 9.22331 2.34579 12.0011C2.34579 13.0636 3.10802 13.8254 4.17171 13.8258H8.69696C9.79313 13.8258 10.5471 13.0734 10.5471 11.9815C10.5471 9.76017 10.5471 7.53885 10.5471 5.31753C10.5471 4.94874 10.7922 4.68645 11.132 4.68606C11.2799 4.68621 11.4222 4.74212 11.5306 4.84263C11.6391 4.94314 11.7056 5.08086 11.7169 5.22827C11.7193 5.26233 11.7169 5.29678 11.7169 5.33084C11.7169 7.56652 11.7169 9.80245 11.7169 12.0387C11.7169 13.4398 10.7973 14.599 9.43649 14.9236C9.21837 14.9746 8.99496 14.9996 8.77095 14.9979C7.22338 14.9979 5.67817 15.0003 4.12864 14.9979C2.46676 14.9948 1.17562 13.6978 1.17445 12.032C1.17262 9.24458 1.17353 6.45703 1.17719 3.66935C1.17719 3.54134 1.14939 3.50023 1.02059 3.51276C0.879276 3.52117 0.737612 3.52195 0.596214 3.5151C0.261489 3.50923 0.00623559 3.25868 0.00349515 2.93531C0.00222379 2.85724 0.0166705 2.77971 0.0459728 2.70734C0.0752752 2.63497 0.118834 2.56923 0.174061 2.51404C0.229288 2.45885 0.295054 2.41534 0.367443 2.38608C0.439832 2.35683 0.517365 2.34244 0.59543 2.34376C1.52287 2.34141 2.45032 2.34024 3.37776 2.34611C3.49756 2.34611 3.51831 2.3097 3.51713 2.20087C3.51361 1.87045 3.48621 1.53533 3.6013 1.21509C3.83189 0.57069 4.28367 0.176848 4.95117 0.0292559C4.97348 0.024558 5.00089 0.0320055 5.00832 -0.000488281L7.84977 -0.000105965ZM6.4404 2.34337C6.98849 2.34337 7.53344 2.34337 8.07997 2.34337C8.16492 2.34337 8.21346 2.33789 8.20603 2.23023C8.19506 2.06972 8.20603 1.90803 8.20211 1.74713C8.20139 1.59387 8.13989 1.44716 8.03112 1.33919C7.92234 1.23123 7.77518 1.17083 7.62192 1.17124C6.83607 1.16759 6.05047 1.16759 5.26514 1.17124C5.11188 1.17187 4.96513 1.23326 4.85709 1.34196C4.74906 1.45066 4.68855 1.59779 4.68887 1.75104C4.68534 1.91195 4.69474 2.07363 4.68574 2.23414C4.68025 2.33005 4.71549 2.34376 4.80083 2.34337C5.3454 2.34141 5.89192 2.34376 6.43844 2.34376L6.4404 2.34337Z" fill="#787878"/>
<path id="Vector_2" d="M4.68606 9.25652C4.68606 10.1887 4.68802 11.1208 4.68606 12.0529C4.68606 12.473 4.3024 12.7529 3.91483 12.6245C3.79826 12.5858 3.69693 12.5113 3.62534 12.4115C3.55375 12.3117 3.51557 12.1918 3.51628 12.069C3.51315 11.7076 3.51628 11.3467 3.51628 10.9853C3.51628 9.48201 3.51628 7.97882 3.51628 6.47575C3.51628 6.21737 3.62512 6.02318 3.86158 5.91357C4.0816 5.81178 4.29222 5.84624 4.4774 5.99735C4.63165 6.12263 4.68959 6.29214 4.68919 6.48906C4.68489 7.41141 4.68606 8.33377 4.68606 9.25652Z" fill="#787878"/>
<path id="Vector_3" d="M7.02964 9.25689C7.02964 10.189 7.02964 11.1212 7.02964 12.0533C7.02964 12.4734 6.64558 12.7529 6.2584 12.6245C6.1418 12.5856 6.04048 12.5109 5.96891 12.411C5.89733 12.3111 5.85916 12.1911 5.85986 12.0682C5.85712 11.6767 5.85986 11.2876 5.85986 10.8968V6.47534C5.85986 6.21695 5.96869 6.02277 6.20555 5.91354C6.42596 5.81176 6.63619 5.84621 6.82136 5.99772C6.97522 6.123 7.03316 6.29251 7.03238 6.48943C7.02898 7.4123 7.02807 8.3348 7.02964 9.25689Z" fill="#787878"/>
<path id="Vector_4" d="M9.37314 9.27321C9.37314 10.2007 9.37314 11.1281 9.37314 12.0552C9.37314 12.4748 8.98831 12.7543 8.60112 12.6255C8.48461 12.5866 8.38339 12.5119 8.31194 12.412C8.2405 12.312 8.20249 12.1921 8.20337 12.0692C8.20063 11.6496 8.20337 11.2299 8.20337 10.8102V6.4764C8.20337 6.21801 8.31259 6.02383 8.54944 5.9146C8.76985 5.81321 8.98008 5.84806 9.16487 5.99917C9.31911 6.12484 9.37627 6.29435 9.37588 6.49166C9.37275 7.41767 9.37184 8.34485 9.37314 9.27321Z" fill="#787878"/>
</g>
<defs>
<clipPath id="clip0_283_4670">
<rect width="12.8883" height="15" fill="white"/>
</clipPath>
</defs>
</svg>
