<svg width="17" height="18" viewBox="0 0 17 18" fill="none" xmlns="http://www.w3.org/2000/svg">
<g id="Isolation_Mode" clip-path="url(#clip0_112_5646)">
<path id="Vector" d="M7.73414 18C7.72874 17.9906 7.72383 17.9737 7.71696 17.9723C7.20263 17.8889 6.80117 17.6 6.39432 17.3158C4.57649 16.0548 2.75735 14.7938 0.936899 13.5331C0.039271 12.9094 -0.257156 11.8154 0.241963 10.878C0.652741 10.1081 1.3359 9.70573 2.24383 9.70573C5.64065 9.69979 9.03764 9.69885 12.4348 9.70291C12.9437 9.70291 13.4527 9.70291 13.9616 9.70291C14.9505 9.70291 15.7878 10.2816 16.0911 11.1669C16.3899 12.0381 16.067 12.9783 15.2695 13.5321C13.3372 14.8736 11.4037 16.2136 9.46903 17.5522C9.15738 17.7684 8.82218 17.9273 8.433 17.9681C8.41975 17.9681 8.40895 17.9888 8.39717 17.9995L7.73414 18ZM8.11105 11.1101H3.36673C2.97411 11.1101 2.58149 11.1022 2.18887 11.113C2.06302 11.1171 1.94039 11.152 1.8327 11.2144C1.725 11.2767 1.63585 11.3644 1.57377 11.4691C1.51168 11.5738 1.47873 11.6919 1.47807 11.8122C1.47741 11.9326 1.50906 12.051 1.57 12.1563C1.64475 12.2711 1.74535 12.3685 1.86447 12.4414C3.77293 13.7628 5.68155 15.0847 7.59034 16.4071C7.93388 16.6453 8.24012 16.665 8.5552 16.4469C10.5095 15.0961 12.4626 13.7431 14.4146 12.388C14.5408 12.3033 14.6358 12.1827 14.686 12.0433C14.8572 11.5678 14.4941 11.1111 13.9405 11.1106C11.9977 11.1103 10.0545 11.1101 8.11105 11.1101Z" fill="#C1C4C7"/>
<path id="Vector_2" d="M8.39667 2.93204e-06C8.49482 0.0633073 8.61359 0.0468998 8.72107 0.0811311C8.97806 0.158885 9.22032 0.275568 9.43858 0.426726C11.387 1.77675 13.3398 3.12114 15.2822 4.47914C15.9693 4.95978 16.2844 5.63175 16.1779 6.43876C16.066 7.28844 15.5576 7.86991 14.7174 8.17377C14.4872 8.2559 14.2431 8.29691 13.9974 8.29475C10.0673 8.29475 6.13697 8.29475 2.20652 8.29475C1.744 8.2924 1.29392 8.15136 0.919787 7.89153C0.54565 7.6317 0.266333 7.2662 0.121241 6.84658C-0.0238504 6.42695 -0.0273937 5.97439 0.111111 5.55274C0.249615 5.13109 0.523176 4.76164 0.893203 4.49649C2.86219 3.12317 4.83511 1.75549 6.81195 0.393428C7.05688 0.226703 7.33393 0.107973 7.62713 0.0440845C7.66443 0.0356439 7.71842 0.0525251 7.73412 -0.00280762L8.39667 2.93204e-06ZM8.08355 6.88986C10.0139 6.88986 11.9443 6.88986 13.8747 6.88986C13.9604 6.89401 14.0463 6.88913 14.1309 6.87532C14.4401 6.80827 14.6437 6.62492 14.708 6.32809C14.7723 6.03127 14.6629 5.78555 14.4052 5.60689C12.4578 4.25671 10.5096 2.90732 8.56059 1.5587C8.24993 1.34394 7.94516 1.35003 7.62811 1.56855C7.06127 1.95775 6.49933 2.35118 5.93248 2.74085C4.5642 3.68869 3.19576 4.63623 1.82715 5.58345C1.62642 5.72412 1.49784 5.89669 1.48361 6.13443C1.45269 6.56678 1.78985 6.88798 2.27523 6.88798C4.21085 6.88923 6.14695 6.88986 8.08355 6.88986Z" fill="#C1C4C7"/>
</g>
<defs>
<clipPath id="clip0_112_5646">
<rect width="16.2" height="18" fill="white"/>
</clipPath>
</defs>
</svg>
