<svg width="20" height="20" viewBox="0 0 20 20" fill="none" xmlns="http://www.w3.org/2000/svg">
<g id="Layer_1" clip-path="url(#clip0_58_11331)">
<path id="Vector" d="M11.6814 -0.000170332C11.7081 0.0650715 11.778 0.0520338 11.8265 0.0760428C11.9807 0.15172 12.1056 0.27595 12.1822 0.429623C12.2588 0.583295 12.2827 0.757883 12.2503 0.926492C12.2179 1.0951 12.131 1.24839 12.0029 1.36275C11.8749 1.4771 11.7128 1.54619 11.5416 1.55938C11.4706 1.5646 11.3986 1.55938 11.3271 1.55938H4.00536C2.57682 1.55938 1.56584 2.57349 1.56584 4.00672V15.995C1.56584 17.4131 2.581 18.4309 3.997 18.4309H16.0051C17.4222 18.4309 18.4374 17.4142 18.4374 15.9961C18.4374 13.5162 18.4374 11.0365 18.4374 8.55695C18.4374 8.20413 18.5845 7.94002 18.9108 7.79649C19.214 7.66288 19.4943 7.72289 19.7458 7.93375C19.8784 8.04493 19.9348 8.20255 20 8.35496V16.5958C19.927 16.648 19.9478 16.7357 19.9327 16.8046C19.5814 18.6439 17.9979 19.9852 16.1268 19.9884C12.039 19.9967 7.95136 19.9967 3.86391 19.9884C1.74799 19.9826 0.0125601 18.2461 0.00734073 16.1323C-0.00309795 12.0383 -0.00309795 7.94402 0.00734073 3.84962C0.0109943 2.13611 1.18482 0.619369 2.831 0.147019C3.03299 0.089084 3.24855 0.085958 3.44115 -0.0038147L11.6814 -0.000170332Z" fill="#C1C4C7"/>
<path id="Vector_2" d="M5.86605 15.931C5.50884 15.9245 5.15304 15.8843 4.80339 15.8109C4.46726 15.7384 4.24909 15.5223 4.18855 15.182C3.8232 13.136 4.32426 11.3197 5.77054 9.83062C7.76067 7.78098 9.80195 5.78197 11.8213 3.76104C12.6564 2.92333 13.4915 2.0799 14.3355 1.25002C16.05 -0.433218 18.893 0.286001 19.5491 2.57416C19.856 3.64308 19.6326 4.61859 18.9228 5.47926C18.8475 5.56883 18.7677 5.65453 18.6837 5.73604C15.9098 8.51099 13.1355 11.2863 10.3609 14.0619C9.43451 14.9904 8.34367 15.5995 7.0498 15.8365C6.65912 15.9056 6.26274 15.9372 5.86605 15.931ZM6.07482 14.3704C7.26118 14.3375 8.32227 13.8907 9.20017 13.0134C11.9974 10.2148 14.795 7.41684 17.5929 4.61962C17.6451 4.56743 17.6936 4.51836 17.7401 4.46304C17.9978 4.16118 18.1308 3.77239 18.1118 3.37591C18.0929 2.97942 17.9235 2.60508 17.6381 2.32917C17.3527 2.05326 16.9729 1.89654 16.576 1.89096C16.1791 1.88537 15.795 2.03133 15.502 2.2991C15.2452 2.53815 15.0046 2.79547 14.752 3.03974C14.6836 3.1055 14.6847 3.14411 14.752 3.20987C14.9086 3.35706 15.0594 3.50947 15.2081 3.66449C15.5213 3.99383 15.526 4.47818 15.2165 4.78404C14.907 5.08989 14.4378 5.08415 14.111 4.77517C13.9597 4.63216 13.8099 4.48705 13.6705 4.33255C13.5891 4.24226 13.5432 4.24644 13.4576 4.33255C11.2613 6.53512 9.0535 8.72672 6.86712 10.9387C6.0409 11.7738 5.64944 12.814 5.63587 13.9878C5.62857 14.4257 5.57272 14.3563 6.07169 14.3704H6.07482Z" fill="#C1C4C7"/>
</g>
<defs>
<clipPath id="clip0_58_11331">
<rect width="20" height="20" fill="white"/>
</clipPath>
</defs>
</svg>
