<svg width="17" height="17" viewBox="0 0 17 17" fill="none" xmlns="http://www.w3.org/2000/svg">
<g id="Layer_1" clip-path="url(#clip0_269_4727)">
<path id="Vector" d="M9.92916 -0.000320258C9.95178 0.0551353 10.0112 0.0440533 10.0525 0.0644609C10.1835 0.128787 10.2897 0.234382 10.3548 0.365004C10.4199 0.495625 10.4402 0.644025 10.4127 0.787343C10.3851 0.930661 10.3113 1.06095 10.2024 1.15816C10.0936 1.25536 9.95576 1.31409 9.81026 1.32529C9.74992 1.32973 9.6887 1.32529 9.62792 1.32529H3.40448C2.19023 1.32529 1.33089 2.18729 1.33089 3.40554V13.5956C1.33089 14.801 2.19377 15.6661 3.39738 15.6661H13.6043C14.8088 15.6661 15.6717 14.8019 15.6717 13.5965C15.6717 11.4886 15.6717 9.38084 15.6717 7.27323C15.6717 6.97333 15.7968 6.74884 16.0741 6.62684C16.3318 6.51327 16.5701 6.56428 16.7839 6.74352C16.8966 6.83801 16.9445 6.97199 17 7.10154V14.1062C16.9378 14.1506 16.9556 14.2251 16.9427 14.2837C16.6442 15.8471 15.2981 16.9873 13.7077 16.9899C10.233 16.997 6.75858 16.997 3.28425 16.9899C1.48572 16.985 0.0106028 15.5091 0.00616638 13.7123C-0.0027065 10.2323 -0.0027065 6.75224 0.00616638 3.272C0.00927189 1.81552 1.00703 0.526288 2.40628 0.12479C2.57797 0.0755459 2.7612 0.0728888 2.9249 -0.00341797L9.92916 -0.000320258Z" fill="#C1C4C7"/>
<path id="Vector_2" d="M4.98587 13.5414C4.68224 13.5359 4.37981 13.5017 4.08261 13.4393C3.79691 13.3777 3.61146 13.194 3.56 12.9047C3.24945 11.1656 3.67535 9.62177 4.90469 8.35606C6.5963 6.61387 8.33139 4.91471 10.0479 3.19692C10.7577 2.48487 11.4675 1.76795 12.1849 1.06255C13.6423 -0.3682 16.0588 0.243136 16.6164 2.18807C16.8773 3.09666 16.6874 3.92583 16.0841 4.6574C16.0201 4.73354 15.9523 4.80639 15.8809 4.87567C13.5231 7.23438 11.1649 9.59337 8.80654 11.9527C8.01907 12.7419 7.09185 13.2596 5.99206 13.4611C5.65998 13.5198 5.32306 13.5467 4.98587 13.5414ZM5.16333 12.2149C6.17173 12.1869 7.07366 11.8072 7.81987 11.0614C10.1975 8.68258 12.5754 6.30435 14.9537 3.92671C14.998 3.88235 15.0393 3.84064 15.0788 3.79362C15.2979 3.53703 15.4109 3.20657 15.3948 2.86956C15.3787 2.53255 15.2347 2.21436 14.9921 1.97983C14.7496 1.74531 14.4267 1.6121 14.0893 1.60735C13.752 1.6026 13.4255 1.72667 13.1764 1.95427C12.9582 2.15746 12.7536 2.37618 12.5389 2.58381C12.4808 2.63971 12.4817 2.67253 12.5389 2.72843C12.672 2.85354 12.8002 2.98309 12.9267 3.11485C13.1928 3.39479 13.1968 3.80649 12.9338 4.06647C12.6707 4.32644 12.2718 4.32156 11.9941 4.05893C11.8655 3.93737 11.7381 3.81403 11.6197 3.68271C11.5505 3.60596 11.5114 3.60951 11.4387 3.68271C9.57182 5.55488 7.69521 7.41775 5.83678 9.29791C5.1345 10.0077 4.80176 10.8919 4.79022 11.8897C4.78401 12.2619 4.73654 12.2029 5.16067 12.2149H5.16333Z" fill="#C1C4C7"/>
</g>
<defs>
<clipPath id="clip0_269_4727">
<rect width="17" height="17" fill="white"/>
</clipPath>
</defs>
</svg>
