<svg width="25" height="25" viewBox="0 0 25 25" fill="none" xmlns="http://www.w3.org/2000/svg">
<g id="Layer_1" clip-path="url(#clip0_719_423)">
<path id="Vector" d="M12.0162 24.9941C11.8016 24.8636 11.5446 24.8545 11.3202 24.7462C10.9675 24.5792 10.6471 24.3513 10.3736 24.073C7.21503 20.8505 4.05709 17.6273 0.899797 14.4035C-0.312237 13.1641 -0.295929 11.4028 0.925238 10.1777C2.1862 8.9089 3.45564 7.64793 4.71855 6.38175C5.00406 6.0859 5.34751 5.85211 5.72744 5.69497C6.10737 5.53784 6.51563 5.46073 6.9267 5.46849C10.6424 5.4711 14.3583 5.4711 18.0744 5.46849C18.9394 5.46849 19.6739 5.7627 20.2852 6.37524C21.5542 7.64816 22.8247 8.9189 24.0968 10.1875C24.5448 10.6185 24.8439 11.181 24.9507 11.7935C24.9565 11.8268 24.9604 11.8587 24.9996 11.864V12.7916C24.9154 12.8183 24.9389 12.9012 24.9265 12.9553C24.7969 13.5041 24.5157 14.0054 24.115 14.4022L14.6197 24.09C14.2622 24.4604 13.816 24.7332 13.3235 24.8826C13.1819 24.9256 13.0267 24.9171 12.8949 24.9967L12.0162 24.9941ZM12.5015 7.42224C10.6393 7.42224 8.77693 7.42224 6.91431 7.42224C6.77197 7.416 6.62988 7.43926 6.49696 7.49056C6.36405 7.54186 6.24317 7.62009 6.14194 7.72034C4.84685 9.0137 3.55327 10.3079 2.26122 11.603C1.8522 12.0153 1.85612 12.5757 2.25339 13.0003C2.45365 13.2143 2.66305 13.4191 2.86789 13.6279C5.80425 16.6243 8.74084 19.6211 11.6776 22.6183C11.8264 22.7703 11.9758 22.9203 12.1845 22.9869C12.6561 23.1389 13.011 22.951 13.3372 22.617C16.4471 19.4362 19.5598 16.2583 22.6753 13.0832C23.1763 12.5718 23.1789 12.0297 22.6753 11.5261C21.4346 10.2827 20.1932 9.03981 18.9511 7.79733C18.8343 7.67332 18.6925 7.57542 18.5351 7.5101C18.3777 7.44478 18.2082 7.41351 18.0379 7.41832C16.1937 7.42615 14.3476 7.42224 12.5015 7.42224Z" fill="#787878"/>
<path id="Vector_2" d="M7.68033 0.00195312C7.84539 0.00667506 8.00608 0.0560475 8.1453 0.144842C8.28453 0.233637 8.39707 0.358529 8.47096 0.506205C8.81669 1.17419 9.15656 1.84609 9.48011 2.52517C9.59021 2.75451 9.60501 3.0181 9.52127 3.25831C9.43753 3.49853 9.26207 3.69581 9.03327 3.807C8.80565 3.92233 8.54155 3.94261 8.299 3.86335C8.05645 3.78409 7.85528 3.61178 7.73969 3.38429C7.39591 2.72413 7.05996 2.05941 6.74488 1.3849C6.43829 0.73452 6.90666 0.00847645 7.68033 0.00195312Z" fill="#787878"/>
<path id="Vector_3" d="M16.4653 3.90815C15.7158 3.90358 15.2259 3.19906 15.509 2.57217C15.8286 1.86504 16.1841 1.17292 16.5527 0.48797C16.6714 0.271201 16.8702 0.10952 17.1067 0.0375803C17.3431 -0.0343594 17.5983 -0.0108452 17.8176 0.103084C18.2742 0.328791 18.5045 0.872197 18.2879 1.33861C17.9578 2.05031 17.6017 2.75092 17.2344 3.44435C17.1594 3.58341 17.0485 3.69981 16.9133 3.78139C16.778 3.86297 16.6233 3.90674 16.4653 3.90815Z" fill="#787878"/>
<path id="Vector_4" d="M13.4796 1.9531C13.4796 2.27926 13.4848 2.60542 13.4796 2.92833C13.4833 3.05846 13.4608 3.18802 13.4136 3.30935C13.3664 3.43067 13.2954 3.5413 13.2048 3.63475C13.1141 3.72819 13.0057 3.80255 12.8859 3.85343C12.766 3.9043 12.6372 3.93067 12.507 3.93097C12.3769 3.93128 12.2479 3.90551 12.1279 3.8552C12.0078 3.80488 11.899 3.73105 11.8079 3.63803C11.7169 3.54501 11.6453 3.4347 11.5976 3.3136C11.5498 3.19249 11.5267 3.06305 11.5298 2.9329C11.5233 2.28057 11.5233 1.63042 11.5298 0.982432C11.5295 0.854447 11.5544 0.727656 11.6031 0.609299C11.6518 0.490942 11.7233 0.383335 11.8136 0.292625C11.996 0.109426 12.2436 0.00616241 12.5021 0.00555688C12.7606 0.00495134 13.0087 0.10705 13.1919 0.289392C13.3751 0.471734 13.4784 0.719385 13.479 0.977861C13.4848 1.30272 13.4796 1.62823 13.4796 1.9531Z" fill="#787878"/>
<path id="Vector_5" d="M10.155 11.3206H14.8518C14.78 11.0981 14.7096 10.8855 14.6437 10.6682C14.4786 10.1314 14.737 9.59775 15.2438 9.42489C15.7657 9.24745 16.3019 9.51425 16.4944 10.0544C16.6163 10.3975 16.7416 10.7413 16.8349 11.0936C16.8877 11.2925 16.9823 11.331 17.1721 11.329C18.1232 11.3186 19.0743 11.3232 20.0261 11.3245C20.6575 11.3245 21.0972 11.7322 21.0933 12.3082C21.0894 12.8738 20.6517 13.2756 20.0346 13.2763C19.0665 13.2763 18.0991 13.2815 17.1317 13.2723C16.9673 13.2723 16.8968 13.3147 16.8447 13.4759C16.4383 14.7238 16.0214 15.9691 15.6052 17.2131C15.4617 17.6391 15.1336 17.8967 14.7331 17.915C14.3097 17.9339 13.9933 17.7519 13.7963 17.3801C13.6606 17.1231 13.6658 16.855 13.7598 16.5784C14.1179 15.5183 14.4676 14.4557 14.8198 13.3943C14.8296 13.3643 14.8381 13.3343 14.8511 13.2893H10.1543C10.4596 14.2071 10.761 15.1158 11.0617 16.0193C11.127 16.2111 11.1922 16.4029 11.2529 16.596C11.4323 17.1629 11.1752 17.6958 10.6416 17.87C10.1198 18.0409 9.5979 17.7728 9.40741 17.2177C8.98644 15.9734 8.57178 14.7277 8.16342 13.4804C8.11253 13.3258 8.05187 13.2691 7.88096 13.271C6.91355 13.2815 5.94548 13.2769 4.97808 13.2756C4.34857 13.2756 3.90825 12.8653 3.91412 12.2886C3.91934 11.7237 4.35705 11.3245 4.97547 11.3238C5.95396 11.3238 6.92725 11.3199 7.90314 11.3277C8.04991 11.3277 8.11449 11.2827 8.15624 11.1451C8.26453 10.7883 8.38325 10.4347 8.50459 10.0824C8.70029 9.52209 9.22868 9.24484 9.75772 9.42293C10.275 9.5971 10.5307 10.1327 10.3592 10.6865C10.2952 10.8972 10.2254 11.1027 10.155 11.3206Z" fill="#787878"/>
</g>
<defs>
<clipPath id="clip0_719_423">
<rect width="25" height="24.9941" fill="white"/>
</clipPath>
</defs>
</svg>
