<svg width="20" height="18" viewBox="0 0 20 18" fill="none" xmlns="http://www.w3.org/2000/svg">
<g id="Isolation_Mode" clip-path="url(#clip0_553_3086)">
<path id="Vector" d="M0.000132949 4.96207C0.0887046 4.84328 0.0746404 4.69531 0.107464 4.56141C0.3109 3.71347 0.792114 2.95793 1.47453 2.41506C2.15694 1.87218 3.00133 1.57317 3.87331 1.56561C4.86323 1.55831 5.85315 1.56248 6.84307 1.56561C7.31198 1.56561 7.66106 1.90635 7.65689 2.35389C7.65324 2.79258 7.30885 3.12551 6.84672 3.12655C5.88962 3.12916 4.93306 3.12655 3.97596 3.12655C2.58539 3.12655 1.56525 4.15086 1.56421 5.54352C1.56421 6.33753 1.56421 7.13103 1.56421 7.89119C2.87454 7.73905 4.1828 7.79792 5.4848 7.83283C6.4096 7.85784 7.07336 8.3851 7.46099 9.23122C7.51309 9.34272 7.5652 9.37971 7.68711 9.37919C9.23034 9.37467 10.7734 9.37467 12.3163 9.37919C12.4382 9.37919 12.4908 9.34272 12.5429 9.23174C12.9649 8.32987 13.6782 7.84065 14.6744 7.81876C15.6705 7.79688 16.6667 7.8146 17.6624 7.81356C17.9278 7.81999 18.1909 7.8642 18.4439 7.94485C18.4095 6.97577 18.5132 6.02233 18.3918 5.0793C18.2553 3.99508 17.257 3.1427 16.1592 3.13072C15.1506 3.11978 14.1414 3.13072 13.1322 3.12603C12.5424 3.12238 12.1699 2.53833 12.4179 2.01524C12.5523 1.73181 12.7852 1.5703 13.0952 1.56873C14.1633 1.56144 15.2313 1.54112 16.2983 1.57446C18.1276 1.63178 19.6782 3.06299 19.9564 4.90893C19.9616 4.94331 19.9423 4.9902 19.9965 5.00479V13.7901C19.9235 13.8422 19.9444 13.9302 19.9293 13.9985C19.5792 15.8303 18.0015 17.1766 16.1452 17.1829C12.0466 17.1926 7.94796 17.1926 3.84935 17.1829C2.0701 17.1792 0.523749 15.9236 0.105378 14.1897C0.0730753 14.0558 0.0876605 13.9078 -0.00195312 13.7885L0.000132949 4.96207ZM9.98528 15.6282C12.0172 15.6282 14.0492 15.6313 16.0785 15.6282C16.3882 15.63 16.6952 15.5705 16.9817 15.4531C17.2683 15.3356 17.5287 15.1626 17.748 14.9439C17.9673 14.7252 18.1411 14.4653 18.2594 14.1791C18.3777 13.8928 18.4381 13.586 18.4371 13.2763C18.4413 12.2546 18.4371 11.2324 18.4371 10.2107C18.4371 9.70638 18.1099 9.38075 17.6035 9.37711C16.6469 9.37711 15.69 9.37711 14.7327 9.37711C14.2451 9.37711 13.9288 9.68294 13.9033 10.1706C13.8798 10.6182 13.5563 10.9375 13.1077 10.9381C11.0309 10.9405 8.95438 10.9405 6.87798 10.9381C6.44033 10.9381 6.11522 10.6166 6.09125 10.1815C6.06364 9.67825 5.7526 9.37815 5.25243 9.37763C4.30837 9.37763 3.36446 9.37763 2.42074 9.37763C1.87837 9.37763 1.56055 9.69492 1.56003 10.2368C1.56003 11.2201 1.56003 12.2031 1.56003 13.1857C1.56003 14.6159 2.57392 15.6266 4.00878 15.6271L9.98528 15.6282Z" fill="white"/>
<path id="Vector_2" d="M9.2189 5.81811V5.5873C9.2189 3.99857 9.2189 2.41018 9.2189 0.822147C9.2189 0.249036 9.72689 -0.132343 10.25 0.040632C10.5782 0.150565 10.7798 0.443373 10.7804 0.822147C10.7804 2.40393 10.7804 3.98589 10.7804 5.56802V5.81602C11.1341 5.49925 11.4577 5.21165 11.7786 4.92249C11.9954 4.72712 12.2402 4.6349 12.5315 4.71409C13.1129 4.87039 13.3385 5.57584 12.9092 5.99421C12.4023 6.48865 11.8896 6.98413 11.3154 7.40094C10.4923 7.99802 9.3205 7.94696 8.53846 7.29674C8.05392 6.89295 7.58815 6.46312 7.12341 6.0385C6.97681 5.89912 6.89022 5.70815 6.88199 5.50604C6.87376 5.30393 6.94454 5.10655 7.07932 4.95572C7.2141 4.80488 7.40229 4.71244 7.60405 4.69797C7.80582 4.68351 8.00529 4.74815 8.16021 4.87821C8.50876 5.17258 8.84326 5.48258 9.2189 5.81811Z" fill="white"/>
<path id="Vector_3" d="M10.02 12.5022C10.5207 12.5022 11.0219 12.5022 11.5226 12.5022C11.9967 12.5022 12.3437 12.8362 12.3437 13.2837C12.3437 13.7313 11.9962 14.0652 11.5221 14.0652C10.5072 14.0673 9.49226 14.0673 8.47733 14.0652C8.00373 14.0652 7.65674 13.7302 7.65674 13.2837C7.65674 12.8372 8.00425 12.5053 8.47785 12.5022C8.99209 12.5022 9.50579 12.5022 10.02 12.5022Z" fill="white"/>
</g>
<defs>
<clipPath id="clip0_553_3086">
<rect width="20" height="17.1918" fill="white"/>
</clipPath>
</defs>
</svg>
