<svg width="15" height="18" viewBox="0 0 15 18" fill="none" xmlns="http://www.w3.org/2000/svg">
<g id="Isolation_Mode" clip-path="url(#clip0_804_3079)">
<path id="Vector" d="M9.69939 0.000976562C9.80086 0.066274 9.91781 0.0629764 10.0254 0.0972693C10.5395 0.256029 10.9943 0.604509 11.3203 1.08942C11.6463 1.57433 11.8256 2.16899 11.8307 2.78246C11.8368 3.95358 11.8335 5.12518 11.8307 6.29677C11.8307 6.72191 11.5658 7.03383 11.2166 7.03101C10.8673 7.02819 10.6122 6.71487 10.6118 6.28597C10.6118 5.16135 10.6118 4.03674 10.6118 2.91212C10.6118 1.99843 10.0996 1.40887 9.30777 1.40887C8.14418 1.40887 6.98073 1.40887 5.81742 1.40887C5.02603 1.40887 4.51337 2.0003 4.51337 2.91446C4.51337 4.04519 4.51541 5.17545 4.51337 6.30618C4.51337 6.81165 4.11727 7.14892 3.71343 6.99672C3.47707 6.90793 3.29817 6.65613 3.29735 6.3677C3.29369 5.12 3.27209 3.87137 3.3055 2.62508C3.33851 1.3957 4.16373 0.326521 5.20533 0.06862C5.26075 0.0549968 5.32758 0.0686127 5.36834 0.00237577L9.69939 0.000976562Z" fill="#787878"/>
<path id="Vector_2" d="M12.9907 9.84247C13.1655 10.9478 12.9149 11.9047 12.3073 12.7475C12.108 13.0247 11.8639 13.244 11.6047 13.4428C10.907 13.9764 10.2126 14.5152 9.51294 15.0451C9.47213 15.071 9.43881 15.1101 9.41708 15.1577C9.39535 15.2052 9.38618 15.259 9.39068 15.3124C9.39394 15.7559 9.4188 16.1998 9.27617 16.6306C9.0117 17.4292 8.34174 17.9858 7.60252 17.9962C7.18604 18.0018 6.76915 18.0009 6.35267 17.9962C6.27111 17.9983 6.19002 17.9814 6.11431 17.9463C6.0386 17.9113 5.96983 17.8589 5.91216 17.7924C5.8545 17.7259 5.80913 17.6466 5.7788 17.5593C5.74846 17.472 5.7338 17.3785 5.7357 17.2845C5.73244 16.6165 5.73244 15.9486 5.7357 15.2809C5.73885 15.2357 5.73056 15.1904 5.71183 15.1504C5.6931 15.1105 5.66473 15.0777 5.63015 15.0559C4.91238 14.5085 4.1953 13.9579 3.47889 13.4042C2.57666 12.704 2.10924 11.7259 2.07664 10.4701C2.0721 10.2942 2.09134 10.1186 2.13369 9.94956C2.15488 9.86595 2.13613 9.83777 2.05789 9.84059C1.88511 9.84716 1.71232 9.84294 1.53953 9.84059C1.13202 9.84059 0.854505 9.55309 0.85695 9.13218C0.859395 8.71878 1.13406 8.43457 1.53342 8.43457H7.60048C9.60762 8.43457 11.6148 8.43457 13.6219 8.43457C14.075 8.43457 14.3729 8.87757 14.2425 9.35109C14.2043 9.49144 14.1285 9.61423 14.026 9.7019C13.9235 9.78957 13.7996 9.83763 13.672 9.83919C13.4471 9.84623 13.2238 9.84247 12.9907 9.84247ZM7.5638 9.84247C6.32958 9.84247 5.09522 9.84247 3.86073 9.84247C3.50864 9.84247 3.28451 10.1004 3.29836 10.5034C3.32403 11.2461 3.61541 11.8188 4.15006 12.2312C4.95572 12.8508 5.75811 13.4766 6.57028 14.0859C6.83965 14.2883 6.96924 14.5397 6.95864 14.9136C6.94397 15.4303 6.95864 15.9442 6.95253 16.4596C6.95253 16.5686 6.97535 16.6005 7.06949 16.5939C7.22679 16.5841 7.3845 16.5939 7.5418 16.5911C7.91426 16.5864 8.171 16.29 8.17385 15.8597C8.17629 15.5262 8.18078 15.1921 8.17385 14.8586C8.16611 14.5354 8.27858 14.3043 8.5129 14.1263C9.35156 13.4899 10.1868 12.8479 11.0187 12.2002C11.5216 11.8084 11.793 11.2522 11.8309 10.556C11.8561 10.0994 11.6361 9.84387 11.2375 9.84387L7.5638 9.84247Z" fill="#787878"/>
<path id="Vector_3" d="M7.56476 4.21844C7.16866 4.21844 6.77255 4.21844 6.37645 4.21844C6.00643 4.21844 5.73543 3.91732 5.73584 3.5138C5.73625 3.11027 6.00684 2.81197 6.37645 2.80915C7.16866 2.80727 7.96086 2.80727 8.75307 2.80915C9.12309 2.80915 9.39368 3.10933 9.39368 3.5138C9.39368 3.91826 9.12309 4.21469 8.75307 4.21844C8.35697 4.21985 7.96086 4.21844 7.56476 4.21844Z" fill="#787878"/>
<path id="Vector_4" d="M7.56257 7.03057C7.17177 7.03057 6.78055 7.03057 6.38934 7.03057C6.00791 7.03057 5.73488 6.73274 5.73732 6.32592C5.73977 5.91911 6.01158 5.62645 6.39545 5.62598C7.17761 5.62598 7.95963 5.62598 8.74151 5.62598C9.12376 5.62598 9.39638 5.92287 9.39353 6.33062C9.39068 6.73838 9.11968 7.02962 8.7354 7.03103C8.34418 7.0315 7.95338 7.03057 7.56257 7.03057Z" fill="#787878"/>
</g>
<defs>
<clipPath id="clip0_804_3079">
<rect width="13.4161" height="18" fill="white" transform="translate(0.856934)"/>
</clipPath>
</defs>
</svg>
