<svg width="25" height="25" viewBox="0 0 25 25" fill="none" xmlns="http://www.w3.org/2000/svg">
<g id="Layer_1" clip-path="url(#clip0_719_404)">
<path id="Vector" d="M24.2679 25H0.686432C0.686432 24.9615 0.655115 24.9484 0.624448 24.9347C0.180746 24.7331 -0.000650749 24.384 1.75357e-06 23.9024C0.00478678 19.4027 0.00587348 14.9027 0.00326347 10.4025C0.00326347 8.71308 1.29457 7.4263 2.9852 7.42239C3.8067 7.42239 4.62886 7.41456 5.45036 7.42761C5.64219 7.42761 5.67156 7.37149 5.67025 7.19792C5.66307 5.8061 5.66568 4.41493 5.66634 3.0218C5.66634 1.28022 6.94263 -2.79739e-05 8.67959 -0.000680494C11.2265 -0.000680494 13.7733 -0.000680494 16.3198 -0.000680494C16.466 -0.00453502 16.6124 0.00244873 16.7576 0.0202046C18.3086 0.252502 19.3363 1.44726 19.3363 3.01722C19.3363 9.59245 19.3363 16.1675 19.3363 22.7423C19.3399 22.7911 19.3399 22.8402 19.3363 22.8891C19.3154 23.0228 19.3774 23.0476 19.4994 23.0476C20.6304 23.0428 21.7614 23.0428 22.8924 23.0476C23.0268 23.0476 23.0516 23.0033 23.0503 22.8819C23.0444 22.3364 23.0431 21.7915 23.0503 21.246C23.0503 21.1103 23.004 21.0849 22.8833 21.0888C22.6399 21.0966 22.3952 21.092 22.1512 21.0888C21.5346 21.0888 21.0967 20.6836 21.0941 20.1172C21.0915 19.5508 21.5287 19.1384 22.1381 19.1384C22.3906 19.1384 22.6432 19.1332 22.895 19.1384C23.0079 19.1423 23.049 19.1142 23.0477 18.9922C23.0412 18.4389 23.0386 17.8829 23.0477 17.3322C23.0477 17.1854 22.9825 17.1795 22.8755 17.1815C22.6066 17.186 22.3384 17.1874 22.0696 17.1815C21.9409 17.182 21.8134 17.157 21.6944 17.108C21.5755 17.059 21.4674 16.9869 21.3764 16.896C21.2854 16.805 21.2133 16.6969 21.1643 16.5779C21.1153 16.4589 21.0903 16.3314 21.0909 16.2027C21.0907 16.0743 21.1159 15.9471 21.1651 15.8285C21.2143 15.7099 21.2864 15.6022 21.3774 15.5116C21.4683 15.421 21.5763 15.3493 21.6951 15.3006C21.814 15.2519 21.9412 15.2272 22.0696 15.2278C22.338 15.2226 22.6064 15.2226 22.8748 15.2278C22.9857 15.2278 23.0497 15.2226 23.0471 15.0765C23.0373 14.5231 23.0399 13.9672 23.0471 13.4164C23.0471 13.2944 23.0066 13.2677 22.8937 13.2703C22.6092 13.2775 22.3241 13.2794 22.0396 13.2703C21.785 13.2635 21.5432 13.1572 21.366 12.9742C21.1887 12.7913 21.0902 12.5462 21.0915 12.2915C21.0946 12.0374 21.1969 11.7945 21.3766 11.6148C21.5563 11.435 21.7992 11.3327 22.0533 11.3297C22.3215 11.3232 22.591 11.3199 22.8585 11.3297C23.0033 11.3356 23.0595 11.3055 23.0503 11.1463C23.0347 10.8951 23.0503 10.6419 23.0458 10.39C23.0392 9.79952 22.6543 9.40345 22.0579 9.37278C21.4876 9.34407 21.0752 8.90949 21.0941 8.35811C21.0978 8.22952 21.1273 8.10297 21.1807 7.98593C21.2341 7.8689 21.3104 7.76374 21.4051 7.67666C21.4997 7.58957 21.6109 7.52234 21.732 7.47889C21.8531 7.43545 21.9816 7.41667 22.1101 7.42369C23.2846 7.46676 24.14 8.02401 24.6959 9.05499C24.8421 9.32514 24.878 9.63248 24.9987 9.91045V24.2659C24.9319 24.4307 24.8328 24.5806 24.7073 24.7066C24.5818 24.8327 24.4324 24.9324 24.2679 25ZM7.61928 12.8912C7.61928 16.202 7.61775 19.5131 7.61471 22.8245C7.61471 23.002 7.64864 23.0581 7.83721 23.0522C8.33246 23.0365 8.82967 23.0365 9.32557 23.0522C9.52132 23.0587 9.57874 23.0117 9.57744 22.8049C9.56765 21.2349 9.56243 19.6643 9.57744 18.0944C9.59049 16.5525 10.8929 15.2598 12.4321 15.2357C14.0993 15.2096 15.4278 16.5172 15.4337 18.1955C15.4337 19.7172 15.4389 21.2388 15.4284 22.7599C15.4284 22.983 15.4617 23.0666 15.7097 23.0542C16.1801 23.03 16.6532 23.0372 17.1243 23.0542C17.3246 23.06 17.3938 23.0268 17.3931 22.799C17.3853 16.2173 17.3831 9.63552 17.3866 3.05377C17.3866 2.34448 16.9951 1.95623 16.2852 1.95623H8.74224C7.99969 1.95623 7.62058 2.33599 7.62058 3.08248L7.61928 12.8912ZM5.66634 16.2275V12.8827C5.66634 11.776 5.66634 10.6693 5.66634 9.56266C5.66634 9.47326 5.70549 9.37017 5.53584 9.37213C4.64908 9.3793 3.76168 9.36559 2.87493 9.3806C2.37446 9.38908 1.97513 9.81062 1.95816 10.3144C1.94903 10.5989 1.96208 10.884 1.95294 11.1685C1.94903 11.2951 1.98426 11.3362 2.11411 11.3316C2.39012 11.3212 2.66743 11.3232 2.94409 11.3316C3.19913 11.3342 3.44298 11.4367 3.6232 11.6172C3.80343 11.7977 3.90563 12.0417 3.90784 12.2967C3.9093 12.4251 3.88538 12.5525 3.83745 12.6716C3.78951 12.7907 3.71851 12.8991 3.62853 12.9907C3.53854 13.0823 3.43135 13.1551 3.3131 13.2051C3.19486 13.2551 3.0679 13.2813 2.93953 13.282C2.67853 13.2879 2.41752 13.2905 2.15652 13.282C2.00971 13.2761 1.94446 13.3003 1.94903 13.4732C1.96208 14.0022 1.96208 14.5312 1.94903 15.0601C1.94903 15.222 2.00319 15.2461 2.14478 15.2409C2.40578 15.2304 2.66678 15.2344 2.92778 15.2409C3.05595 15.24 3.18302 15.2645 3.30169 15.313C3.42036 15.3614 3.52828 15.4328 3.61924 15.5231C3.71021 15.6134 3.78242 15.7208 3.83172 15.8391C3.88103 15.9574 3.90645 16.0843 3.90654 16.2125C3.90714 16.3409 3.88234 16.4682 3.83357 16.587C3.7848 16.7058 3.71302 16.8138 3.62236 16.9048C3.5317 16.9957 3.42395 17.0679 3.30531 17.1171C3.18667 17.1662 3.05947 17.1914 2.93104 17.1913C2.65504 17.1965 2.37772 17.1978 2.10171 17.1913C1.98426 17.188 1.95033 17.2232 1.95164 17.3407C1.95729 17.894 1.95729 18.4474 1.95164 19.0007C1.95164 19.1188 1.98491 19.1534 2.10171 19.1501C2.37837 19.1416 2.65504 19.143 2.9317 19.1501C3.06012 19.1499 3.18732 19.175 3.30597 19.2242C3.42461 19.2733 3.53235 19.3455 3.62298 19.4365C3.7136 19.5275 3.78532 19.6355 3.83399 19.7543C3.88265 19.8732 3.90731 20.0005 3.90654 20.1289C3.90654 20.6685 3.48045 21.0907 2.92778 21.1012C2.69223 21.1057 2.45472 21.1155 2.22047 21.1012C2.01819 21.0862 1.94054 21.1279 1.95098 21.3563C1.97317 21.8353 1.96795 22.3168 1.95098 22.7964C1.94446 22.9987 1.98165 23.0679 2.20742 23.0646C3.27295 23.0496 4.33914 23.0522 5.40468 23.0646C5.60826 23.0646 5.67286 23.032 5.67221 22.8075C5.66242 20.6059 5.66634 18.4167 5.66634 16.2275ZM13.4775 20.5341C13.4775 19.7452 13.4827 18.9563 13.4775 18.1674C13.4786 18.0386 13.454 17.9108 13.4053 17.7915C13.3565 17.6723 13.2844 17.5639 13.1933 17.4728C13.1022 17.3817 12.9938 17.3096 12.8746 17.2609C12.7553 17.2121 12.6275 17.1875 12.4987 17.1887C12.3704 17.1883 12.2433 17.2134 12.1247 17.2626C12.0062 17.3117 11.8986 17.3839 11.8081 17.475C11.7177 17.566 11.6462 17.6741 11.5979 17.793C11.5495 17.9118 11.5253 18.0391 11.5265 18.1674C11.5212 19.7374 11.5265 21.3074 11.5212 22.8767C11.5212 23.0176 11.5624 23.0515 11.6974 23.0496C12.2259 23.0418 12.7545 23.0391 13.283 23.0496C13.4455 23.0535 13.4827 23.0052 13.4788 22.8486C13.4735 22.0773 13.4781 21.3041 13.4775 20.5315V20.5341Z" fill="#787878"/>
<path id="Vector_2" d="M12.5012 5.66458C11.8663 5.66458 11.2321 5.66458 10.5978 5.66458C10.006 5.66458 9.5721 5.24567 9.57275 4.6858C9.57341 4.12594 10.0067 3.71159 10.5985 3.71094C11.8674 3.70833 13.1361 3.70833 14.4045 3.71094C14.9964 3.71094 15.4303 4.1279 15.4303 4.68646C15.4303 5.24501 14.9964 5.66002 14.4039 5.66524C13.7697 5.66654 13.1354 5.66458 12.5012 5.66458Z" fill="#787878"/>
<path id="Vector_3" d="M12.5266 7.61745C13.153 7.61745 13.7788 7.61745 14.4052 7.61745C14.997 7.61745 15.4303 8.03506 15.4303 8.59623C15.4303 9.15739 14.9957 9.5698 14.4032 9.5711C13.1348 9.57371 11.8661 9.57371 10.5972 9.5711C10.006 9.5711 9.5721 9.15219 9.57275 8.59232C9.57341 8.03246 10.0073 7.6194 10.5991 7.61745C11.2419 7.61549 11.8839 7.61745 12.5266 7.61745Z" fill="#787878"/>
<path id="Vector_4" d="M12.4764 13.4771C11.8506 13.4771 11.2242 13.4771 10.5978 13.4771C10.006 13.4739 9.5721 13.0582 9.57275 12.4983C9.57341 11.9385 10.0067 11.5241 10.5985 11.5228C11.8674 11.5228 13.1361 11.5228 14.4045 11.5228C14.9964 11.5228 15.4303 11.9404 15.4303 12.5016C15.4303 13.0628 14.9964 13.4745 14.4039 13.4804C13.7612 13.4791 13.1191 13.4771 12.4764 13.4771Z" fill="#787878"/>
</g>
<defs>
<clipPath id="clip0_719_404">
<rect width="25" height="25" fill="white"/>
</clipPath>
</defs>
</svg>
