<svg width="25" height="24" viewBox="0 0 25 24" fill="none" xmlns="http://www.w3.org/2000/svg">
<g id="Layer_1" clip-path="url(#clip0_719_442)">
<path id="Vector" d="M2.61934e-06 21.9784C0.105725 21.8479 0.0991991 21.6795 0.151408 21.5314C0.351148 20.9462 0.72999 20.4387 1.23424 20.0809C1.73849 19.7231 2.34257 19.533 2.96087 19.5377C6.36138 19.5342 9.76211 19.5342 13.1631 19.5377H13.4535C13.2388 18.9562 13.2864 18.3767 13.2851 17.8011C13.2851 16.7674 13.2851 15.7341 13.2851 14.7012C13.2851 13.0247 14.5746 11.7319 16.2473 11.726C17.532 11.7216 18.8174 11.7216 20.1035 11.726C20.4903 11.7242 20.8736 11.799 21.2314 11.9461C21.5891 12.0932 21.9142 12.3097 22.1878 12.5831C22.4614 12.8565 22.6782 13.1813 22.8257 13.539C22.9731 13.8966 23.0482 14.2798 23.0468 14.6666C23.052 15.9438 23.0468 17.2209 23.0468 18.4987C23.0531 18.8317 23.0003 19.1631 22.8908 19.4776C22.8399 19.6166 22.8758 19.6467 23.0056 19.6923C24.2045 20.1165 24.9922 21.2038 24.998 22.4248C24.998 22.9834 24.5954 23.422 24.0596 23.4403C23.5081 23.4585 23.0755 23.0487 23.0461 22.475C23.0154 21.8805 22.6187 21.4883 22.028 21.4883C15.676 21.4883 9.32182 21.4883 2.96544 21.4883C2.39702 21.4883 1.98654 21.8799 1.95195 22.4294C1.91736 22.9789 1.61455 23.3476 1.12901 23.4311C0.665011 23.5107 0.266269 23.2627 0.0443833 22.7589C0.0352468 22.7387 0.0137094 22.725 -0.00195312 22.708L2.61934e-06 21.9784ZM21.0942 16.6146C21.0942 15.962 21.0994 15.3134 21.0942 14.6627C21.0962 14.5343 21.0726 14.4068 21.0249 14.2875C20.9771 14.1683 20.9062 14.0597 20.8161 13.9682C20.7261 13.8766 20.6187 13.8039 20.5003 13.7541C20.3819 13.7044 20.2548 13.6787 20.1263 13.6786C19.8496 13.672 19.5729 13.6851 19.2969 13.6734C19.1585 13.6675 19.1377 13.7223 19.1403 13.8404C19.1477 14.1171 19.1477 14.3936 19.1403 14.6699C19.1367 14.9248 19.0332 15.1682 18.8521 15.3477C18.671 15.5272 18.4268 15.6285 18.1718 15.6299C18.0437 15.6306 17.9167 15.606 17.7982 15.5575C17.6796 15.509 17.5718 15.4377 17.4808 15.3475C17.3899 15.2573 17.3177 15.15 17.2683 15.0318C17.2188 14.9136 17.1932 14.7869 17.1929 14.6588C17.187 14.3977 17.1838 14.1367 17.1929 13.8757C17.1988 13.7262 17.1707 13.6583 16.9971 13.6701C16.7465 13.6864 16.4933 13.6701 16.2414 13.6747C15.6469 13.6825 15.2364 14.0956 15.2351 14.6953C15.2325 15.9644 15.2325 17.2333 15.2351 18.502C15.2351 19.1272 15.6475 19.5325 16.2792 19.5338C17.5409 19.5338 18.8026 19.5338 20.0644 19.5338C20.6895 19.5338 21.0948 19.122 21.0974 18.4896C21.1 17.8572 21.0948 17.2405 21.0942 16.6146Z" fill="#787878"/>
<path id="Vector_2" d="M2.61958e-06 10.2583C0.0867991 10.2218 0.0652659 10.133 0.0802758 10.0697C0.349149 9.0399 0.99066 8.34879 1.98066 7.98137C2.11575 7.93112 2.16143 7.9011 2.10531 7.751C1.9974 7.44362 1.94568 7.11932 1.9526 6.79362C1.9526 5.50864 1.9526 4.22302 1.9526 2.93739C1.95243 2.55237 2.02814 2.17108 2.1754 1.81534C2.32266 1.45959 2.53858 1.13637 2.81083 0.86412C3.08308 0.591871 3.40632 0.375936 3.76206 0.228675C4.11781 0.0814136 4.49908 0.00569956 4.8841 0.0058711C6.18583 -0.000654951 7.48778 -0.000654951 8.78994 0.0058711C9.17501 0.00621292 9.55623 0.082498 9.91179 0.230332C10.2674 0.378165 10.5903 0.59465 10.8621 0.867418C11.1339 1.14019 11.3492 1.46387 11.4958 1.81996C11.6423 2.17604 11.7173 2.55753 11.7162 2.9426C11.7214 4.23606 11.7214 5.52975 11.7162 6.82365C11.7104 8.47801 10.411 9.7682 8.75079 9.77016C6.85475 9.77277 4.95893 9.77277 3.06333 9.77016C2.36113 9.77016 2.00154 10.1069 1.94933 10.8098C1.93429 11.0264 1.84807 11.2321 1.70409 11.3947C1.56011 11.5574 1.36643 11.6679 1.15316 11.709C0.94341 11.7462 0.727286 11.7145 0.537004 11.6188C0.346722 11.523 0.192471 11.3684 0.0972442 11.1778C0.0652665 11.1126 0.0691809 11.0329 -0.00195312 10.9912L2.61958e-06 10.2583ZM9.76559 4.89193C9.76559 4.23933 9.77081 3.59065 9.76559 2.94C9.76671 2.81179 9.74241 2.68463 9.69411 2.56587C9.6458 2.4471 9.57444 2.33909 9.48415 2.24807C9.39385 2.15705 9.28642 2.08484 9.16805 2.03558C9.04968 1.98632 8.92272 1.961 8.79451 1.96109C8.52629 1.95522 8.25742 1.96696 7.9892 1.95717C7.85868 1.95195 7.80451 1.98261 7.81104 2.12749C7.82278 2.39506 7.81821 2.66394 7.81104 2.93216C7.81104 3.19065 7.7088 3.43867 7.52663 3.62206C7.34446 3.80546 7.09715 3.90934 6.83866 3.91107C6.71024 3.91176 6.58296 3.88704 6.46414 3.83833C6.34531 3.78963 6.2373 3.7179 6.14631 3.62727C6.05533 3.53665 5.98317 3.42893 5.93399 3.31031C5.88481 3.19168 5.85957 3.0645 5.85975 2.93608C5.85387 2.66003 5.85322 2.38332 5.85975 2.10662C5.85975 1.99241 5.83364 1.95064 5.71226 1.95521C5.46101 1.96435 5.20845 1.95521 4.95654 1.95521C4.31046 1.95913 3.90519 2.36114 3.90454 3.00461C3.90454 4.25717 3.90454 5.50951 3.90454 6.76164C3.90454 7.40772 4.30916 7.81365 4.94871 7.8143C6.20128 7.8143 7.45363 7.8143 8.70576 7.8143C9.35119 7.8143 9.75711 7.41099 9.75972 6.77013C9.76755 6.14363 9.76624 5.51778 9.76559 4.89193Z" fill="#787878"/>
<path id="Vector_3" d="M18.0871 7.81884C19.4458 7.81884 20.8046 7.80512 22.1633 7.82209C23.691 7.84166 24.9806 9.1534 24.9982 10.6759C25.0054 11.2574 24.6119 11.7005 24.0676 11.7201C23.507 11.7429 23.0756 11.3285 23.0456 10.7412C23.0156 10.1538 22.6064 9.77077 21.9877 9.77077C19.3195 9.77077 16.651 9.77077 13.9822 9.77077C13.2683 9.77077 12.7958 9.17168 12.987 8.51712C13.111 8.09293 13.4849 7.82014 13.9659 7.81884C15.3407 7.81884 16.7156 7.81884 18.0904 7.81884H18.0871Z" fill="#787878"/>
<path id="Vector_4" d="M15.2317 4.93825C15.2286 4.7942 15.2554 4.65109 15.3103 4.51788C15.3652 4.38468 15.4471 4.26428 15.5508 4.16427C15.9026 3.81447 16.2419 3.45163 16.608 3.1201C16.7784 2.96478 16.7444 2.88515 16.5989 2.74745C16.2497 2.41789 15.9156 2.07332 15.5776 1.73201C15.1429 1.29215 15.1207 0.702199 15.5123 0.296279C15.9039 -0.109642 16.5082 -0.0952919 16.948 0.337385C17.3083 0.691097 17.6659 1.04415 18.015 1.41026C18.1371 1.54079 18.2036 1.52448 18.3179 1.40505C18.6605 1.04677 19.0148 0.698925 19.3679 0.349781C19.8084 -0.0861593 20.3971 -0.110958 20.8036 0.28452C21.2102 0.679999 21.1906 1.28562 20.7462 1.73591C20.4088 2.07723 20.0786 2.42703 19.7236 2.75006C19.5532 2.90473 19.5872 2.985 19.7334 3.1227C20.0818 3.449 20.4173 3.79619 20.7534 4.13881C21.188 4.58062 21.2102 5.17189 20.8134 5.57454C20.4166 5.9772 19.811 5.95828 19.362 5.51255C19.0214 5.1745 18.6755 4.84102 18.3466 4.49188C18.216 4.34961 18.1377 4.32742 17.9916 4.48404C17.6365 4.86451 17.2665 5.23192 16.8873 5.58824C16.5747 5.88257 16.2034 5.9524 15.806 5.77163C15.6408 5.70193 15.4989 5.58645 15.3972 5.4388C15.2954 5.29114 15.238 5.11746 15.2317 4.93825Z" fill="#787878"/>
<path id="Vector_5" d="M4.84872 11.7208C4.98997 11.7197 5.12995 11.7475 5.26011 11.8024C5.39027 11.8572 5.50787 11.9381 5.60574 12.0399C5.95031 12.3852 6.30794 12.7193 6.63555 13.0802C6.80196 13.2636 6.89137 13.2362 7.04473 13.071C7.36451 12.7245 7.70647 12.3982 8.04191 12.0667C8.48177 11.6314 9.07238 11.6099 9.47765 12.0066C9.88291 12.4034 9.86399 13.0025 9.43327 13.4424C9.08543 13.7961 8.73759 14.1505 8.378 14.4924C8.24748 14.6138 8.23247 14.6817 8.37213 14.8128C8.7278 15.1463 9.06715 15.4974 9.41043 15.8446C9.85942 16.3014 9.88748 16.8888 9.48352 17.2967C9.07955 17.7045 8.48242 17.6778 8.03212 17.2314C7.67972 16.8816 7.32601 16.5338 6.98208 16.1761C6.87375 16.0645 6.8124 16.0515 6.69754 16.1722C6.34971 16.5377 5.98947 16.8901 5.62988 17.2445C5.18937 17.6784 4.5955 17.7013 4.19415 17.3006C3.7928 16.8999 3.81042 16.3047 4.24244 15.8648C4.59093 15.5118 4.93812 15.1568 5.29771 14.8148C5.42823 14.6934 5.44324 14.6255 5.30423 14.4944C4.91985 14.1315 4.54721 13.7556 4.1811 13.3745C4.04116 13.2359 3.94825 13.0568 3.91547 12.8626C3.88269 12.6683 3.91168 12.4687 3.99837 12.2918C4.07069 12.1253 4.18923 11.983 4.33994 11.8818C4.49065 11.7806 4.66722 11.7247 4.84872 11.7208Z" fill="#787878"/>
</g>
<defs>
<clipPath id="clip0_719_442">
<rect width="25" height="23.4481" fill="white"/>
</clipPath>
</defs>
</svg>
