<svg width="5" height="9" viewBox="0 0 5 9" fill="none" xmlns="http://www.w3.org/2000/svg">
<g id="Isolation_Mode" clip-path="url(#clip0_31_8253)">
<path id="Vector" d="M5.00012 4.41117C4.99832 4.71841 4.93632 5.02221 4.81775 5.30476C4.69918 5.58732 4.52641 5.84295 4.30957 6.05672C3.47624 6.89518 2.64088 7.73158 1.80348 8.56591C1.46354 8.90516 0.990469 8.90878 0.685591 8.58401C0.380713 8.25925 0.402563 7.79744 0.736404 7.46233C1.54941 6.64662 2.36242 5.83281 3.17543 5.02089C3.58803 4.60717 3.58498 4.18103 3.16628 3.76628C2.35327 2.96126 1.54026 2.15641 0.727255 1.35173C0.466076 1.09316 0.403578 0.763744 0.544838 0.451906C0.607714 0.309865 0.711601 0.190671 0.842676 0.110206C0.973751 0.0297406 1.1258 -0.00817807 1.27857 0.00147412C1.47097 0.013062 1.65218 0.0973355 1.7867 0.2378C2.62681 1.06937 3.46659 1.90146 4.30602 2.73406C4.52764 2.95092 4.70349 3.21147 4.82283 3.49983C4.94217 3.78818 5.0025 4.09829 5.00012 4.41117Z" fill="#A3AED0"/>
</g>
<defs>
<clipPath id="clip0_31_8253">
<rect width="5.00006" height="9.00043" fill="white"/>
</clipPath>
</defs>
</svg>
