<svg width="10" height="12" viewBox="0 0 10 12" fill="none" xmlns="http://www.w3.org/2000/svg">
<g id="Isolation_Mode" clip-path="url(#clip0_415_5246)">
<path id="Vector" d="M4.77419 11.1112C4.77086 11.1054 4.76783 11.095 4.76359 11.0941C4.4461 11.0426 4.19829 10.8643 3.94715 10.6889C2.82503 9.91046 1.7021 9.13211 0.578369 8.35385C0.0242775 7.96888 -0.158702 7.29357 0.149396 6.71495C0.402963 6.23966 0.824665 5.9913 1.38512 5.9913C3.48192 5.98764 5.57882 5.98706 7.67583 5.98957C7.98998 5.98957 8.30414 5.98957 8.6183 5.98957C9.22874 5.98957 9.74557 6.34675 9.93279 6.89325C10.1173 7.43106 9.91794 8.01143 9.42565 8.35328C8.23285 9.18132 7.03933 10.0085 5.84511 10.8348C5.65274 10.9682 5.44583 11.0664 5.20559 11.0915C5.19741 11.0915 5.19075 11.1043 5.18348 11.1109L4.77419 11.1112ZM5.00686 6.85823H2.07826C1.8359 6.85823 1.59355 6.85331 1.35119 6.85997C1.2735 6.86252 1.19781 6.88408 1.13133 6.92257C1.06485 6.96106 1.00982 7.0152 0.971496 7.07981C0.933171 7.14442 0.912832 7.21735 0.912425 7.29162C0.912018 7.36589 0.931556 7.43901 0.969172 7.50401C1.01532 7.57485 1.07741 7.63497 1.15094 7.68C2.329 8.49569 3.50717 9.31167 4.68543 10.1279C4.89749 10.275 5.08653 10.2871 5.28102 10.1525C6.48736 9.31871 7.69299 8.48353 8.89792 7.647C8.97585 7.59474 9.03448 7.52027 9.06545 7.43425C9.17118 7.14074 8.947 6.85881 8.60527 6.85852C7.406 6.85832 6.20653 6.85823 5.00686 6.85823Z" fill="#96B0C4"/>
<path id="Vector_2" d="M5.1832 2.59225e-05C5.24379 0.0391027 5.31711 0.0289746 5.38345 0.050105C5.54209 0.0981011 5.69163 0.170128 5.82636 0.263435C7.02906 1.09678 8.23449 1.92665 9.43356 2.76492C9.85769 3.06162 10.0522 3.47641 9.98644 3.97457C9.91737 4.49906 9.60351 4.85799 9.08487 5.04556C8.94276 5.09626 8.79212 5.12157 8.64044 5.12024C6.21444 5.12024 3.78833 5.12024 1.36212 5.12024C1.07662 5.11879 0.798794 5.03173 0.567845 4.87134C0.336896 4.71095 0.164478 4.48533 0.0749156 4.22631C-0.0146471 3.96728 -0.0168343 3.68792 0.0686621 3.42764C0.154159 3.16737 0.323023 2.93931 0.551435 2.77563C1.76686 1.92791 2.98471 1.08366 4.20499 0.242881C4.35617 0.139964 4.52719 0.0666742 4.70818 0.0272368C4.73121 0.0220265 4.76453 0.032447 4.77422 -0.00170898L5.1832 2.59225e-05ZM4.98992 4.25303C6.18152 4.25303 7.37311 4.25303 8.5647 4.25303C8.6176 4.25558 8.67064 4.25257 8.72285 4.24405C8.9137 4.20266 9.03942 4.08948 9.07911 3.90626C9.1188 3.72303 9.05124 3.57135 8.89219 3.46107C7.69009 2.62763 6.48749 1.79466 5.28439 0.962186C5.09262 0.829614 4.90449 0.833376 4.70879 0.968263C4.35888 1.20851 4.01201 1.45137 3.6621 1.69191C2.81748 2.277 1.97277 2.86189 1.12795 3.4466C1.00404 3.53343 0.924668 3.63995 0.915882 3.78671C0.896796 4.05359 1.10492 4.25187 1.40454 4.25187C2.59936 4.25264 3.79449 4.25303 4.98992 4.25303Z" fill="#96B0C4"/>
</g>
<defs>
<clipPath id="clip0_415_5246">
<rect width="10" height="11.1111" fill="white"/>
</clipPath>
</defs>
</svg>
