<svg width="27" height="20" viewBox="0 0 27 20" fill="none" xmlns="http://www.w3.org/2000/svg">
<g id="Group">
<g id="Group_2">
<g id="Group_3">
<path id="Vector" fill-rule="evenodd" clip-rule="evenodd" d="M19.2373 11.3184C20.8356 12.4034 21.9556 13.8734 21.9556 15.8334V19.3334H25.4556C26.0973 19.3334 26.6223 18.8084 26.6223 18.1667V15.8334C26.6223 13.29 22.4573 11.785 19.2373 11.3184Z" fill="white"/>
</g>
<g id="Group_4">
<path id="Vector_2" d="M10.2887 10.0001C12.8661 10.0001 14.9554 7.91074 14.9554 5.33342C14.9554 2.75609 12.8661 0.666748 10.2887 0.666748C7.71141 0.666748 5.62207 2.75609 5.62207 5.33342C5.62207 7.91074 7.71141 10.0001 10.2887 10.0001Z" fill="white"/>
</g>
<g id="Group_5">
<path id="Vector_3" fill-rule="evenodd" clip-rule="evenodd" d="M17.289 10.0001C19.8673 10.0001 21.9556 7.91175 21.9556 5.33342C21.9556 2.75508 19.8673 0.666748 17.289 0.666748C16.7406 0.666748 16.2273 0.783414 15.7373 0.946748C16.7056 2.14841 17.289 3.67675 17.289 5.33342C17.289 6.99008 16.7056 8.51842 15.7373 9.72008C16.2273 9.88342 16.7406 10.0001 17.289 10.0001Z" fill="white"/>
</g>
<g id="Group_6">
<path id="Vector_4" fill-rule="evenodd" clip-rule="evenodd" d="M10.2889 11.1667C7.1739 11.1667 0.955566 12.7301 0.955566 15.8334V18.1667C0.955566 18.8084 1.48057 19.3334 2.12223 19.3334H18.4556C19.0972 19.3334 19.6222 18.8084 19.6222 18.1667V15.8334C19.6222 12.7301 13.4039 11.1667 10.2889 11.1667Z" fill="white"/>
</g>
</g>
</g>
</svg>
