<svg width="16" height="23" viewBox="0 0 16 23" fill="none" xmlns="http://www.w3.org/2000/svg">
<g id="Layer_1" clip-path="url(#clip0_45_16427)">
<path id="Vector" d="M8.48898 0C8.73484 0.0593868 8.98308 0.10749 9.22597 0.17816C10.1427 0.440741 10.9505 0.99155 11.5298 1.74904C12.1091 2.50652 12.4291 3.43042 12.4424 4.38394C12.4477 4.86497 12.4459 5.346 12.4424 5.82703C12.4394 6.36152 12.0569 6.75881 11.548 6.75585C11.0391 6.75288 10.6756 6.35617 10.6643 5.81516C10.6518 5.21654 10.7154 4.61495 10.6257 4.0193C10.4339 2.74486 9.30555 1.78279 8.0127 1.77923C6.70619 1.77567 5.57012 2.73358 5.37533 4.01989C5.28328 4.6298 5.35276 5.24683 5.33614 5.86089C5.31951 6.47495 4.74821 6.90431 4.16918 6.71012C3.82296 6.59134 3.57888 6.34014 3.57532 5.98263C3.56225 5.12746 3.47852 4.26576 3.6834 3.41831C3.8895 2.55341 4.34994 1.77007 5.00535 1.16927C5.66077 0.568477 6.48111 0.177766 7.36063 0.0475096C7.39983 0.041571 7.45268 0.0629501 7.4705 0.00237553L8.48898 0Z" fill="#7E7E80"/>
<path id="Vector_2" d="M7.98159 22.7519C6.82592 22.7519 5.67065 22.7519 4.51578 22.7519C2.27155 22.7483 0.459658 21.2387 0.0617661 19.036C0.0186005 18.781 -0.00127703 18.5226 0.00237929 18.264C0.00237929 16.5163 0.00237929 14.7685 0.00237929 13.0207C0.00653636 10.7997 1.53337 8.98244 3.72296 8.59286C3.97128 8.55049 4.22291 8.53061 4.4748 8.53347C6.82236 8.53347 9.16992 8.53347 11.5175 8.53347C13.738 8.53763 15.5599 10.0734 15.9418 12.2594C15.9845 12.5227 16.0044 12.7891 16.0012 13.0558C15.9982 14.781 16.0012 16.5067 16.0012 18.2319C16.0012 20.4809 14.5005 22.2815 12.2901 22.6913C12.02 22.7374 11.7463 22.7582 11.4723 22.7537C10.3066 22.7501 9.14379 22.7519 7.98159 22.7519ZM7.98159 20.9744C9.14439 20.9744 10.307 20.9744 11.4694 20.9744C13.0556 20.9744 14.2202 19.8128 14.2214 18.2325C14.2214 16.5067 14.2214 14.7812 14.2214 13.0558C14.2214 11.4731 13.0574 10.3109 11.4735 10.3103C9.15587 10.3103 6.838 10.3103 4.51994 10.3103C2.94975 10.3103 1.78101 11.4761 1.77983 13.0421C1.77983 14.775 1.77983 16.5079 1.77983 18.2408C1.77983 19.8069 2.94856 20.9726 4.51637 20.9756C5.67085 20.9764 6.82573 20.976 7.981 20.9744H7.98159Z" fill="#7E7E80"/>
<path id="Vector_3" d="M7.11091 17.8648C7.22968 17.4342 7.02539 17.2359 6.64828 17.0292C5.55913 16.4318 5.08404 15.1288 5.46055 13.953C5.64346 13.3771 6.01568 12.8799 6.51678 12.5423C7.01788 12.2046 7.61841 12.0463 8.22085 12.093C8.81495 12.1449 9.37471 12.3937 9.8113 12.7999C10.2479 13.2062 10.5363 13.7466 10.6308 14.3354C10.8208 15.5499 10.1883 16.6996 9.04929 17.1979C8.93052 17.2495 8.88182 17.3042 8.88717 17.4354C8.89786 17.724 8.8943 18.0132 8.88717 18.3019C8.88779 18.4185 8.86538 18.5342 8.8212 18.6421C8.77703 18.7501 8.71197 18.8483 8.62975 18.9311C8.54754 19.0138 8.44979 19.0795 8.34212 19.1244C8.23444 19.1693 8.11896 19.1925 8.0023 19.1927C7.76666 19.1927 7.54062 19.0993 7.37367 18.933C7.20671 18.7667 7.11244 18.5411 7.1115 18.3054C7.10853 18.1611 7.11091 18.0127 7.11091 17.8648ZM7.99815 15.6413C8.23379 15.6413 8.45983 15.548 8.62678 15.3817C8.79374 15.2154 8.88801 14.9897 8.88895 14.7541C8.88895 14.5186 8.79567 14.2926 8.62951 14.1257C8.46335 13.9587 8.23784 13.8644 8.0023 13.8633C7.76677 13.8633 7.54082 13.9566 7.37388 14.1227C7.20694 14.2889 7.1126 14.5144 7.1115 14.7499C7.11134 14.9856 7.20455 15.2117 7.37073 15.3788C7.53691 15.5458 7.76251 15.6402 7.99815 15.6413Z" fill="#7E7E80"/>
</g>
<defs>
<clipPath id="clip0_45_16427">
<rect width="16" height="22.7529" fill="white"/>
</clipPath>
</defs>
</svg>
