<svg width="210" height="43" viewBox="0 0 210 43" fill="none" xmlns="http://www.w3.org/2000/svg">
<g clip-path="url(#clip0_293_989)">
<path d="M100.177 9.02627L111.98 19.1502L105.477 35.6682L99.1929 26.3701L95.8311 21.3828L99.1824 12.4737L102.481 21.3721L99.6275 25.6028L101.869 28.8798L106.864 21.4201L99.3343 8.957L105.99 3.18637C106.038 3.14231 106.068 3.08141 106.073 3.01586C106.078 2.95011 106.058 2.88501 106.016 2.8347L103.639 0.0905814L103.576 0.042626L103.44 0H94.9305C94.8914 0.00946082 94.8542 0.0256818 94.8205 0.0479555L92.4013 2.82937C92.3599 2.87996 92.3392 2.94485 92.3437 3.01053C92.3495 3.07608 92.3794 3.13698 92.4275 3.18104L98.9991 8.90905L91.4901 21.3615L96.9674 29.5512L92.8568 35.6362L86.3742 19.1342L98.1822 9.01028L82.3003 18.0685L92.328 42.9787L99.1929 32.7748L106.032 42.9787L116.059 18.0685L100.177 9.02627ZM105.414 2.97324L99.8474 7.82739L101.575 3.12243L103.44 0.698016L105.414 2.97324ZM102.879 0.522181L101.308 2.54696L99.7374 0.522181H102.879ZM101.005 3.0425L99.2138 7.9233L97.423 3.0425L99.2138 0.714003L101.005 3.0425ZM98.664 0.522181L97.0931 2.54696L95.5222 0.522181H98.664ZM93.0139 2.97324L94.9881 0.698016L96.8522 3.12243L98.5802 7.82739L93.0139 2.97324Z" fill="#D9A528"/>
<path d="M70.2043 19.1821H67.7955V19.5072H67.9526C68.0801 19.5043 68.2061 19.5347 68.3188 19.5953C68.4316 19.6559 68.5272 19.7448 68.5967 19.8535C68.7681 20.1419 68.8502 20.4761 68.8323 20.8126V31.917L59.1031 19.1821H57.0767V19.5072H57.2338C57.3625 19.5055 57.4896 19.5362 57.6038 19.5966C57.718 19.6571 57.8157 19.7453 57.8883 19.8535C58.0655 20.1398 58.1515 20.4747 58.1344 20.8126V31.8797C58.1641 32.231 58.0673 32.5813 57.8621 32.8654C57.7601 32.9701 57.6372 33.0514 57.5017 33.1038C57.3662 33.1562 57.2213 33.1784 57.0767 33.1691V33.5101H59.5063V33.1691H59.3283C59.2015 33.1726 59.0759 33.1425 58.9639 33.0818C58.852 33.0211 58.7574 32.9318 58.6895 32.8228C58.5147 32.5416 58.4305 32.2119 58.4486 31.8797V20.1572L68.3401 33.0679L68.8166 33.7126H69.1675V20.8126C69.1379 20.4605 69.2326 20.1091 69.4345 19.8215C69.5305 19.7125 69.6499 19.6275 69.7834 19.573C69.9168 19.5185 70.0609 19.496 70.2043 19.5072V19.1821Z" fill="#D9A528"/>
<path d="M53.3169 30.5209H53.1755C53.0712 30.5232 52.9681 30.4979 52.8763 30.4475C52.7845 30.397 52.7071 30.3232 52.6518 30.2332C52.5117 30.0036 52.444 29.7358 52.4581 29.4659V20.5249C52.431 20.2366 52.5093 19.9482 52.678 19.715C52.7608 19.6296 52.8608 19.5636 52.9711 19.5212C53.0813 19.4789 53.1993 19.4614 53.3169 19.4699V19.1821H50.6254V19.4699H50.7667C50.8709 19.4681 50.9739 19.4936 51.0656 19.544C51.1573 19.5944 51.2347 19.668 51.2904 19.7576C51.4306 19.9872 51.4982 20.255 51.4841 20.5249V29.4659C51.51 29.7558 51.4319 30.0454 51.2642 30.2811C51.1795 30.3651 51.0784 30.4298 50.9674 30.4712C50.8564 30.5125 50.738 30.5294 50.6201 30.5209V30.8086H53.3169V30.5209Z" fill="#D9A528"/>
<path d="M18.1703 31.4748L17.5577 17.3493C17.5459 16.9792 17.6669 16.6175 17.898 16.3316C18.0141 16.2253 18.1499 16.1437 18.2973 16.0916C18.4448 16.0394 18.601 16.0178 18.7568 16.0278V15.6016H16.28L9.79212 31.9011L2.98482 15.6016H0.617978V16.0278H0.837906C0.987983 16.0233 1.13667 16.0582 1.26965 16.1291C1.40264 16.2001 1.51543 16.3046 1.59718 16.4328C1.79791 16.7688 1.89292 17.1592 1.86947 17.5518C1.86947 17.5944 1.86947 17.6263 1.86947 17.637L1.34584 31.656C1.33686 32.0499 1.19019 32.4278 0.93216 32.7216C0.67143 32.9552 0.33126 33.0757 -0.015625 33.0573V33.4836H3.61319V33.0573H3.30424C3.10082 33.0666 2.89786 33.0304 2.70968 32.9512C2.5215 32.872 2.35267 32.7518 2.21508 32.5991C1.93 32.2497 1.77107 31.8116 1.76475 31.3576L2.28838 17.3439C3.42992 20.0756 4.57668 22.7878 5.72869 25.4804C6.88069 28.173 8.02921 30.8851 9.17423 33.6168H9.50412L16.3114 16.6299C16.4004 19.1183 16.4947 21.596 16.589 24.047C16.6832 26.4981 16.767 28.9705 16.8403 31.4482V31.5387C16.86 31.9295 16.7691 32.3179 16.5785 32.6577C16.4981 32.7844 16.387 32.8878 16.2558 32.9578C16.1245 33.0278 15.9778 33.0621 15.8297 33.0573H15.615V33.4836H19.5527V33.0573C19.3723 33.0704 19.1913 33.0433 19.0222 32.9779C18.8531 32.9126 18.7 32.8106 18.5735 32.679C18.3114 32.3344 18.1695 31.9106 18.1703 31.4748Z" fill="#D9A528"/>
<path d="M33.1933 31.9011L27.8103 19.1663H27.4909L22.3174 31.9917C22.1844 32.3305 21.9807 32.6359 21.7204 32.8868C21.486 33.0773 21.1929 33.1773 20.8931 33.1692V33.5102H23.705V33.1692H23.4955C23.3818 33.1768 23.2677 33.1603 23.1605 33.1209C23.0532 33.0815 22.9552 33.0199 22.8724 32.9401C22.7183 32.7632 22.6393 32.5314 22.6525 32.2954C22.6503 32.1935 22.6591 32.0916 22.6787 31.9917C22.7114 31.8399 22.7588 31.6917 22.8201 31.5494C22.8934 31.3523 23.0033 31.0752 23.1552 30.7075C23.307 30.3399 23.5008 29.8443 23.7574 29.2156C24.1093 29.0921 24.4795 29.0308 24.8518 29.0344C25.3872 29.0343 25.9186 29.128 26.4227 29.3115C26.9463 29.498 27.47 29.7005 28.046 29.9189C28.622 30.1374 29.1823 30.3505 29.7844 30.5477C30.408 30.7486 31.0574 30.8546 31.7114 30.862C31.8162 31.1231 31.9104 31.3363 31.9837 31.5068C32.057 31.6773 32.1199 31.8158 32.1618 31.9277C32.1966 32.0237 32.2263 32.1215 32.2508 32.2208C32.267 32.3033 32.2758 32.3871 32.277 32.4712C32.2857 32.5691 32.2728 32.6677 32.2393 32.7599C32.2057 32.8521 32.1524 32.9355 32.0832 33.0041C31.9386 33.1321 31.7512 33.1989 31.5596 33.1905H31.3239V33.5316H34.6543V33.1905C34.5001 33.1948 34.3466 33.1678 34.2027 33.1111C34.0589 33.0543 33.9276 32.9691 33.8165 32.8602C33.5472 32.5866 33.3353 32.2603 33.1933 31.9011ZM29.753 30.2333C29.1666 30.0415 28.601 29.839 28.0564 29.6152C27.5119 29.3914 26.9725 29.1943 26.4541 29.0184C25.9487 28.8405 25.418 28.7487 24.8832 28.7467C24.5612 28.7441 24.2405 28.7871 23.9302 28.8746L27.3286 20.4557L31.6067 30.5796C30.9762 30.5505 30.3526 30.434 29.753 30.2333Z" fill="#D9A528"/>
<path d="M170.774 31.6132C170.451 32.1198 170.003 32.5313 169.476 32.8068C168.948 33.0922 168.36 33.2422 167.763 33.2437H162.605V25.1499H167.004C167.463 25.1382 167.918 25.2348 168.334 25.4323C168.664 25.5794 168.924 25.8505 169.062 26.1889L169.135 26.3648H169.418V23.8231H169.135L169.062 23.983C168.999 24.138 168.904 24.2771 168.783 24.3903C168.662 24.5036 168.517 24.5883 168.36 24.6384C167.928 24.8085 167.467 24.89 167.004 24.8782H162.605V19.4539H167.606C168.184 19.448 168.754 19.5988 169.256 19.8908C169.74 20.1597 170.129 20.5774 170.366 21.0844L170.491 21.3881H170.774C170.774 21.0417 170.743 20.6741 170.717 20.2851C170.69 19.8961 170.685 19.5285 170.685 19.1821H160.495V19.5231H160.652C160.781 19.521 160.908 19.5521 161.022 19.6136C161.135 19.6751 161.231 19.765 161.302 19.8748C161.481 20.1522 161.567 20.4812 161.548 20.8126V31.8797C161.58 32.2312 161.483 32.5826 161.275 32.8654C161.175 32.9703 161.053 33.0517 160.918 33.1041C160.783 33.1565 160.639 33.1787 160.495 33.1691V33.5101H170.806L170.947 32.8334C171.031 32.4231 171.13 31.9223 171.245 31.3255H170.984L170.774 31.6132Z" fill="#D9A528"/>
<path d="M183.462 31.1497L183.284 31.1124C183.131 31.5356 182.894 31.922 182.587 32.2473C182.345 32.5057 182.064 32.7233 181.755 32.892C181.507 33.0289 181.241 33.126 180.964 33.1798C180.777 33.216 180.588 33.2373 180.398 33.2437H175.084V20.8126C175.054 20.4629 175.147 20.1139 175.345 19.8269C175.445 19.7218 175.566 19.6402 175.7 19.5878C175.834 19.5353 175.977 19.5133 176.12 19.5231V19.1821H172.979V19.5231H173.157C173.284 19.5214 173.411 19.5527 173.523 19.6143C173.636 19.6758 173.731 19.7654 173.801 19.8748C173.973 20.1551 174.055 20.4827 174.036 20.8126V31.8797C174.068 32.2344 173.971 32.5886 173.764 32.8761C173.663 32.9835 173.541 33.0674 173.405 33.1217C173.27 33.176 173.124 33.1995 172.979 33.1904V33.5101H183.294C183.294 33.4142 183.352 33.2437 183.399 32.9773C183.446 32.7109 183.498 32.4711 183.556 32.2047C183.614 31.9383 183.687 31.5599 183.771 31.2029L183.629 31.1656L183.462 31.1497Z" fill="#D9A528"/>
<path d="M156.217 19.5072H156.474C156.586 19.5009 156.699 19.5185 156.804 19.5588C156.91 19.5992 157.006 19.6615 157.086 19.7417C157.166 19.8276 157.227 19.9291 157.267 20.0399C157.306 20.1508 157.323 20.2687 157.317 20.3864C157.31 20.6325 157.257 20.8749 157.16 21.1004L152.646 32.2154L149.504 24.8196L151.18 20.7008C151.306 20.361 151.505 20.0536 151.761 19.8003C151.984 19.6036 152.272 19.4991 152.567 19.5072V19.1822H149.755V19.5072H149.981C150.094 19.5001 150.208 19.5173 150.314 19.5577C150.42 19.5981 150.517 19.6608 150.598 19.7417C150.678 19.8276 150.739 19.9291 150.779 20.0399C150.818 20.1508 150.835 20.2687 150.829 20.3864C150.822 20.6325 150.769 20.8749 150.672 21.1004L149.331 24.4307L147.802 20.8127C147.721 20.6201 147.673 20.4146 147.661 20.2053C147.653 20.1075 147.667 20.0091 147.7 19.9171C147.734 19.8251 147.786 19.7416 147.855 19.6724C148 19.5453 148.187 19.4786 148.378 19.4859H148.588V19.1609H145.263V19.4859C145.416 19.4842 145.568 19.5134 145.71 19.572C145.852 19.6305 145.981 19.7172 146.09 19.8269C146.353 20.0944 146.563 20.411 146.708 20.7594L148.802 25.6988L146.184 32.1994L141.377 20.8127C141.29 20.6223 141.244 20.4153 141.241 20.2053C141.233 20.1075 141.247 20.0091 141.28 19.9171C141.314 19.8251 141.366 19.7416 141.435 19.6724C141.58 19.5453 141.767 19.4786 141.958 19.4859H142.168V19.1609H138.843V19.4859C138.996 19.4842 139.148 19.5134 139.29 19.572C139.432 19.6305 139.561 19.7172 139.67 19.8269C139.933 20.0934 140.141 20.4104 140.283 20.7594L145.655 33.4889H146.001L148.996 26.0931L152.112 33.4889H152.447L157.62 20.7008C157.751 20.3576 157.955 20.0482 158.217 19.795C158.443 19.5979 158.732 19.4934 159.029 19.5019V19.1769H156.212L156.217 19.5072Z" fill="#D9A528"/>
<path d="M82.1748 31.9011L76.7865 19.1663H76.4724L71.2988 31.9917C71.1658 32.3305 70.9622 32.6359 70.7019 32.8868C70.4674 33.0773 70.1744 33.1773 69.8745 33.1692V33.5102H72.6917V33.1692H72.4822C72.3684 33.1775 72.2541 33.1613 72.1468 33.1218C72.0395 33.0824 71.9415 33.0205 71.8591 32.9401C71.705 32.7632 71.6259 32.5314 71.6392 32.2954C71.637 32.1935 71.6458 32.0916 71.6654 31.9917C71.6981 31.8399 71.7455 31.6917 71.8067 31.5494C71.88 31.3523 71.99 31.0752 72.1366 30.7075L72.7441 29.2156C73.096 29.0921 73.4662 29.0308 73.8385 29.0344C74.3739 29.0343 74.9053 29.128 75.4094 29.3115C75.933 29.4998 76.4724 29.7022 77.0274 29.9189C77.5877 30.1427 78.1689 30.3505 78.7711 30.5477C79.3947 30.7486 80.0441 30.8546 80.6981 30.862C80.8028 31.1231 80.8971 31.3363 80.9704 31.5068C81.0437 31.6773 81.1066 31.8158 81.1484 31.9277C81.1833 32.0237 81.213 32.1215 81.2375 32.2208C81.2537 32.3033 81.2624 32.3871 81.2636 32.4712C81.2712 32.569 81.2578 32.6673 81.2244 32.7593C81.1909 32.8513 81.1382 32.9348 81.0699 33.0041C80.925 33.1317 80.7378 33.1984 80.5463 33.1905H80.3316V33.5316H83.6619V33.1905C83.5077 33.1948 83.3542 33.1678 83.2104 33.1111C83.0665 33.0543 82.9352 32.9691 82.8241 32.8602C82.5454 32.5891 82.3244 32.2626 82.1748 31.9011ZM78.7083 30.2333C78.1218 30.0415 77.5563 29.839 77.0065 29.6152C76.4567 29.3914 75.9278 29.1943 75.4094 29.0184C74.904 28.8405 74.3732 28.7487 73.8385 28.7467C73.5165 28.7441 73.1957 28.7871 72.8854 28.8746L76.2839 20.4557L80.562 30.5796C79.9314 30.551 79.3077 30.4345 78.7083 30.2333Z" fill="#D9A528"/>
<path d="M207.434 19.1821V19.3473C207.434 19.4645 207.434 19.5231 207.502 19.5231H207.643C207.994 19.5231 208.167 19.6937 208.167 20.024C208.131 20.3966 208.003 20.7539 207.795 21.063L203.941 27.7075L199.988 20.722C199.824 20.4849 199.726 20.2068 199.705 19.9174C199.705 19.6564 199.846 19.5231 200.129 19.5231H200.302V19.1821H197.16V19.5231C197.45 19.5316 197.726 19.6494 197.935 19.8535C198.231 20.1395 198.492 20.4617 198.71 20.8126L202.988 28.5334V30.1852C203.003 30.5144 202.917 30.8401 202.742 31.1177C202.672 31.2289 202.575 31.32 202.46 31.3825C202.346 31.445 202.218 31.4767 202.088 31.4747H201.93V31.8157H205.099V31.4747H204.941C204.811 31.4767 204.683 31.445 204.569 31.3825C204.454 31.32 204.357 31.2289 204.287 31.1177C204.112 30.8401 204.026 30.5144 204.041 30.1852V28.1231L205.695 25.2884C206.141 24.5265 206.507 23.8977 206.79 23.4022C207.073 22.9067 207.287 22.5177 207.45 22.2459L207.827 21.5906C207.921 21.4307 207.994 21.2975 208.057 21.1963C208.12 21.095 208.188 20.9725 208.282 20.8286C208.806 19.9707 209.392 19.5391 209.989 19.5391V19.1981L207.434 19.1821Z" fill="#D9A528"/>
<path d="M121.013 16.0065H121.102C121.209 16.0118 121.316 16.0261 121.421 16.0491C121.569 16.0846 121.707 16.1539 121.825 16.2516C121.976 16.3839 122.093 16.5524 122.165 16.7418C122.274 17.0267 122.324 17.3315 122.312 17.637V27.8941C122.321 28.7246 122.268 29.5547 122.155 30.3772C122.085 30.9596 121.922 31.5266 121.673 32.0556C121.488 32.4485 121.193 32.7767 120.825 32.9987C120.434 33.2005 120 33.2994 119.563 33.2864C119.103 33.2994 118.649 33.1793 118.253 32.9401C118.08 32.8436 117.929 32.7113 117.809 32.5516C117.689 32.3919 117.603 32.2084 117.557 32.013C117.545 31.8636 117.477 31.7248 117.366 31.6255C117.256 31.5262 117.112 31.4741 116.965 31.4801C116.599 31.4801 116.415 31.6133 116.415 31.8851C116.406 31.9289 116.406 31.9744 116.415 32.0183C116.482 32.2656 116.601 32.4954 116.762 32.6921C116.924 32.8888 117.125 33.0479 117.353 33.1586C117.927 33.4592 118.567 33.6059 119.212 33.5848C119.913 33.6045 120.612 33.4794 121.264 33.2172C121.831 32.9666 122.311 32.549 122.642 32.0183C123.029 31.3643 123.291 30.6408 123.411 29.8869C123.587 28.8435 123.668 27.7858 123.652 26.7272V17.637C123.616 17.1967 123.733 16.7574 123.982 16.3955C124.105 16.261 124.255 16.1563 124.423 16.089C124.591 16.0216 124.771 15.9935 124.951 16.0065V15.6016H120.992L121.013 16.0065Z" fill="#D9A528"/>
<path d="M137.099 31.6132C136.778 32.1196 136.332 32.5312 135.806 32.8068C135.278 33.0922 134.69 33.2422 134.093 33.2437H128.935V25.1499H133.334C133.793 25.1382 134.248 25.2348 134.664 25.4323C134.992 25.5812 135.253 25.8518 135.392 26.1889L135.465 26.3648H135.748V23.8231H135.465L135.392 23.983C135.328 24.1374 135.233 24.276 135.112 24.3891C134.991 24.5023 134.847 24.5873 134.69 24.6384C134.258 24.8085 133.797 24.89 133.334 24.8782H128.935V19.4539H133.931C134.511 19.4473 135.082 19.5981 135.586 19.8908C136.07 20.1597 136.459 20.5774 136.696 21.0844L136.821 21.3881H137.099C137.099 21.0417 137.073 20.6741 137.047 20.2851C137.02 19.8961 137.015 19.5285 137.015 19.1821H126.804V19.5231H126.967C127.095 19.521 127.222 19.5521 127.336 19.6136C127.449 19.6751 127.546 19.765 127.616 19.8748C127.791 20.1539 127.877 20.4816 127.862 20.8126V31.8797C127.895 32.2312 127.798 32.5826 127.59 32.8654C127.488 32.9701 127.365 33.0514 127.229 33.1038C127.094 33.1562 126.949 33.1784 126.804 33.1691V33.5101H137.099L137.24 32.8334C137.324 32.4231 137.424 31.9223 137.539 31.3255H137.277L137.099 31.6132Z" fill="#D9A528"/>
<path d="M202.742 33.8725C202.268 34.1076 201.764 34.2761 201.245 34.3734C200.725 34.47 200.193 34.47 199.674 34.3734C199.121 34.2547 198.599 34.0167 198.145 33.6753C197.622 33.3102 197.143 32.8827 196.72 32.4019C196.286 31.869 195.851 31.3788 195.411 30.8726C194.985 30.3795 194.525 29.9183 194.034 29.4926C193.601 29.1038 193.087 28.8197 192.531 28.6613C193.06 28.516 193.565 28.2916 194.029 27.9953C194.461 27.723 194.845 27.379 195.165 26.9776C195.479 26.5757 195.722 26.1214 195.883 25.6348C196.056 25.1204 196.142 24.58 196.139 24.0363C196.147 23.3534 196.034 22.6746 195.804 22.0328C195.6 21.4538 195.283 20.9227 194.872 20.4716C194.465 20.0221 193.969 19.666 193.416 19.4273C192.823 19.1829 192.187 19.0615 191.547 19.0703H185.09V19.4273H185.247C185.38 19.4235 185.511 19.4544 185.628 19.5169C185.746 19.5794 185.845 19.6714 185.918 19.7843C186.092 20.0618 186.178 20.3875 186.164 20.7167V31.7838C186.179 32.1181 186.093 32.4491 185.918 32.7322C185.845 32.845 185.746 32.9371 185.628 32.9996C185.511 33.0621 185.38 33.093 185.247 33.0892H185.09V33.4143H188.326V33.0892H188.169C188.039 33.0916 187.909 33.0601 187.794 32.9977C187.679 32.9352 187.581 32.8438 187.51 32.7322C187.326 32.4525 187.236 32.1198 187.253 31.7838V28.8851H190.704C191.007 28.8851 191.28 28.8851 191.515 28.8851C191.704 28.8948 191.892 28.9216 192.076 28.9651C192.439 29.0678 192.768 29.2685 193.029 29.5459C193.359 29.8798 193.667 30.2359 193.95 30.6115C194.259 31.0165 194.594 31.4534 194.956 31.917C195.316 32.3896 195.715 32.8299 196.15 33.2331C196.604 33.6491 197.107 34.007 197.647 34.2988C198.271 34.6203 198.947 34.826 199.642 34.9062C200.088 34.9599 200.539 34.9509 200.983 34.8796C201.382 34.8091 201.772 34.6929 202.145 34.5332C202.555 34.3671 202.952 34.1712 203.334 33.9471C203.721 33.7233 204.104 33.4782 204.475 33.2171L204.318 32.9667C203.817 33.3098 203.29 33.6127 202.742 33.8725ZM190.698 28.5974H187.248V19.3367H191.557C192.042 19.3332 192.52 19.4502 192.95 19.6777C193.375 19.9117 193.744 20.2394 194.029 20.6368C194.336 21.0768 194.563 21.5696 194.699 22.0915C194.871 22.7046 194.954 23.3401 194.945 23.9777C194.954 24.615 194.85 25.2487 194.636 25.848C194.449 26.3906 194.153 26.8877 193.767 27.3079C193.39 27.7168 192.931 28.0385 192.421 28.2511C191.876 28.4793 191.293 28.597 190.704 28.5974H190.698Z" fill="#D9A528"/>
<path d="M53.647 34.3467C53.1723 34.5818 52.6685 34.7503 52.1494 34.8475C51.63 34.9442 51.0978 34.9442 50.5785 34.8475C50.0256 34.7289 49.5041 34.4908 49.0494 34.1495C48.5277 33.7828 48.0497 33.3554 47.6251 32.876C47.1905 32.3432 46.7559 31.853 46.316 31.3468C45.892 30.8538 45.4335 30.3926 44.9441 29.9667C44.5101 29.5754 43.9944 29.2894 43.436 29.1302C43.9646 28.9867 44.4694 28.764 44.9336 28.4695C45.3632 28.1939 45.7468 27.8504 46.0699 27.4517C46.3849 27.0487 46.6277 26.5924 46.7873 26.1037C46.9613 25.5895 47.048 25.0489 47.0439 24.5052C47.0526 23.8222 46.939 23.1433 46.7088 22.5017C46.5059 21.9221 46.1887 21.3908 45.7767 20.9405C45.3719 20.5065 44.881 20.165 44.3367 19.9387C43.7431 19.6944 43.1076 19.573 42.4673 19.5817H35.9951V19.9228H36.1522C36.2846 19.919 36.4157 19.9499 36.5331 20.0124C36.6504 20.0749 36.75 20.1669 36.8225 20.2798C36.997 20.5573 37.083 20.883 37.0686 21.2122V32.2793C37.0838 32.6136 36.9979 32.9446 36.8225 33.2277C36.75 33.3405 36.6504 33.4326 36.5331 33.4951C36.4157 33.5576 36.2846 33.5884 36.1522 33.5847H35.9951V33.9097H39.2312V33.5847H39.0741C38.9434 33.5871 38.8142 33.5556 38.6988 33.4931C38.5834 33.4307 38.4855 33.3393 38.4143 33.2277C38.2306 32.948 38.1406 32.6153 38.1577 32.2793V29.338H41.6085C41.9122 29.338 42.1845 29.338 42.4202 29.3646C42.6084 29.3796 42.7955 29.4063 42.9805 29.4446C43.3443 29.5489 43.6736 29.7514 43.9335 30.0307C44.2648 30.3635 44.5728 30.7196 44.8551 31.0964C45.164 31.5013 45.4992 31.9382 45.8605 32.4018C46.2221 32.8733 46.6214 33.3135 47.0544 33.7179C47.5089 34.1341 48.0118 34.492 48.552 34.7836C49.1748 35.1096 49.8509 35.3172 50.547 35.3964C50.9901 35.4429 51.4372 35.4304 51.8771 35.3591C52.2763 35.2867 52.6663 35.1688 53.0396 35.0074C53.4499 34.8453 53.8473 34.6512 54.2282 34.4266C54.6157 34.2028 54.998 33.9577 55.3697 33.6913L55.2127 33.4408C54.7145 33.7834 54.191 34.0862 53.647 34.3467ZM41.6033 29.0716H38.1577V19.8109H42.4516C42.9365 19.8047 43.4153 19.9219 43.8445 20.1519C44.2714 20.3855 44.6417 20.7132 44.9284 21.111C45.2421 21.554 45.4761 22.0501 45.6196 22.5763C45.7915 23.1913 45.8744 23.8285 45.8657 24.4679C45.874 25.1047 45.7712 25.7379 45.562 26.3381C45.3704 26.8799 45.0729 27.3765 44.6875 27.7981C44.3091 28.2052 43.8505 28.5266 43.3418 28.7412C42.7909 28.9661 42.202 29.0783 41.6085 29.0716H41.6033Z" fill="#D9A528"/>
</g>
<defs>
<clipPath id="clip0_293_989">
<rect width="210" height="43" fill="white"/>
</clipPath>
</defs>
</svg>
