<svg width="5" height="9" viewBox="0 0 5 9" fill="none" xmlns="http://www.w3.org/2000/svg">
<g id="Isolation_Mode" clip-path="url(#clip0_31_8245)">
<path id="Vector" d="M-0.000118347 4.58926C0.00167697 4.28201 0.0636758 3.97822 0.182249 3.69566C0.300822 3.41311 0.473586 3.15748 0.690429 2.94371C1.52376 2.10524 2.35913 1.26885 3.19652 0.43452C3.53646 0.095272 4.00953 0.0916471 4.31441 0.416414C4.61929 0.741181 4.59744 1.20299 4.2636 1.5381C3.45059 2.35381 2.63758 3.16762 1.82457 3.97954C1.41197 4.39326 1.41502 4.8194 1.83372 5.23415C2.64673 6.03917 3.45974 6.84402 4.27275 7.64869C4.53392 7.90727 4.59642 8.23668 4.45516 8.54852C4.39229 8.69056 4.2884 8.80976 4.15732 8.89022C4.02625 8.97069 3.8742 9.00861 3.72143 8.99895C3.52903 8.98737 3.34782 8.90309 3.2133 8.76263C2.37319 7.93106 1.53341 7.09897 0.693983 6.26637C0.472361 6.04951 0.296511 5.78895 0.177169 5.5006C0.0578269 5.21224 -0.00249588 4.90214 -0.000118347 4.58926Z" fill="#A3AED0"/>
</g>
<defs>
<clipPath id="clip0_31_8245">
<rect width="5.00006" height="9.00043" fill="white" transform="translate(5 9.00043) rotate(-180)"/>
</clipPath>
</defs>
</svg>
