<svg width="21" height="30" viewBox="0 0 21 30" fill="none" xmlns="http://www.w3.org/2000/svg">
<g id="Layer_1" clip-path="url(#clip0_719_128)">
<path id="Vector" d="M9.9149 29.8753C9.71292 29.7388 9.46728 29.7255 9.24503 29.6413C7.94116 29.1555 6.9999 27.8165 6.99756 26.4245C6.99756 25.7515 7.47482 25.2306 8.11428 25.2064C8.77401 25.1822 9.29572 25.6743 9.33081 26.3535C9.36746 27.0554 9.85719 27.5459 10.5123 27.5389C11.154 27.5319 11.6297 27.0437 11.6656 26.3551C11.7015 25.6665 12.2216 25.1854 12.8806 25.2064C13.5208 25.2298 14.0004 25.7523 13.9989 26.423C13.9989 28.0926 12.702 29.5844 11.0503 29.8168C11.0106 29.823 10.9723 29.8269 10.9653 29.8737L9.9149 29.8753Z" fill="#787878"/>
<path id="Vector_2" d="M10.4987 22.8735C8.17479 22.8735 5.8509 22.8782 3.52701 22.8735C1.48932 22.8689 -0.0960628 21.2258 0.0045351 19.1943C0.0653617 17.9645 0.648671 17.0108 1.70768 16.3752C2.14594 16.1148 2.33154 15.7638 2.33154 15.2788C2.33154 13.7519 2.33154 12.2252 2.33154 10.6989C2.33154 6.5104 5.04534 3.2312 9.15971 2.45293C9.29073 2.42875 9.33908 2.38588 9.33596 2.25097C9.32816 1.90082 9.3305 1.54914 9.33596 1.20056C9.34375 0.515089 9.84441 0.00195312 10.501 0.00195312C11.1576 0.00195312 11.6591 0.514308 11.6708 1.199C11.6708 1.539 11.6793 1.87978 11.6708 2.21978C11.6653 2.37575 11.7144 2.43033 11.8751 2.45373C13.4498 2.7219 14.9114 3.44557 16.0793 4.53532C17.2472 5.62506 18.0703 7.03313 18.4467 8.58551C18.6032 9.23807 18.6817 9.90693 18.6806 10.578C18.6806 12.1236 18.6806 13.67 18.6806 15.2156C18.6806 15.7358 18.8545 16.1109 19.3279 16.3854C20.6801 17.1738 21.304 18.7857 20.8876 20.3118C20.4867 21.7818 19.1064 22.8595 17.5733 22.8665C15.2198 22.8774 12.867 22.8665 10.5135 22.8665L10.4987 22.8735ZM10.487 20.5395C12.8109 20.5395 15.135 20.5395 17.4594 20.5395C18.0388 20.5395 18.4732 20.205 18.6237 19.6684C18.7649 19.1545 18.5574 18.6414 18.0607 18.3544C16.8683 17.6658 16.3451 16.6084 16.3349 15.264C16.3279 13.8923 16.3349 12.5213 16.3349 11.1504C16.3475 10.7033 16.3332 10.2559 16.292 9.81062C15.8623 6.28735 12.4233 3.95177 8.99829 4.86339C7.76469 5.19513 6.67362 5.92161 5.89179 6.93184C5.10997 7.94207 4.68038 9.18052 4.66868 10.4579C4.65777 12.101 4.68428 13.7449 4.66011 15.388C4.64139 16.6357 4.12592 17.6386 3.03183 18.2983C2.45787 18.6445 2.22314 19.1288 2.37677 19.6762C2.53273 20.2385 2.97256 20.5403 3.63463 20.5411L10.487 20.5395Z" fill="#787878"/>
</g>
<defs>
<clipPath id="clip0_719_128">
<rect width="21" height="29.8752" fill="white"/>
</clipPath>
</defs>
</svg>
