<svg width="20" height="24" viewBox="0 0 20 24" fill="none" xmlns="http://www.w3.org/2000/svg">
<g id="Isolation_Mode" clip-path="url(#clip0_117_4205)">
<path id="Vector" d="M14.8198 -1.08215e-05C15.0186 0.090912 15.2386 0.0812121 15.4472 0.12728C17.9094 0.672817 19.7054 2.85497 19.723 5.37111C19.7399 7.74844 19.7284 10.1264 19.7266 12.5037C19.7266 13.0523 19.3302 13.4554 18.8101 13.4511C18.29 13.4469 17.9106 13.0414 17.9106 12.4867C17.9106 10.1549 17.9106 7.81935 17.9106 5.49052C17.9106 3.71146 16.7267 2.26154 14.9841 1.88936C14.7394 1.83927 14.4901 1.8151 14.2403 1.81723C11.4767 1.81723 8.713 1.81723 5.94935 1.81723C3.88843 1.81723 2.28275 3.42535 2.27971 5.4893C2.27608 7.82178 2.27971 10.1536 2.27971 12.4855C2.27971 13.1583 1.69962 13.6014 1.08983 13.4038C0.705529 13.279 0.46367 12.9371 0.46367 12.5013C0.46367 10.1312 0.46367 7.76116 0.46367 5.39111C0.458318 4.91348 0.526819 4.4379 0.666737 3.98119C1.36866 1.77298 2.86829 0.46551 5.14439 0.0490837C5.19167 0.0405975 5.25532 0.0690888 5.27956 -0.00183105L14.8198 -1.08215e-05Z" fill="white"/>
<path id="Vector_2" d="M8.72958 23.2678C8.71018 23.1987 8.64351 23.2151 8.59865 23.1999C7.8149 22.9368 7.36755 22.3222 7.36634 21.4918C7.36634 19.9479 7.39362 18.4034 7.35604 16.8608C7.33179 15.8582 8.07917 14.8532 9.43453 15.0078C11.3215 15.2235 12.7362 16.5074 13.1133 18.3658C13.5794 20.6692 11.9434 22.9387 9.61396 23.2242C9.58304 23.2278 9.55334 23.2314 9.54728 23.2678H8.72958ZM9.18358 19.1163C9.18358 19.8352 9.18904 20.5541 9.17994 21.2729C9.17994 21.4348 9.22845 21.4548 9.3721 21.4336C10.5365 21.2517 11.3591 20.3122 11.3651 19.149C11.3712 17.9731 10.5535 17.0226 9.38119 16.8329C9.21995 16.8062 9.17752 16.8377 9.17994 17.005C9.18964 17.7088 9.18419 18.4125 9.18419 19.1163H9.18358Z" fill="white"/>
<path id="Vector_3" d="M0.641294 23.2678C0.617654 23.1878 0.536421 23.1921 0.481261 23.1593C0.185459 22.9835 0.00907972 22.7277 0.00786742 22.3834C0.0030182 20.8165 -0.00911551 19.249 0.0120998 17.6821C0.0278598 16.5013 0.917091 15.4169 2.07848 15.0963C3.27684 14.7653 4.60007 15.2672 5.26199 16.3256C5.86027 17.2821 5.91117 18.2846 5.37412 19.2751C4.83707 20.2656 3.9618 20.7784 2.82466 20.8129C2.55249 20.8208 2.27912 20.822 2.00756 20.8129C1.8633 20.8075 1.81359 20.8426 1.81904 20.9948C1.83117 21.3427 1.80085 21.693 1.82752 22.0392C1.87238 22.6108 1.696 23.0405 1.14137 23.269L0.641294 23.2678ZM1.82268 18.2974C1.82268 18.4792 1.83177 18.6611 1.81965 18.8429C1.81116 18.9775 1.86208 19.006 1.98574 19.0017C2.26517 18.9932 2.54583 19.0017 2.82587 18.9975C2.98059 18.9979 3.13361 18.9653 3.27471 18.9018C3.41582 18.8383 3.54175 18.7455 3.64407 18.6294C3.7464 18.5134 3.82276 18.3768 3.86806 18.2289C3.91336 18.0809 3.92655 17.925 3.90675 17.7716C3.88695 17.6181 3.83461 17.4707 3.75324 17.3391C3.67187 17.2075 3.56333 17.0948 3.43489 17.0085C3.30646 16.9222 3.16109 16.8643 3.0085 16.8388C2.85591 16.8132 2.69961 16.8205 2.55007 16.8602C2.09788 16.9911 1.82268 17.376 1.82268 17.8906C1.81965 18.0222 1.82268 18.1586 1.82268 18.2949V18.2974Z" fill="white"/>
<path id="Vector_4" d="M15.3647 23.2677C15.3417 23.1877 15.2605 23.192 15.2053 23.1592C14.9095 22.9834 14.7331 22.7276 14.7319 22.3834C14.7264 20.8158 14.7107 19.2489 14.7367 17.682C14.7598 16.2697 15.9957 15.0465 17.4038 15.0022C17.9706 14.9841 18.5391 14.9907 19.1065 15.0022C19.3341 15.02 19.5467 15.1228 19.7021 15.2901C19.8574 15.4574 19.9441 15.6771 19.9449 15.9054C19.9458 16.1337 19.8607 16.3539 19.7066 16.5224C19.5525 16.6909 19.3406 16.7952 19.1132 16.8146C18.6137 16.8249 18.1142 16.8146 17.6141 16.8183C16.9698 16.8183 16.5443 17.2426 16.5467 17.8821C16.5467 18.1288 16.4394 18.4591 16.5903 18.5979C16.7225 18.7192 17.0492 18.6343 17.2905 18.6349C17.873 18.6349 18.4561 18.6349 19.0392 18.6349C19.592 18.6349 19.9957 19.0204 19.9969 19.5399C19.9981 20.0594 19.595 20.4491 19.0447 20.4491C18.2724 20.4491 17.5008 20.4534 16.7285 20.4491C16.5843 20.4491 16.5364 20.4794 16.54 20.631C16.551 21.0995 16.52 21.5711 16.5503 22.0385C16.5873 22.6107 16.417 23.0398 15.8624 23.2683L15.3647 23.2677Z" fill="white"/>
<path id="Vector_5" d="M14.281 9.27053C13.6918 9.27538 13.1032 9.29356 12.5322 9.08868C11.9197 8.86944 11.3885 8.46872 11.0095 7.93992C10.6304 7.41112 10.4216 6.77936 10.4107 6.12884C10.4059 5.61422 10.4077 5.09838 10.4107 4.58497C10.4107 4.03579 10.8029 3.6321 11.3199 3.63392C11.837 3.63574 12.2219 4.03882 12.2249 4.59285C12.2249 5.07777 12.2249 5.56269 12.2249 6.04761C12.2298 6.86107 12.8147 7.44783 13.627 7.45328C14.1119 7.45328 14.5968 7.45328 15.0817 7.45328C15.6357 7.45328 16.04 7.83637 16.0437 8.35463C16.0473 8.8832 15.64 9.2675 15.0738 9.27053C14.8108 9.27053 14.5489 9.27053 14.281 9.27053Z" fill="white"/>
</g>
<defs>
<clipPath id="clip0_117_4205">
<rect width="20" height="23.2678" fill="white"/>
</clipPath>
</defs>
</svg>
