<svg width="18" height="19" viewBox="0 0 18 19" fill="none" xmlns="http://www.w3.org/2000/svg">
<g id="Isolation_Mode" clip-path="url(#clip0_415_5269)">
<path id="Vector" d="M8.36733 0H8.82448C8.87915 0.0269049 8.93927 0.0408987 9.0002 0.0408987C9.06113 0.0408987 9.12125 0.0269049 9.17592 0H9.52736C9.54333 0.0469839 9.58374 0.0310128 9.61569 0.0328922C10.3225 0.0772667 11.022 0.20243 11.7004 0.405942C15.3595 1.47576 18.3171 5.26972 17.9732 9.56499C17.7951 11.7864 16.9536 13.7146 15.4163 15.3229C14.0124 16.7916 12.2909 17.6556 10.2786 17.938C10.04 17.9713 9.79517 17.9591 9.56259 18.0352H9.3164C9.0972 17.9793 8.86749 17.9793 8.64829 18.0352H8.36639C8.34101 17.9737 8.28557 18.0024 8.24423 17.9986C7.43094 17.9253 6.6308 17.7796 5.87107 17.4761C2.5822 16.1606 0.71506 13.7047 0.0976913 10.2463C0.0624534 10.0484 0.0798357 9.84172 -0.000976562 9.6519V8.17191C0.055874 8.15359 0.0328517 8.10379 0.0370803 8.06808C0.0936081 7.53778 0.193869 7.01306 0.336838 6.49929C1.17832 3.5393 3.87144 0.47642 8.00038 0.0624923C8.12489 0.0502764 8.25551 0.0775234 8.36733 0ZM8.99221 16.5792C13.1089 16.5449 16.4786 13.6737 16.5782 8.99366C16.6666 4.83699 13.2024 1.42267 9.01383 1.40388C4.84354 1.38462 1.3484 4.80693 1.42029 8.97863C1.50016 13.5873 4.80829 16.5313 8.99221 16.5792Z" fill="#787878"/>
<path id="Vector_2" d="M8.64844 18.0353C8.86763 17.9794 9.09735 17.9794 9.31655 18.0353H8.64844Z" fill="#787878"/>
<path id="Vector_3" d="M9.1759 0C9.12123 0.0269049 9.06111 0.0408987 9.00018 0.0408987C8.93925 0.0408987 8.87913 0.0269049 8.82446 0H9.1759Z" fill="#787878"/>
<path id="Vector_4" d="M4.91928 4.21818C5.1542 4.21443 5.32851 4.33189 5.48684 4.49116C6.60882 5.61627 7.73032 6.74201 8.85136 7.86837C8.96506 7.98301 9.02003 8.00086 9.14454 7.87494C10.2693 6.73606 11.3991 5.60202 12.534 4.47284C12.8901 4.11717 13.3703 4.13596 13.6442 4.51136C13.7347 4.62825 13.7841 4.77179 13.7846 4.91965C13.7851 5.0675 13.7367 5.21138 13.647 5.32888C13.5937 5.39891 13.535 5.46459 13.4713 5.52528C12.3578 6.64256 11.243 7.75842 10.127 8.87288C10.025 8.97437 10.0029 9.02417 10.1204 9.14069C11.2612 10.2721 12.393 11.4124 13.5291 12.5484C13.7349 12.7542 13.834 12.9896 13.7532 13.2804C13.7232 13.3941 13.6649 13.4983 13.5837 13.5834C13.5026 13.6685 13.4012 13.7316 13.2891 13.767C13.1769 13.8024 13.0577 13.8088 12.9424 13.7856C12.8272 13.7625 12.7196 13.7106 12.6298 13.6347C12.5758 13.5877 12.5269 13.5407 12.4771 13.4891C11.3626 12.3727 10.2493 11.2554 9.13702 10.1372C9.03272 10.0324 8.9815 10.0174 8.86827 10.1325C7.74066 11.2705 6.60882 12.4009 5.47932 13.5351C5.29139 13.723 5.07809 13.8372 4.8037 13.7869C4.67801 13.7686 4.56007 13.715 4.46354 13.6325C4.36701 13.5499 4.29582 13.4417 4.25821 13.3204C4.21125 13.1987 4.20154 13.0657 4.23032 12.9385C4.2591 12.8112 4.32507 12.6954 4.41984 12.6058C4.77128 12.2444 5.1307 11.8902 5.48684 11.5331C6.28181 10.7344 7.07537 9.93565 7.87504 9.14539C7.98028 9.04108 7.99438 8.98987 7.8802 8.87617C6.74413 7.74856 5.61229 6.61656 4.48468 5.48017C4.17317 5.16726 4.12995 4.81018 4.36158 4.50291C4.42631 4.41568 4.51033 4.34459 4.60707 4.2952C4.70381 4.24581 4.81067 4.21946 4.91928 4.21818Z" fill="#787878"/>
</g>
<defs>
<clipPath id="clip0_415_5269">
<rect width="18" height="18.0348" fill="white"/>
</clipPath>
</defs>
</svg>
