<svg width="18" height="19" viewBox="0 0 18 19" fill="none" xmlns="http://www.w3.org/2000/svg">
<g id="Isolation_Mode" clip-path="url(#clip0_100_4550)">
<path id="Vector" d="M8.36733 0H8.82448C8.87915 0.0269049 8.93927 0.0408987 9.0002 0.0408987C9.06113 0.0408987 9.12125 0.0269049 9.17592 0H9.52736C9.54333 0.0469839 9.58374 0.0310128 9.61569 0.0328922C10.3225 0.0772667 11.022 0.20243 11.7004 0.405942C15.3595 1.47576 18.3171 5.26972 17.9732 9.56499C17.7951 11.7864 16.9536 13.7146 15.4163 15.3229C14.0124 16.7916 12.2909 17.6556 10.2786 17.938C10.04 17.9713 9.79517 17.9591 9.56259 18.0352H9.3164C9.0972 17.9793 8.86749 17.9793 8.64829 18.0352H8.36639C8.34101 17.9737 8.28557 18.0024 8.24423 17.9986C7.43094 17.9253 6.6308 17.7796 5.87107 17.4761C2.5822 16.1606 0.71506 13.7047 0.0976913 10.2463C0.0624534 10.0484 0.0798357 9.84172 -0.000976562 9.6519V8.17191C0.055874 8.15359 0.0328517 8.10379 0.0370803 8.06808C0.0936081 7.53778 0.193869 7.01306 0.336838 6.49929C1.17832 3.5393 3.87144 0.47642 8.00038 0.0624923C8.12489 0.0502764 8.25551 0.0775234 8.36733 0ZM8.99221 16.5792C13.1089 16.5449 16.4786 13.6737 16.5782 8.99366C16.6666 4.83699 13.2024 1.42267 9.01383 1.40388C4.84354 1.38462 1.3484 4.80693 1.42029 8.97863C1.50016 13.5873 4.80829 16.5313 8.99221 16.5792Z" fill="#C1C4C7"/>
<path id="Vector_2" d="M8.64844 18.0351C8.86763 17.9792 9.09735 17.9792 9.31655 18.0351H8.64844Z" fill="#C1C4C7"/>
<path id="Vector_3" d="M9.1759 0C9.12123 0.0269049 9.06111 0.0408987 9.00018 0.0408987C8.93925 0.0408987 8.87913 0.0269049 8.82446 0H9.1759Z" fill="#C1C4C7"/>
<path id="Vector_4" d="M4.91928 4.21843C5.1542 4.21467 5.32851 4.33213 5.48684 4.49141C6.60882 5.61652 7.73032 6.74225 8.85136 7.86861C8.96506 7.98325 9.02003 8.00111 9.14454 7.87519C10.2693 6.7363 11.3991 5.60226 12.534 4.47308C12.8901 4.11742 13.3703 4.13621 13.6442 4.51161C13.7347 4.62849 13.7841 4.77203 13.7846 4.91989C13.7851 5.06774 13.7367 5.21162 13.647 5.32913C13.5937 5.39916 13.535 5.46483 13.4713 5.52552C12.3578 6.6428 11.243 7.75867 10.127 8.87313C10.025 8.97461 10.0029 9.02441 10.1204 9.14093C11.2612 10.2723 12.393 11.4126 13.5291 12.5487C13.7349 12.7545 13.834 12.9899 13.7532 13.2807C13.7232 13.3944 13.6649 13.4986 13.5837 13.5837C13.5026 13.6687 13.4012 13.7319 13.2891 13.7673C13.1769 13.8026 13.0577 13.809 12.9424 13.7859C12.8272 13.7628 12.7196 13.7108 12.6298 13.6349C12.5758 13.588 12.5269 13.541 12.4771 13.4893C11.3626 12.373 10.2493 11.2557 9.13702 10.1375C9.03272 10.0327 8.9815 10.0177 8.86827 10.1328C7.74066 11.2707 6.60882 12.4011 5.47932 13.5353C5.29139 13.7233 5.07809 13.8374 4.8037 13.7872C4.67801 13.7688 4.56007 13.7153 4.46354 13.6327C4.36701 13.5501 4.29582 13.4419 4.25821 13.3206C4.21125 13.1989 4.20154 13.066 4.23032 12.9387C4.2591 12.8115 4.32507 12.6957 4.41984 12.606C4.77128 12.2447 5.1307 11.8904 5.48684 11.5334C6.28181 10.7346 7.07537 9.9359 7.87504 9.14563C7.98028 9.04133 7.99438 8.99011 7.8802 8.87641C6.74413 7.7488 5.61229 6.6168 4.48468 5.48042C4.17317 5.1675 4.12995 4.81043 4.36158 4.50315C4.42631 4.41593 4.51033 4.34484 4.60707 4.29545C4.70381 4.24606 4.81067 4.2197 4.91928 4.21843Z" fill="#C1C4C7"/>
</g>
<defs>
<clipPath id="clip0_100_4550">
<rect width="18" height="18.0348" fill="white"/>
</clipPath>
</defs>
</svg>
