<svg width="25" height="25" viewBox="0 0 25 25" fill="none" xmlns="http://www.w3.org/2000/svg">
<g id="Layer_1" clip-path="url(#clip0_719_413)">
<path id="Vector" d="M0 11.6684C0.105703 11.4903 0.0913519 11.2835 0.134416 11.091C0.728831 8.42689 3.03406 6.50727 5.75819 6.49292C10.2486 6.46899 14.7394 6.46899 19.2307 6.49292C22.4194 6.51315 24.9615 9.10286 24.9954 12.2929C25.0026 12.9597 25 13.6272 24.9954 14.294C24.9954 14.8813 24.5648 15.323 24.0167 15.3191C23.4686 15.3152 23.0491 14.8741 23.0465 14.2836C23.0465 13.6494 23.0465 13.0145 23.0465 12.3796C23.038 10.1579 21.3252 8.44059 19.1028 8.43864C14.7016 8.43472 10.3001 8.43472 5.89848 8.43864C3.67611 8.43864 1.96007 10.1592 1.95615 12.3796C1.95224 14.6001 1.95615 16.8381 1.95615 19.0676C1.95615 21.2972 3.66697 23.0191 5.90826 23.0328C7.63278 23.0439 9.35796 23.0328 11.0825 23.036C11.5627 23.036 11.9222 23.2833 12.0612 23.6951C12.2778 24.3475 11.8067 24.9804 11.0825 24.9863C9.98456 24.9942 8.88642 24.9942 7.78807 24.9863C6.97442 24.9811 6.16143 25.017 5.34843 24.957C2.86572 24.7723 0.683159 22.869 0.144858 20.4209C0.101141 20.2206 0.118103 20.0046 0.00261249 19.8219L0 11.6684Z" fill="#787878"/>
<path id="Vector_2" d="M12.8894 0.00132451C13.1034 0.095935 13.3396 0.0874469 13.5628 0.142256C14.3668 0.334704 15.0912 0.772346 15.6356 1.3946C16.18 2.01685 16.5175 2.79293 16.6014 3.61544C16.6268 3.84968 16.679 4.08327 16.6314 4.31882C16.5335 4.80557 16.0794 5.15597 15.609 5.11486C15.363 5.09708 15.1327 4.98765 14.9636 4.80823C14.7944 4.62882 14.6988 4.39247 14.6955 4.14592C14.6492 3.04583 13.9777 2.21521 12.9553 1.99271C12.6426 1.92615 12.3191 1.92867 12.0074 2.00009C11.6958 2.07151 11.4035 2.21012 11.151 2.40622C10.8985 2.60232 10.6918 2.8512 10.5454 3.13546C10.3991 3.41971 10.3165 3.7325 10.3036 4.05196C10.2795 4.65094 9.99431 5.00981 9.47885 5.09071C8.87204 5.18598 8.33896 4.75925 8.35331 4.14461C8.40486 1.95552 9.78422 0.44959 11.6764 0.0907227C11.7723 0.0724531 11.8878 0.0959343 11.9609 0.000671387H12.2539C12.3299 0.0379962 12.4135 0.0573975 12.4982 0.0573975C12.5829 0.0573975 12.6665 0.0379962 12.7426 0.000671387L12.8894 0.00132451Z" fill="#787878"/>
<path id="Vector_3" d="M12.7431 0.00128174C12.6671 0.0386065 12.5835 0.0580079 12.4988 0.0580079C12.414 0.0580079 12.3304 0.0386065 12.2544 0.00128174H12.7431Z" fill="#787878"/>
<path id="Vector_4" d="M20.4627 13.8595C21.2509 13.7759 21.6809 14.4271 21.5889 14.9837C21.5086 15.4665 21.1361 15.7817 20.5664 15.8124C19.9081 15.8482 19.3189 16.0577 18.87 16.5542C18.2005 17.2974 18.0537 18.1685 18.3858 19.0989C18.7121 20.0007 19.3946 20.4959 20.3355 20.6081C21.7827 20.781 22.9839 19.7299 23.0413 18.2657C23.0655 17.6511 23.4609 17.2446 24.0266 17.2511C24.606 17.2583 24.9962 17.6843 24.9942 18.3075C24.9883 20.3256 23.4459 22.1362 21.4264 22.5127C20.4216 22.7 19.469 22.578 18.5757 22.0749C18.4452 22.0012 18.38 22.0423 18.2899 22.133C17.4586 22.9695 16.6222 23.8007 15.7909 24.6372C15.5547 24.8747 15.2819 25.0157 14.9427 24.9804C14.5414 24.9387 14.266 24.7142 14.1264 24.3417C13.9809 23.9547 14.0611 23.6037 14.3554 23.3114C15.1475 22.5153 15.9364 21.7167 16.7403 20.9337C16.936 20.7458 16.981 20.6297 16.8264 20.3648C15.2043 17.5799 17.2609 13.9188 20.4627 13.8595Z" fill="#787878"/>
<path id="Vector_5" d="M10.3016 12.3431C12.0992 12.3431 13.8975 12.3398 15.6951 12.3431C16.4076 12.3431 16.8741 13.0001 16.6386 13.648C16.4905 14.0558 16.1212 14.2927 15.6194 14.2927C14.1056 14.2927 12.5923 14.2927 11.0794 14.2927C10.0785 14.2927 9.07823 14.2986 8.07797 14.2875C7.88744 14.2875 7.85221 14.3423 7.85743 14.5172C7.86983 14.9641 7.86461 15.4124 7.8607 15.8593C7.85613 16.4433 7.42288 16.8876 6.87283 16.8785C6.32278 16.8694 5.91302 16.4329 5.90911 15.8606C5.90911 15.4039 5.90258 14.9472 5.90911 14.4904C5.90911 14.3397 5.88366 14.2757 5.71336 14.2855C5.44584 14.3012 5.17637 14.2953 4.9082 14.2855C4.32096 14.2699 3.89293 13.8392 3.90402 13.2833C3.91511 12.7274 4.34249 12.3352 4.92907 12.3346C6.7208 12.3389 8.51165 12.3418 10.3016 12.3431Z" fill="#787878"/>
</g>
<defs>
<clipPath id="clip0_719_413">
<rect width="25" height="24.9922" fill="white"/>
</clipPath>
</defs>
</svg>
