<svg width="25" height="25" viewBox="0 0 25 25" fill="none" xmlns="http://www.w3.org/2000/svg">
<g id="bar" clip-path="url(#clip0_54_6273)">
<path id="Vector" d="M0.00326314 11.479C0.121382 11.2088 0.0985409 10.9145 0.144875 10.6306C0.266383 9.85225 0.458157 9.08648 0.717847 8.34269C0.890783 7.85781 1.33063 7.61896 1.8416 7.71162C2.52813 7.83561 2.89488 7.67574 3.20878 7.11516C3.47895 6.63355 3.40455 6.04557 3.01757 5.59724C2.54183 5.04581 2.54509 4.60791 3.03062 4.07018C4.93683 1.95775 7.27244 0.599067 10.0681 0.0306628C10.598 -0.0776668 11.062 0.189899 11.2337 0.704138C11.2655 0.813148 11.305 0.919776 11.3518 1.02325C11.5919 1.50551 12.0912 1.80635 12.6002 1.75349C13.1744 1.69215 13.5588 1.36586 13.7311 0.819648C13.8616 0.39677 14.1044 0.101795 14.5514 0.0143481C14.832 -0.0411219 15.1002 0.0600229 15.3665 0.122019C16.5851 0.407415 17.7539 0.874451 18.8337 1.50746C19.3558 1.81287 19.5294 2.36497 19.2572 2.85703C18.9851 3.34908 18.3984 3.50309 17.8672 3.20159C17.128 2.777 16.3443 2.43515 15.5303 2.18224C15.3645 2.13134 15.2693 2.13657 15.1557 2.29971C13.844 4.18569 11.156 4.18242 9.84625 2.29383C9.73988 2.14048 9.657 2.12807 9.49385 2.17702C7.84399 2.66918 6.33496 3.54695 5.09149 4.73777C4.96098 4.85785 4.92639 4.94074 5.01123 5.12216C5.86742 6.95462 4.83959 9.16429 2.92294 9.64068C2.8151 9.67681 2.70251 9.69682 2.58882 9.70006C2.37281 9.687 2.30494 9.79338 2.26252 9.98459C1.86053 11.6944 1.854 13.3996 2.29254 15.1028C2.31669 15.1981 2.31669 15.2849 2.46026 15.2914C4.39583 15.3828 6.02404 17.6832 5.02167 19.8746C4.94336 20.0442 4.95314 20.1323 5.08693 20.2609C6.34269 21.4622 7.86724 22.3462 9.53366 22.8393C9.66418 22.8784 9.73923 22.8699 9.82994 22.7394C11.1658 20.8078 13.8453 20.8058 15.1812 22.7349C15.2686 22.8615 15.3437 22.8837 15.4761 22.8438C17.1578 22.344 18.6949 21.4477 19.9581 20.2302C20.0756 20.118 20.0697 20.0377 20.0057 19.9039C19.1404 18.0591 20.1617 15.8422 22.094 15.3652C22.2018 15.3283 22.3148 15.3087 22.4288 15.3071C22.652 15.3254 22.7094 15.2046 22.7551 15.0187C23.1644 13.3357 23.155 11.5782 22.7277 9.89975C22.6924 9.76206 22.6402 9.72943 22.5052 9.71247C21.1523 9.54214 20.2792 8.75381 19.8615 7.49953C19.436 6.21981 19.7689 5.07647 20.7164 4.12435C21.0793 3.75955 21.6685 3.785 22.0405 4.14197C22.2223 4.31509 22.3297 4.55201 22.3402 4.80279C22.3506 5.05358 22.2633 5.29864 22.0966 5.48631C21.9009 5.70949 21.7364 5.9431 21.6731 6.23938C21.4819 7.13865 22.2193 7.90087 23.1153 7.72336C23.7027 7.60786 24.136 7.86302 24.3265 8.43078C25.2402 11.1508 25.2402 13.8699 24.3265 16.5881C24.1445 17.1317 23.7105 17.3921 23.1519 17.291C22.4915 17.1702 22.1404 17.3216 21.8206 17.8646C21.5354 18.3475 21.5909 18.9361 21.9766 19.3825C22.143 19.5783 22.3029 19.7656 22.329 20.0351C22.3479 20.1766 22.3358 20.3205 22.2935 20.4569C22.2513 20.5932 22.1799 20.7187 22.0842 20.8247C20.2067 22.9489 17.8914 24.3337 15.1192 24.9471C15.0467 24.9635 14.9528 24.9125 14.9012 25.0052H14.4614C14.0639 24.8225 13.8368 24.519 13.7011 24.0962C13.6152 23.8436 13.4509 23.625 13.2321 23.4724C13.0132 23.3198 12.7514 23.2411 12.4847 23.2478C12.2182 23.2531 11.9602 23.342 11.747 23.5019C11.5339 23.6619 11.3764 23.8848 11.297 24.1392C11.1664 24.5706 10.9237 24.8571 10.506 25.0052H10.01C9.89585 24.8988 9.74184 24.9145 9.6061 24.8812C6.98726 24.241 4.78869 22.9065 2.99277 20.9004C2.55815 20.4149 2.55227 19.9294 2.98233 19.4458C3.39868 18.9779 3.48352 18.3873 3.20551 17.8927C2.88901 17.3275 2.53596 17.1748 1.81485 17.3001C1.32019 17.3843 0.884257 17.1415 0.715237 16.6658C0.45583 15.9232 0.263846 15.1588 0.141612 14.3817C0.0933205 14.0828 0.114856 13.7722 0 13.4844L0.00326314 11.479Z" fill="#787878"/>
<path id="Vector_2" d="M19.3366 12.4951C19.3425 16.2651 16.2694 19.3427 12.4968 19.3407C11.1452 19.3401 9.82413 18.9388 8.7005 18.1876C7.57687 17.4364 6.70112 16.369 6.18391 15.1203C5.66671 13.8716 5.53125 12.4975 5.79467 11.1719C6.05809 9.84617 6.70855 8.6283 7.66387 7.67216C8.61919 6.71602 9.83649 6.06452 11.162 5.79997C12.4874 5.53541 13.8616 5.66968 15.1107 6.18582C16.3599 6.70195 17.4281 7.57678 18.1802 8.69976C18.9324 9.82275 19.3348 11.1435 19.3366 12.4951ZM12.5007 17.3895C13.4663 17.3895 14.4103 17.1032 15.2132 16.5669C16.0162 16.0305 16.6421 15.2682 17.0118 14.3762C17.3816 13.4842 17.4786 12.5026 17.2906 11.5554C17.1026 10.6083 16.638 9.73816 15.9556 9.05501C15.2732 8.37185 14.4035 7.90636 13.4566 7.71734C12.5097 7.52833 11.528 7.62429 10.6356 7.9931C9.74319 8.36191 8.98016 8.987 8.44294 9.78937C7.90573 10.5917 7.61845 11.5354 7.61742 12.501C7.61949 13.7958 8.13454 15.037 9.0498 15.9529C9.96506 16.8687 11.2059 17.3846 12.5007 17.3875V17.3895Z" fill="#787878"/>
</g>
<defs>
<clipPath id="clip0_54_6273">
<rect width="25" height="25.0046" fill="white"/>
</clipPath>
</defs>
</svg>
