<svg width="15" height="15" viewBox="0 0 15 15" fill="none" xmlns="http://www.w3.org/2000/svg">
<g id="Layer_1" clip-path="url(#clip0_283_4675)">
<path id="Vector" d="M8.76096 -0.000196414C8.78093 0.0487349 8.83338 0.0389567 8.86978 0.0569634C8.98537 0.113722 9.07909 0.206894 9.13652 0.322148C9.19395 0.437403 9.2119 0.568344 9.1876 0.694801C9.16331 0.821257 9.09812 0.936222 9.00207 1.02199C8.90602 1.10776 8.78444 1.15958 8.65605 1.16946C8.60281 1.17338 8.54879 1.16946 8.49517 1.16946H3.0039C1.93249 1.16946 1.17425 1.93005 1.17425 3.00497V11.9962C1.17425 13.0598 1.93562 13.8231 2.99763 13.8231H12.0037C13.0665 13.8231 13.8279 13.0606 13.8279 11.997C13.8279 10.1371 13.8279 8.2773 13.8279 6.41765C13.8279 6.15303 13.9383 5.95495 14.1829 5.8473C14.4104 5.74709 14.6206 5.7921 14.8093 5.95025C14.9087 6.03363 14.951 6.15185 14.9999 6.26615V12.4468C14.9451 12.4859 14.9608 12.5517 14.9494 12.6034C14.686 13.9828 13.4983 14.9889 12.0949 14.9912C9.0291 14.9975 5.96339 14.9975 2.89781 14.9912C1.31087 14.9869 0.00929799 13.6845 0.00538348 12.0992C-0.00244553 9.02863 -0.00244553 5.95794 0.00538348 2.88714C0.00812363 1.60201 0.888495 0.464458 2.12313 0.110195C2.27462 0.0667443 2.43629 0.0643998 2.58074 -0.00292969L8.76096 -0.000196414Z" fill="#787878"/>
<path id="Vector_2" d="M4.39941 11.9481C4.13151 11.9433 3.86466 11.9132 3.60242 11.8581C3.35033 11.8037 3.1867 11.6416 3.14129 11.3864C2.86728 9.85193 3.24307 8.48969 4.32778 7.37288C5.82038 5.83565 7.35134 4.33639 8.86587 2.8207C9.49219 2.19242 10.1185 1.55984 10.7515 0.937431C12.0374 -0.324997 14.1696 0.214417 14.6617 1.93054C14.8919 2.73223 14.7243 3.46386 14.1919 4.10936C14.1355 4.17654 14.0756 4.24081 14.0127 4.30195C11.9322 6.38316 9.85154 8.46463 7.77059 10.5464C7.07576 11.2428 6.25763 11.6996 5.28723 11.8773C4.99422 11.9291 4.69693 11.9528 4.39941 11.9481ZM4.55599 10.7777C5.44576 10.7531 6.24158 10.418 6.9 9.75994C8.99792 7.66098 11.0961 5.56254 13.1945 3.46463C13.2337 3.42548 13.2701 3.38869 13.3049 3.34719C13.4982 3.1208 13.5979 2.82921 13.5837 2.53185C13.5695 2.23448 13.4425 1.95373 13.2284 1.7468C13.0144 1.53986 12.7296 1.42232 12.4319 1.41813C12.1342 1.41394 11.8461 1.52341 11.6264 1.72424C11.4338 1.90353 11.2533 2.09652 11.0639 2.27972C11.0126 2.32904 11.0134 2.358 11.0639 2.40732C11.1813 2.51771 11.2944 2.63202 11.406 2.74828C11.6409 2.99529 11.6444 3.35855 11.4123 3.58794C11.1801 3.81733 10.8282 3.81303 10.5832 3.58129C10.4696 3.47403 10.3573 3.3652 10.2528 3.24933C10.1917 3.18161 10.1573 3.18474 10.0931 3.24933C8.44584 4.90125 6.79001 6.54496 5.15022 8.20393C4.53055 8.83025 4.23696 9.6104 4.22678 10.4908C4.2213 10.8192 4.17942 10.7671 4.55364 10.7777H4.55599Z" fill="#787878"/>
</g>
<defs>
<clipPath id="clip0_283_4675">
<rect width="15" height="15" fill="white"/>
</clipPath>
</defs>
</svg>
