<svg width="16" height="21" viewBox="0 0 16 21" fill="none" xmlns="http://www.w3.org/2000/svg">
<g id="Layer_1" clip-path="url(#clip0_45_16424)">
<path id="Vector" d="M8.44472 0C8.75783 0.0917077 9.08451 0.115042 9.40033 0.201865C11.9302 0.899169 13.6422 3.40349 13.3693 6.02015C13.1028 8.57059 11.2269 10.5372 8.68512 10.9322C5.81233 11.3788 2.96234 9.29557 2.51574 6.42225C2.07131 3.56629 3.72259 0.981652 6.49336 0.188299C6.76468 0.1107 7.04632 0.106359 7.30733 0H8.44472ZM7.93463 1.62795C6.91084 1.62607 5.92805 2.03015 5.20168 2.75164C4.47531 3.47313 4.0646 4.45317 4.05958 5.47695C4.05252 7.60902 5.77652 9.35255 7.89882 9.35961C8.92228 9.36163 9.90482 8.95789 10.6312 8.23684C11.3575 7.51579 11.7684 6.53622 11.7739 5.51277C11.782 3.37853 10.0575 1.635 7.93463 1.6274V1.62795Z" fill="#7E7E80"/>
<path id="Vector_2" d="M14.9414 20.8296C14.9382 20.7867 14.9007 20.7797 14.8719 20.7661C14.5285 20.6033 14.3798 20.332 14.37 19.9565C14.3206 18.0718 13.5501 16.5454 12.0605 15.3982C11.0968 14.6488 9.91038 14.2426 8.68955 14.244C7.94015 14.2375 7.18967 14.2022 6.4419 14.3167C4.08029 14.6792 2.06924 16.6794 1.70729 19.0426C1.67039 19.2836 1.62209 19.531 1.63349 19.7692C1.65682 20.2685 1.4886 20.6331 1.01433 20.8296H0.567727C0.546564 20.7585 0.473848 20.7617 0.424467 20.7324C0.146088 20.5658 -0.00476887 20.3227 0.000114973 19.9972C0.0343018 17.8097 0.850445 15.9653 2.47079 14.5017C3.88168 13.2309 5.55304 12.6139 7.44851 12.6133C8.17783 12.6133 8.90987 12.5699 9.63539 12.6871C12.2477 13.1088 14.1329 14.5224 15.3006 16.891C15.7646 17.832 15.9654 18.8446 15.9996 19.8913C16.0148 20.3624 15.7901 20.6467 15.388 20.8296H14.9414Z" fill="#7E7E80"/>
</g>
<defs>
<clipPath id="clip0_45_16424">
<rect width="16" height="20.8296" fill="white"/>
</clipPath>
</defs>
</svg>
