<svg width="25" height="28" viewBox="0 0 25 28" fill="none" xmlns="http://www.w3.org/2000/svg">
<g id="Layer_1" clip-path="url(#clip0_719_469)">
<path id="Vector" d="M18.3317 27.678C17.7321 27.4201 17.4742 26.9657 17.5096 26.3148C17.5212 26.0981 17.4619 25.8683 17.4157 25.6487C17.2081 24.6727 16.6748 23.7963 15.9033 23.1634C15.1317 22.5305 14.168 22.1788 13.1702 22.1661C12.4073 22.1596 11.6423 22.1126 10.8903 22.3257C9.09439 22.835 7.72978 24.5254 7.69366 26.3668C7.68066 27.022 7.44155 27.4627 6.81812 27.678H6.27704C6.24309 27.5761 6.13256 27.5812 6.06032 27.5335C5.72008 27.324 5.53008 27.0278 5.5178 26.6254C5.42389 23.5552 7.82225 20.6006 10.8635 20.1238C12.4528 19.8724 14.0695 19.8299 15.5909 20.4959C18.0565 21.5752 19.3994 23.4902 19.6753 26.1653C19.7476 26.8624 19.559 27.3984 18.8691 27.6823L18.3317 27.678Z" fill="#787878"/>
<path id="Vector_2" d="M3.25377 5.28076C3.79686 5.28136 4.33096 5.41955 4.8062 5.68242C5.25986 5.93309 5.66801 5.89913 6.07761 5.56972C6.81523 4.97773 7.63853 4.50129 8.51932 4.15671C8.99971 3.96744 9.23738 3.64309 9.25905 3.11502C9.33129 1.39354 10.62 0.0809438 12.2866 0.00436967C14.0637 -0.0779836 15.4384 1.0439 15.6934 2.78415C15.7111 2.85396 15.7217 2.92536 15.7252 2.99727C15.6877 3.66838 16.0416 4.02596 16.6405 4.25713C17.4662 4.57643 18.2132 5.05174 18.9045 5.60221C19.3047 5.92223 19.6991 5.94826 20.1506 5.70048C22.0289 4.66312 24.3738 5.67519 24.8932 7.73836C25.0596 8.41649 25.0033 9.1302 24.7326 9.77384C24.4618 10.4175 23.991 10.9568 23.3899 11.312C22.9391 11.5721 22.7397 11.921 22.8119 12.4462C22.9384 13.3303 22.9413 14.2277 22.8206 15.1126C22.7484 15.632 22.9528 15.9795 23.3985 16.2511C24.5378 16.9374 25.1619 18.2471 24.9604 19.4571C24.7241 20.8737 23.7821 21.8887 22.4038 22.1935C21.6489 22.3639 20.8578 22.2491 20.1824 21.8713C19.6305 21.5744 19.4318 20.9532 19.7035 20.4186C19.9751 19.884 20.5891 19.6846 21.1577 19.944C21.8288 20.2496 22.458 20.0523 22.7303 19.4542C22.96 18.942 22.7679 18.3785 22.2376 18.0701C21.477 17.6273 20.9684 16.9959 20.7343 16.1456C20.6319 15.7614 20.6073 15.3605 20.6621 14.9667C20.7565 14.17 20.7533 13.3649 20.6527 12.569C20.4945 11.208 21.1143 10.2285 22.2095 9.50534C22.6834 9.19182 22.9116 8.7555 22.7946 8.28305C22.757 8.12491 22.6843 7.97725 22.5818 7.85102C22.4794 7.7248 22.3499 7.62322 22.2029 7.55384C22.0559 7.48447 21.8951 7.44907 21.7326 7.45025C21.57 7.45142 21.4098 7.48916 21.2638 7.56065C20.8803 7.73908 20.4945 7.91463 20.077 7.99409C19.6823 8.07219 19.2755 8.06569 18.8835 7.97504C18.4915 7.88439 18.1232 7.71162 17.8028 7.46816C17.032 6.90956 16.2076 6.42898 15.3416 6.03349C14.201 5.49964 13.6209 4.54537 13.5739 3.28189C13.5436 2.45764 12.8609 1.95341 12.1154 2.2207C11.6675 2.38107 11.4342 2.72636 11.4161 3.18436C11.3591 4.66094 10.6338 5.64413 9.27061 6.1852C8.53087 6.47922 7.87855 6.92421 7.23634 7.39233C6.15925 8.17613 5.00991 8.23319 3.83457 7.61843C3.25665 7.31502 2.62167 7.4559 2.30743 7.9912C2.00185 8.51349 2.17811 9.12607 2.73508 9.4786C3.97182 10.2602 4.45728 11.38 4.25211 12.819C4.15917 13.4713 4.15723 14.1333 4.24634 14.7861C4.43994 16.2063 3.9646 17.3101 2.73725 18.0737C2.18678 18.4168 2.00546 19.0128 2.28792 19.5365C2.57038 20.0603 3.18875 20.243 3.77823 19.9656C4.37998 19.6832 5.0063 19.8746 5.28081 20.4251C5.55532 20.9756 5.32776 21.6048 4.7224 21.9132C3.98048 22.2906 3.12218 22.3694 2.32394 22.1335C1.5257 21.8976 0.848168 21.3648 0.430632 20.6447C0.00873781 19.9207 -0.113634 19.0605 0.0896005 18.2476C0.292835 17.4346 0.8056 16.7333 1.51857 16.293C1.97873 16.004 2.1875 15.6428 2.10948 15.1054C1.9875 14.2023 1.99164 13.2867 2.12177 12.3848C2.18534 11.9066 2.00329 11.5671 1.6002 11.3222C1.01579 10.9751 0.553715 10.455 0.277916 9.83373C0.00211716 9.21251 -0.0737688 8.5209 0.0607646 7.85465C0.302045 6.58685 1.38059 5.57044 2.73942 5.3335C2.91207 5.30171 3.084 5.29665 3.25377 5.28076Z" fill="#787878"/>
<path id="Vector_3" d="M7.70275 13.7581C7.72081 10.9805 9.84827 8.88985 12.6338 8.91297C15.2923 8.93536 17.4327 11.1459 17.4132 13.8484C17.3944 16.4707 15.1738 18.6697 12.5732 18.6458C9.79482 18.6213 7.68469 16.5025 7.70275 13.7581ZM12.5789 11.0773C11.0424 11.0773 9.86561 12.2331 9.85478 13.7588C9.84394 15.2845 11.0301 16.4765 12.5717 16.483C14.0165 16.4888 15.2446 15.2607 15.2511 13.7942C15.2576 12.3068 14.0497 11.0787 12.5789 11.0773Z" fill="#787878"/>
</g>
<defs>
<clipPath id="clip0_719_469">
<rect width="25" height="27.6779" fill="white"/>
</clipPath>
</defs>
</svg>
