<svg width="25" height="24" viewBox="0 0 25 24" fill="none" xmlns="http://www.w3.org/2000/svg">
<g id="Layer_1" clip-path="url(#clip0_719_386)">
<path id="Vector" d="M-0.000161508 0.680996C0.069629 0.667299 0.0702867 0.600118 0.0950721 0.550547C0.290746 0.176157 0.601867 -0.0045166 1.02322 -0.0045166C3.20238 -0.0045166 5.17934 1.54587 5.70179 3.67676C5.74484 3.85352 5.80484 3.90636 5.98486 3.9044C6.93649 3.89461 7.88812 3.89854 8.83975 3.9005C9.4483 3.9005 9.89509 4.31598 9.89509 4.87887C9.89509 5.44176 9.4496 5.85398 8.84041 5.85724C7.92139 5.85724 7.00237 5.86181 6.08335 5.85724C5.91573 5.85724 5.8492 5.87549 5.8505 6.07377C5.86094 7.62678 5.8505 9.18043 5.85768 10.7341C5.85613 11.1192 5.93071 11.5009 6.07714 11.8572C6.22356 12.2134 6.43894 12.5372 6.7109 12.81C6.98286 13.0827 7.30605 13.299 7.66187 13.4465C8.01769 13.594 8.39915 13.6696 8.78431 13.6692C12.5587 13.6753 16.3328 13.6753 20.1067 13.6692C20.4919 13.6695 20.8734 13.5938 21.2293 13.4464C21.5852 13.2989 21.9085 13.0826 22.1806 12.8099C22.4527 12.5372 22.6683 12.2134 22.8149 11.8572C22.9616 11.501 23.0365 11.1193 23.0353 10.7341C23.0388 10.0918 23.0388 9.44917 23.0353 8.80605C23.0367 8.41918 22.9617 8.03582 22.8145 7.67806C22.6673 7.32029 22.4508 6.99516 22.1775 6.72136C21.9041 6.44755 21.5794 6.23048 21.2219 6.08263C20.8644 5.93478 20.4812 5.85906 20.0943 5.85984C19.9077 5.85984 19.7199 5.86636 19.5334 5.85984C19.2873 5.84571 19.0556 5.73976 18.8839 5.56293C18.7123 5.3861 18.6133 5.15129 18.6065 4.90495C18.5935 4.41446 18.977 3.95136 19.4714 3.91875C21.3127 3.79743 22.8631 4.37533 24.0097 5.86963C24.6487 6.69207 24.9918 7.70589 24.9835 8.74734C24.9835 9.61678 25.039 10.4882 24.9438 11.3563C24.72 13.3855 23.0888 15.1459 21.087 15.5255C20.7194 15.5939 20.3462 15.6273 19.9723 15.6253C15.6205 15.6253 11.2689 15.6253 6.91758 15.6253C6.30055 15.6253 5.86094 16.0277 5.85703 16.5919C5.85542 16.8424 5.94996 17.084 6.12119 17.2669C6.29241 17.4498 6.52727 17.56 6.77735 17.5749C6.8667 17.5801 6.95606 17.5749 7.04607 17.5749C11.3892 17.5749 15.7325 17.5749 20.076 17.5749C20.4754 17.5707 20.8714 17.6483 21.2396 17.8028C21.6079 17.9572 21.9408 18.1853 22.2177 18.4731C22.4947 18.7608 22.7099 19.1022 22.8501 19.4761C22.9904 19.85 23.0527 20.2487 23.0333 20.6476C22.9792 22.0995 21.7503 23.3472 20.2939 23.4262C18.7937 23.5077 17.4553 22.4478 17.2198 20.9992C17.1432 20.557 17.1714 20.1031 17.302 19.6738C17.3411 19.5479 17.3098 19.5238 17.1879 19.5238C15.3577 19.5272 13.5275 19.5272 11.6973 19.5238C11.4892 19.5238 11.5798 19.6275 11.604 19.7194C12.0364 21.3768 11.028 23.0244 9.36807 23.372C7.20718 23.8286 5.32414 21.7414 5.99269 19.6373C6.04422 19.4755 6.03966 19.4188 5.85833 19.3496C4.74951 18.9257 4.07312 18.1188 3.92898 16.9363C3.79461 15.8327 4.21271 14.9339 5.08802 14.2491C5.1389 14.2093 5.19108 14.1714 5.25304 14.1251C5.14347 13.9947 5.03128 13.8642 4.92692 13.7299C4.25489 12.8718 3.89304 11.8116 3.90028 10.7217C3.90028 8.80843 3.90028 6.89692 3.90028 4.98714C3.90028 3.26781 2.68645 2.01354 0.971689 1.95614C0.79167 1.95597 0.615191 1.90611 0.461675 1.81209C0.308159 1.71808 0.183561 1.58352 0.101593 1.42325C0.0715896 1.36976 0.0741995 1.29281 -0.00341797 1.27259L-0.000161508 0.680996ZM9.76007 20.4871C9.75698 20.2287 9.65173 19.9819 9.46732 19.8008C9.2829 19.6197 9.03431 19.519 8.77583 19.5205C8.51726 19.5234 8.27036 19.6286 8.0891 19.813C7.90785 19.9975 7.80699 20.2462 7.80855 20.5048C7.81148 20.7633 7.91665 21.0102 8.10109 21.1915C8.28552 21.3727 8.53421 21.4736 8.79279 21.472C9.05114 21.4691 9.29784 21.3641 9.47906 21.18C9.66028 20.9958 9.7613 20.7475 9.76007 20.4891V20.4871ZM20.1184 21.472C20.377 21.4684 20.6236 21.3626 20.8044 21.1777C20.9852 20.9927 21.0854 20.7438 21.0831 20.4852C21.0795 20.2266 20.9737 19.98 20.7887 19.7992C20.6038 19.6185 20.3548 19.5183 20.0962 19.5205C19.8378 19.5241 19.5913 19.6299 19.4105 19.8147C19.2298 19.9994 19.1295 20.2482 19.1316 20.5067C19.1345 20.7657 19.24 21.013 19.425 21.1944C19.61 21.3757 19.8594 21.4763 20.1184 21.474V21.472Z" fill="#787878"/>
<path id="Vector_2" d="M13.2746 4.46399V3.36301C13.2746 2.59857 13.2746 1.83434 13.2746 1.07035C13.2746 0.438317 13.6809 -0.00129009 14.2569 0.00197115C14.8328 0.00523239 15.2248 0.440931 15.2261 1.05926C15.2261 2.1733 15.2261 3.28734 15.2261 4.40138C15.2261 4.40725 15.2326 4.41378 15.2665 4.47117C15.3468 4.3706 15.4322 4.27415 15.5222 4.18222C15.9318 3.80326 16.5267 3.81566 16.9017 4.20505C17.2768 4.59444 17.2637 5.20559 16.8567 5.60216C16.6239 5.82914 16.406 6.07309 16.1582 6.28181C15.0115 7.24714 13.4931 7.25104 12.3458 6.28767C12.0687 6.04906 11.8072 5.79285 11.5631 5.52063C11.4013 5.34067 11.3135 5.10615 11.3175 4.86416C11.3215 4.62218 11.4169 4.39066 11.5846 4.21613C11.7528 4.03587 11.9834 3.92654 12.2294 3.91042C12.4755 3.89431 12.7184 3.97262 12.9087 4.1294C13.0319 4.21941 13.133 4.32963 13.2746 4.46399Z" fill="#787878"/>
</g>
<defs>
<clipPath id="clip0_719_386">
<rect width="25" height="23.4326" fill="white"/>
</clipPath>
</defs>
</svg>
