<svg width="20" height="24" viewBox="0 0 20 24" fill="none" xmlns="http://www.w3.org/2000/svg">
<g id="Isolation_Mode" clip-path="url(#clip0_117_4223)">
<path id="Vector" d="M16.7316 23.602C16.4636 23.4887 16.1704 23.4942 15.8919 23.4301C15.4959 23.342 15.1059 23.2284 14.7245 23.0901C14.6104 23.0504 14.5052 22.9887 14.4149 22.9084C14.3247 22.8281 14.2511 22.7308 14.1985 22.6221C14.1458 22.5134 14.1151 22.3953 14.108 22.2747C14.101 22.1541 14.1177 22.0333 14.1574 21.9192C14.197 21.8051 14.2588 21.6999 14.3391 21.6097C14.4194 21.5194 14.5166 21.4459 14.6254 21.3932C14.7341 21.3405 14.8521 21.3098 14.9727 21.3028C15.0933 21.2957 15.2141 21.3125 15.3282 21.3521C15.8693 21.5471 16.4316 21.6774 17.0033 21.7403C17.3033 21.7711 17.5997 21.7883 17.8621 21.5881C18.2675 21.2801 18.2576 20.7989 17.8319 20.5192C17.599 20.3658 17.3391 20.3344 17.0637 20.3245C16.2043 20.2944 15.4348 20.0313 14.8366 19.3875C13.578 18.0322 14.2766 15.7767 16.0958 15.3067C16.906 15.0972 17.6976 15.2611 18.4776 15.4699C18.7135 15.5315 18.9452 15.6147 19.175 15.6991C19.735 15.9043 19.9956 16.4088 19.8095 16.9158C19.6247 17.4087 19.1096 17.628 18.5583 17.434C18.1018 17.2732 17.6422 17.1259 17.1586 17.0766C16.9454 17.0538 16.7273 17.0224 16.5215 17.1044C16.2425 17.2152 16.0663 17.4167 16.0429 17.7204C16.0213 18.0124 16.1969 18.1886 16.4341 18.3162C16.691 18.4542 16.9719 18.4757 17.2584 18.4874C18.1905 18.525 18.9772 18.878 19.5378 19.6407C20.5697 21.0515 19.7972 23.0593 18.0666 23.509C17.9434 23.5404 17.811 23.5201 17.7025 23.5996L16.7316 23.602Z" fill="#96B0C4"/>
<path id="Vector_2" d="M0.689862 23.6024C0.416328 23.4613 0.156971 23.3067 0.0503916 22.9863C0.00998486 22.8622 -0.00538129 22.7313 0.00519427 22.6012C0.0157698 22.4712 0.0520765 22.3445 0.111998 22.2285C0.516754 21.3611 0.912878 20.49 1.32133 19.625C1.36148 19.5489 1.38194 19.4639 1.38086 19.3778C1.37979 19.2917 1.3572 19.2073 1.31516 19.1322C0.911024 18.29 0.518599 17.4429 0.1237 16.5964C-0.127655 16.0568 0.044844 15.5202 0.540162 15.2935C1.03548 15.0668 1.54004 15.2799 1.79078 15.8103C2.12407 16.5164 2.45366 17.2273 2.78511 17.9315C2.87628 17.9148 2.87628 17.8323 2.90339 17.7762C3.22621 17.0985 3.54226 16.4209 3.86816 15.7432C3.94752 15.5666 4.0811 15.42 4.24948 15.3245C4.41787 15.229 4.61231 15.1896 4.80458 15.2121C4.99671 15.2343 5.17704 15.3162 5.32017 15.4463C5.4633 15.5764 5.56201 15.7481 5.60238 15.9373C5.65598 16.1652 5.60546 16.3765 5.5075 16.5829C5.09535 17.4546 4.68753 18.3288 4.27168 19.1993C4.24105 19.2548 4.22497 19.3171 4.22497 19.3805C4.22497 19.4438 4.24105 19.5061 4.27168 19.5616C4.67028 20.4062 5.06024 21.2545 5.45268 22.1016C5.79398 22.8372 5.62578 23.2826 4.88835 23.5974H4.47374C4.08377 23.4428 3.88232 23.1317 3.72337 22.7596C3.46771 22.1632 3.18123 21.5798 2.904 20.9927C2.87813 20.9385 2.88121 20.8535 2.78696 20.8424C2.47892 21.509 2.15796 22.1694 1.86779 22.8421C1.71131 23.2056 1.49014 23.4748 1.10817 23.5974L0.689862 23.6024Z" fill="#96B0C4"/>
<path id="Vector_3" d="M9.49407 23.6024C9.44109 23.5198 9.34622 23.5364 9.27106 23.5174C8.65609 23.3632 8.10946 23.0098 7.71648 22.5123C7.32351 22.0148 7.10632 21.4012 7.09881 20.7672C7.09142 19.2394 7.09573 17.7115 7.09881 16.1831C7.09881 15.6237 7.49247 15.214 8.01921 15.2134C8.54595 15.2128 8.94023 15.6218 8.94331 16.1812C8.94331 17.6598 8.94331 19.1451 8.94331 20.6268C8.94331 21.3414 9.35854 21.7572 10.0695 21.7585C10.6855 21.7585 11.2979 21.7585 11.9127 21.7585C12.4296 21.7585 12.803 22.0486 12.8948 22.5169C12.9823 22.9604 12.7377 23.3584 12.2584 23.5568C12.2411 23.5636 12.23 23.5863 12.2165 23.6018L9.49407 23.6024Z" fill="#96B0C4"/>
<path id="Vector_4" d="M9.89449 1.84523C8.51204 1.84523 7.12939 1.84523 5.74652 1.84523C3.5946 1.84523 1.98235 3.46364 1.98112 5.62049C1.98112 7.8794 1.98112 10.1383 1.98112 12.3972C1.98112 13.0749 1.38785 13.5265 0.769317 13.3213C0.597798 13.2637 0.446865 13.1572 0.335107 13.0149C0.223348 12.8726 0.155645 12.7007 0.140315 12.5204C0.136618 12.4668 0.140315 12.4126 0.140315 12.359C0.140315 10.1001 0.140315 7.84121 0.140315 5.58229C0.145243 2.79336 2.09694 0.506511 4.84953 0.0623265C5.13842 0.0186399 5.43033 -0.00196082 5.72249 0.000719805C8.5182 0.000719805 11.3139 0.000719805 14.1103 0.000719805C16.9066 0.000719805 19.1873 1.96289 19.6253 4.71487C19.6629 4.95763 19.6819 5.20293 19.682 5.4486C19.6865 7.7683 19.6865 10.0888 19.682 12.4102C19.682 13.1322 18.9741 13.5893 18.3525 13.2727C17.9976 13.0915 17.8381 12.7878 17.8381 12.3904C17.8381 10.1398 17.8381 7.88925 17.8381 5.63897C17.8405 5.33953 17.811 5.04069 17.75 4.74752C17.5715 3.93537 17.1242 3.20721 16.4804 2.68093C15.8366 2.15465 15.0341 1.86106 14.2027 1.84769H9.89019L9.89449 1.84523Z" fill="#96B0C4"/>
<path id="Vector_5" d="M14.142 9.40472C13.5518 9.40965 12.9628 9.4269 12.3911 9.22422C11.7698 9.00318 11.2306 8.59804 10.8454 8.0628C10.4602 7.52755 10.2472 6.88762 10.2349 6.22828C10.2293 5.70647 10.2349 5.18466 10.2349 4.66224C10.2349 4.101 10.6255 3.69193 11.1516 3.68946C11.6777 3.687 12.0757 4.09545 12.0757 4.65238C12.0788 5.14523 12.0757 5.63809 12.0757 6.12601C12.08 6.96448 12.6727 7.55652 13.5118 7.56022C14.0046 7.56022 14.4975 7.56022 14.9854 7.56022C15.5398 7.56022 15.9508 7.96127 15.9471 8.48863C15.9434 9.00551 15.5374 9.39671 14.994 9.40287C14.71 9.40718 14.426 9.40472 14.142 9.40472Z" fill="#96B0C4"/>
</g>
<defs>
<clipPath id="clip0_117_4223">
<rect width="20" height="23.6021" fill="white"/>
</clipPath>
</defs>
</svg>
